<?xml version="1.0" encoding="UTF-8"?><svg xmlns="http://www.w3.org/2000/svg" viewBox="0 0 1080 613.25"><g id="secondary"><polygon points="179.38 227.13 168.28 227.13 157.19 227.13 146.09 227.13 146.09 238.22 157.19 238.22 168.28 238.22 179.38 238.22 190.47 238.22 201.57 238.22 201.57 227.13 190.47 227.13 179.38 227.13"/><polygon points="279.24 238.22 279.24 249.32 279.24 260.41 279.24 271.51 290.34 271.51 290.34 260.41 290.34 249.32 290.34 238.22 290.34 227.13 279.24 227.13 279.24 238.22"/><polygon points="490.07 227.13 478.97 227.13 467.88 227.13 456.78 227.13 456.78 238.22 456.78 249.32 456.78 260.41 467.88 260.41 478.97 260.41 490.07 260.41 501.16 260.41 501.16 271.51 490.07 271.51 478.97 271.51 467.88 271.51 456.78 271.51 456.78 282.61 467.88 282.61 478.97 282.61 490.07 282.61 501.16 282.61 512.26 282.61 512.26 271.51 512.26 260.41 512.26 249.32 501.16 249.32 490.07 249.32 478.97 249.32 467.88 249.32 467.88 238.22 478.97 238.22 490.07 238.22 501.16 238.22 512.26 238.22 512.26 227.13 501.16 227.13 490.07 227.13"/><polygon points="900.62 238.22 911.72 238.22 922.81 238.22 933.91 238.22 933.91 227.13 922.81 227.13 911.72 227.13 900.62 227.13 889.53 227.13 878.43 227.13 878.43 238.22 878.43 249.32 878.43 260.41 889.53 260.41 900.62 260.41 911.72 260.41 922.81 260.41 922.81 271.51 911.72 271.51 900.62 271.51 889.53 271.51 878.43 271.51 878.43 282.61 889.53 282.61 900.62 282.61 911.72 282.61 922.81 282.61 933.91 282.61 933.91 271.51 933.91 260.41 933.91 249.32 922.81 249.32 911.72 249.32 900.62 249.32 889.53 249.32 889.53 238.22 900.62 238.22"/><path d="M601.03,227.13h-33.29v55.48h11.1v-22.19h44.38v-33.29h-22.19ZM612.12,249.32h-33.29v-11.1h33.29v11.1Z"/><path d="M268.15,315.89h-33.29v55.48h11.1v-22.19h44.38v-33.29h-22.19ZM279.24,338.09h-33.29v-11.1h33.29v11.1Z"/><path d="M379.11,315.89h-33.29v55.48h55.48v-55.48h-22.19ZM390.2,338.09v22.19h-33.29v-33.29h33.29v11.1Z"/><polygon points="490.07 315.89 478.97 315.89 467.88 315.89 456.78 315.89 456.78 326.99 456.78 338.09 456.78 349.18 456.78 360.28 456.78 371.37 467.88 371.37 478.97 371.37 490.07 371.37 501.16 371.37 501.16 360.28 490.07 360.28 478.97 360.28 467.88 360.28 467.88 349.18 467.88 338.09 467.88 326.99 478.97 326.99 490.07 326.99 501.16 326.99 501.16 338.09 501.16 349.18 501.16 360.28 512.26 360.28 512.26 349.18 512.26 338.09 512.26 326.99 512.26 315.89 501.16 315.89 490.07 315.89"/><polygon points="601.03 315.89 589.93 315.89 578.84 315.89 567.74 315.89 567.74 326.99 567.74 338.09 567.74 349.18 567.74 360.28 567.74 371.37 578.84 371.37 589.93 371.37 601.03 371.37 612.12 371.37 612.12 360.28 601.03 360.28 589.93 360.28 578.84 360.28 578.84 349.18 578.84 338.09 578.84 326.99 589.93 326.99 601.03 326.99 612.12 326.99 612.12 338.09 612.12 349.18 612.12 360.28 623.22 360.28 623.22 349.18 623.22 338.09 623.22 326.99 623.22 315.89 612.12 315.89 601.03 315.89"/><polygon points="811.85 315.89 800.76 315.89 789.66 315.89 789.66 326.99 789.66 338.09 789.66 349.18 789.66 360.28 789.66 371.37 800.76 371.37 800.76 360.28 800.76 349.18 800.76 338.09 800.76 326.99 811.85 326.99 822.95 326.99 834.05 326.99 834.05 315.89 822.95 315.89 811.85 315.89"/><polygon points="711.99 227.13 700.89 227.13 689.8 227.13 678.7 227.13 678.7 238.22 678.7 249.32 678.7 260.41 678.7 271.51 678.7 282.61 689.8 282.61 700.89 282.61 711.99 282.61 723.08 282.61 734.18 282.61 734.18 271.51 723.08 271.51 711.99 271.51 700.89 271.51 689.8 271.51 689.8 260.41 700.89 260.41 711.99 260.41 723.08 260.41 734.18 260.41 734.18 249.32 723.08 249.32 711.99 249.32 700.89 249.32 689.8 249.32 689.8 238.22 700.89 238.22 711.99 238.22 723.08 238.22 734.18 238.22 734.18 227.13 723.08 227.13 711.99 227.13"/><polygon points="711.99 315.89 700.89 315.89 689.8 315.89 678.7 315.89 678.7 326.99 678.7 338.09 678.7 349.18 678.7 360.28 678.7 371.37 689.8 371.37 700.89 371.37 711.99 371.37 723.08 371.37 734.18 371.37 734.18 360.28 723.08 360.28 711.99 360.28 700.89 360.28 689.8 360.28 689.8 349.18 700.89 349.18 711.99 349.18 723.08 349.18 734.18 349.18 734.18 338.09 723.08 338.09 711.99 338.09 700.89 338.09 689.8 338.09 689.8 326.99 700.89 326.99 711.99 326.99 723.08 326.99 734.18 326.99 734.18 315.89 723.08 315.89 711.99 315.89"/><polygon points="822.95 271.51 811.85 271.51 800.76 271.51 800.76 260.41 800.76 249.32 800.76 238.22 800.76 227.13 789.66 227.13 789.66 238.22 789.66 249.32 789.66 260.41 789.66 271.51 789.66 282.61 800.76 282.61 811.85 282.61 822.95 282.61 834.05 282.61 845.14 282.61 845.14 271.51 834.05 271.51 822.95 271.51"/><polygon points="257.05 271.51 245.96 271.51 245.96 260.41 245.96 249.32 245.96 238.22 245.96 227.13 234.86 227.13 234.86 238.22 234.86 249.32 234.86 260.41 234.86 271.51 234.86 282.61 245.96 282.61 257.05 282.61 268.15 282.61 279.24 282.61 279.24 271.51 268.15 271.51 257.05 271.51"/></g><g id="primary"><polygon points="162.73 260.41 162.73 282.61 162.73 304.8 162.73 326.99 184.93 326.99 184.93 304.8 184.93 282.61 184.93 260.41 184.93 238.22 162.73 238.22 162.73 260.41"/><rect x="362.46" y="243.77" width="22.19" height="22.19"/><polygon points="834.05 326.99 834.05 349.18 834.05 371.37 834.05 393.57 834.05 415.76 856.24 415.76 856.24 393.57 856.24 371.37 856.24 349.18 856.24 326.99 834.05 326.99"/><path d="M540,227.13c-3.06,0-5.55,2.48-5.55,5.55s2.48,5.55,5.55,5.55,5.55-2.48,5.55-5.55-2.48-5.55-5.55-5.55Z"/><rect x="534.45" y="360.28" width="3.7" height="11.1"/><polygon points="541.85 371.37 545.55 365.83 541.85 360.28 541.85 371.37"/><rect x="534.45" y="204.93" width="11.1" height="11.1"/><rect x="534.45" y="182.74" width="11.1" height="11.1"/><rect x="534.45" y="160.55" width="11.1" height="11.1"/><rect x="534.45" y="138.36" width="11.1" height="11.1"/><rect x="534.45" y="116.17" width="11.1" height="11.1"/><rect x="534.45" y="271.51" width="11.1" height="11.1"/><polygon points="540 304.8 545.55 293.7 534.45 293.7 540 304.8"/><rect x="534.45" y="323.29" width="11.1" height="3.7"/><polygon points="534.45 349.18 545.55 349.18 545.55 345.48 540 345.48 534.45 345.48 534.45 349.18"/><rect x="534.45" y="315.89" width="11.1" height="3.7"/><polygon points="534.45 338.09 540 345.48 545.55 338.09 534.45 338.09"/><polygon points="534.45 253.02 540 253.02 545.55 253.02 545.55 249.32 534.45 249.32 534.45 253.02"/><polygon points="545.55 260.41 540 253.02 534.45 260.41 545.55 260.41"/><rect x="534.45" y="382.47" width="11.1" height="11.1"/><rect x="534.45" y="404.66" width="11.1" height="11.1"/><rect x="534.45" y="426.85" width="11.1" height="11.1"/><rect x="534.45" y="449.05" width="11.1" height="11.1"/><rect x="534.45" y="471.24" width="11.1" height="11.1"/></g></svg>