<?xml version="1.0" encoding="UTF-8"?><svg xmlns="http://www.w3.org/2000/svg" viewBox="0 0 1080 879"><defs><style>.cls-1{fill:#fff;}</style></defs><g id="secondary"><path d="M323.22,450.72c7.21-1.34,12.68-7.66,12.68-15.25,0-8.56-6.96-15.53-15.53-15.53-7.59,0-13.91,5.48-15.25,12.68-5.98,1.8-10.33,7.34-10.33,13.91,0,8.02,6.5,14.53,14.53,14.53,6.56,0,12.11-4.36,13.91-10.34ZM320.38,421.94c7.46,0,13.53,6.07,13.53,13.53,0,6.32-4.36,11.62-10.22,13.1.09-.67.16-1.34.16-2.04,0-8.02-6.5-14.53-14.53-14.53-.69,0-1.37.07-2.04.16,1.48-5.86,6.78-10.22,13.1-10.22Z"/><path d="M207.63,214.11c6.56,0,12.11-4.36,13.91-10.34,7.21-1.34,12.68-7.66,12.68-15.25,0-8.56-6.96-15.53-15.53-15.53-7.59,0-13.91,5.48-15.25,12.68-5.98,1.8-10.34,7.34-10.34,13.91,0,8.02,6.5,14.53,14.53,14.53ZM218.7,175c7.46,0,13.53,6.07,13.53,13.53,0,6.32-4.36,11.62-10.22,13.1.09-.67.16-1.34.16-2.04,0-8.02-6.5-14.53-14.53-14.53-.69,0-1.37.07-2.04.16,1.48-5.86,6.78-10.22,13.1-10.22Z"/><path d="M342.17,463.52c-13.97,0-26.16,7.72-32.56,19.11-8.99,6.61-14.82,17.26-14.82,29.27h0v138h29.05v-10.06h12.06v-18.99h2.46v29.05h29.05v-10.06h12.06v-139c0-20.58-16.74-37.32-37.32-37.32ZM333.9,637.83h-10.06v-16.99h10.06v16.99ZM335.9,506.46c1.51,1.33,2.46,3.27,2.46,5.44h0v67.83h-2.46v-73.27ZM338.37,581.73v10.06h-14.53v-79.89c0-4.01,3.25-7.26,7.26-7.26.99,0,1.94.2,2.8.56v76.53h4.46ZM377.48,637.83h-10.06v-125.93h0c0-20.06-16.26-36.32-36.31-36.32-6.33,0-12.28,1.62-17.47,4.47,6.43-8.8,16.82-14.54,28.53-14.54,19.47,0,35.32,15.84,35.32,35.32v137Z"/><path d="M748.9,419.94c-13.96,0-26.15,7.71-32.55,19.11-8.99,6.61-14.83,17.26-14.83,29.27v181.58h29.05v-10.06h12.06v-18.99h2.46v29.05h29.05v-10.06h12.06v-182.58c0-20.58-16.74-37.32-37.32-37.32ZM740.63,637.83h-10.06v-16.99h10.06v16.99ZM730.57,468.32c0-4.01,3.25-7.26,7.26-7.26.99,0,1.94.2,2.8.56v120.11h4.46v10.06h-14.53v-116.21h0v-7.26h0ZM742.63,462.88c1.51,1.33,2.46,3.27,2.46,5.44h0v7.26h0v104.15h-2.46v-116.85ZM784.21,637.83h-10.06v-169.51c0-20.06-16.26-36.32-36.32-36.32-6.33,0-12.28,1.62-17.47,4.47,6.43-8.8,16.82-14.54,28.53-14.54,19.47,0,35.32,15.84,35.32,35.33v180.56Z"/><path d="M443.85,463.52h-37.32v12.06h-10.06v116.21h29.05v-10.06h12.06v-17.15c1.51,1.33,2.46,3.27,2.46,5.44v21.77h29.05v-10.06h12.06v-22.77c0-7.9-2.43-15.42-7.03-21.8,4.6-6.37,7.03-13.89,7.03-21.8v-14.53c0-20.58-16.74-37.32-37.31-37.32ZM435.59,579.73h-10.06v-16.99h7.26s0,.02,0,.02c.99,0,1.94.2,2.8.56v16.41ZM437.59,506.46c1.51,1.33,2.46,3.27,2.46,5.44v9.73h-2.46s0-15.17,0-15.17ZM440.05,523.63v2.8h0c0,4.01-3.25,7.26-7.26,7.26h0s-7.26,0-7.26,0v-29.05h7.26c.99,0,1.94.2,2.8.56v18.43h4.46ZM479.16,515.36c0,7.72-2.44,15.05-7.07,21.2l-.45.6.45.6c4.62,6.15,7.07,13.48,7.07,21.2v20.77h-10.06v-9.71c0-8.18-2.71-15.73-7.27-21.8,4.56-6.07,7.27-13.62,7.27-21.8v-14.53c0-20.06-16.26-36.32-36.32-36.32h-24.25v-10.06h35.32c19.47,0,35.31,15.84,35.31,35.32v14.53Z"/><path d="M875.83,429.82v-15.49c3.77,2.22,7.27,4.92,10.35,8.07l1.71,1.75v-133.93c0-64.63-52.58-117.21-117.21-117.21-30.7,0-59.72,11.79-81.71,33.19-4.13,4.01-7.92,8.29-11.37,12.78-16.45,16.39-28.02,37.68-32.32,61.5-8.48-3.8-17.68-5.78-27.12-5.78-22.78,0-42.94,11.35-54.9,28.95-8.6,7.78-15.1,17.82-18.61,29.17-1.81.04-3.61.21-5.38.51v-.52h-.52c-4.12-33.19-32.27-58.1-65.85-58.1-12.62,0-24.83,3.54-35.44,10.25-1.17-26.31-11-51.06-28.01-70.9.51.05,1.02.08,1.54.08,6.56,0,12.11-4.36,13.91-10.34,7.21-1.34,12.68-7.66,12.68-15.25,0-8.56-6.96-15.53-15.53-15.53-7.59,0-13.91,5.48-15.25,12.68-5.98,1.8-10.34,7.34-10.34,13.91,0,.52.03,1.04.08,1.55-21.22-18.19-47.99-28.14-76.18-28.14-37.68,0-71.27,17.88-92.72,45.6-21.33,21.07-34.55,50.32-34.55,82.67,0,16.87,3.6,32.9,10.06,47.36v28.95c-3.74-5.19-7.11-10.65-10.06-16.37v317.74h0v29.05h36.31c12.01,0,22.66-5.84,29.27-14.83,11.37-6.38,19.08-18.54,19.11-32.48v-247.55c10.02,2.82,20.59,4.33,31.52,4.33,32.24,0,61.4-13.14,82.45-34.33,1.6-1.23,3.17-2.5,4.71-3.81v81.73h29.05v-10.06h12.06v-109.95c0-7.76,2.52-14.94,6.78-20.78,5.18-2.85,11.14-4.47,17.47-4.47,20.06,0,36.31,16.26,36.31,36.32,0,6.33-1.62,12.28-4.47,17.47-5.84,4.26-13.02,6.79-20.78,6.79-7.04,0-13.83-2.07-19.66-5.98l-1.56-1.05v17.63c-3.62-1.05-7.01-2.64-10.06-4.69v31.98c6.37,2.08,13.16,3.22,20.22,3.22,13.44,0,25.93-4.06,36.32-11.02v54.59h29.05v-10.06h12.06v-75.27c1.51,1.33,2.46,3.27,2.46,5.44,0,0,0,.01,0,.02v35.57c8.97-1.82,16.74-6.96,21.98-14.07,11.53-6.46,19.13-18.83,19.13-32.58v-29.05c0-7.76,2.52-14.94,6.78-20.78,5.18-2.85,11.13-4.47,17.47-4.47,20.06,0,36.31,16.26,36.31,36.32h0v65.91c3.35.48,6.59,1.29,9.69,2.39-1.92-.31-3.89-.47-5.89-.47h-37.32v12.06h-10.06v159.79h36.32c12.01,0,22.66-5.83,29.27-14.82,11.39-6.4,19.11-18.59,19.11-32.56v-87.16c0-10.84-4.65-20.62-12.06-27.44v-15.48c3.77,2.22,7.27,4.92,10.35,8.07l1.71,1.75v-34.22c20.25,17.17,46.46,27.54,75.09,27.54s52.74-9.55,72.63-25.5v-2.02c4.02-2.5,7.93-5.25,11.69-8.26l.37-.3v-46.36l-1.83,2.76c-3.04,4.58-6.47,8.8-10.23,12.65v-1.04c-.75,1.13-1.54,2.24-2.34,3.33-15.83,15.02-36.91,23.62-59.23,23.62-47.51,0-86.16-38.65-86.16-86.16,0-23.06,9.12-44.02,23.93-59.5,14.37-10.44,32.04-16.6,51.16-16.6,48.14,0,87.16,39.02,87.16,87.16h0v116.73c3.39.48,6.66,1.31,9.8,2.43-1.95-.32-3.96-.49-6-.49h-37.31v12.06h-10.06v275.99h29.05v-10.06h12.06v-17.17c1.51,1.33,2.46,3.27,2.46,5.44v21.79h29.05v-10.06h12.06v-22.79c0-7.9-2.42-15.42-7.02-21.79,4.6-6.38,7.02-13.89,7.02-21.79v-174.31c0-10.84-4.65-20.62-12.06-27.44ZM640.95,462.88c1.51,1.33,2.46,3.27,2.46,5.44h0v82.36h-2.46v-87.8ZM643.41,552.68v2.8h0c0,4.01-3.25,7.26-7.26,7.26h-7.26v-101.68h7.26c.99,0,1.94.2,2.8.56v91.06h4.46ZM682.53,457.26v87.15c0,11.71-5.73,22.1-14.54,28.53,2.85-5.18,4.47-11.14,4.47-17.47v-87.15h0c0-20.06-16.26-36.32-36.32-36.32h0s-24.25,0-24.25,0v-10.06h35.32c7.81,0,15.03,2.55,20.89,6.86,1.53,1.24,2.99,2.56,4.37,3.97v-.17c6.22,6.37,10.06,15.07,10.06,24.65ZM690.36,207.62c21.62-21.03,50.15-32.62,80.32-32.62,63.53,0,115.21,51.68,115.21,115.24v129.08c-3.05-2.84-6.44-5.29-10.06-7.31v-110.71s0-.02,0-.03c0-64.18-52.03-116.21-116.21-116.21-26.57,0-51.05,8.92-70.63,23.92.45-.46.91-.91,1.37-1.36ZM618.16,276.68c9.33,0,18.42,2,26.77,5.83-.81,5-1.31,10.1-1.46,15.28-10.4-6.98-22.91-11.05-36.37-11.05s-26.67,4.3-37.24,11.64c11.81-13.39,29.1-21.71,48.3-21.71ZM422.06,175c7.46,0,13.53,6.07,13.53,13.53,0,6.32-4.36,11.62-10.22,13.1.09-.67.16-1.34.16-2.04,0-8.02-6.5-14.53-14.53-14.53-.69,0-1.37.07-2.04.16,1.48-5.86,6.78-10.22,13.1-10.22ZM320.38,175c28.64,0,55.78,10.44,76.96,29.48,1.46,4.08,4.69,7.31,8.78,8.77,18.23,20.26,28.61,46.08,29.42,73.51l.05,1.81,1.5-1.01c10.61-7.12,22.99-10.88,35.81-10.88,32.86,0,60.35,24.6,63.96,57.21l.1.89h.31v.95l1.2-.24c1.84-.37,3.71-.59,5.6-.67-.96,3.5-1.65,7.11-2.01,10.82-2.45-.52-4.98-.8-7.58-.8s-4.92.25-7.26.73v-.73h-.41c-3.61-32.68-31.31-58.1-64.96-58.1-13.46,0-25.97,4.07-36.37,11.05-1.84-62.57-53.14-112.73-116.15-112.73-26.46,0-50.85,8.85-70.39,23.75,20.86-20.88,49.68-33.81,81.45-33.81ZM309.32,214.11c48.14,0,87.16,39.02,87.16,87.16,0,19.12-6.16,36.79-16.6,51.16-15.48,14.81-36.44,23.93-59.5,23.93-47.51,0-86.16-38.65-86.16-86.16,0-23.06,9.13-44.02,23.93-59.5,14.37-10.44,32.04-16.6,51.16-16.6ZM232.22,290.21c0,48.61,39.55,88.16,88.16,88.16,19.54,0,37.61-6.39,52.25-17.2-15.89,16.78-38.37,27.26-63.31,27.26-48.14,0-87.16-39.02-87.16-87.16,0-24.94,10.47-47.42,27.26-63.31-10.8,14.63-17.2,32.71-17.2,52.25ZM205.17,354.13c3.56,6.41,7.64,12.48,12.19,18.19,4.45,5.75,9.43,11.07,14.86,15.89v280.67h4.46v2.81c0,4.01-3.25,7.25-7.26,7.25h-7.26v-280.24c-6.23-5.58-11.92-11.75-16.99-18.42v-26.15ZM275.8,660.64c0,11.7-5.74,22.08-14.53,28.51,2.85-5.18,4.47-11.12,4.47-17.45h0s0-.01,0-.02h0v-247.13c-5.87-2.07-11.54-4.57-16.99-7.42v-16.35c8.47,5.5,17.56,10.01,27.05,13.42v246.44ZM246.75,416.07c-3.45-1.88-6.81-3.91-10.06-6.09v256.9h-2.46v-276.94c3.96,3.36,8.14,6.46,12.53,9.26v16.86ZM435.59,341.05v107.95h-10.06v-96.88c0-12.01,5.84-22.66,14.82-29.27-3.03,5.39-4.76,11.6-4.76,18.21ZM453.68,373.04c5.79,3.49,12.4,5.33,19.22,5.33s12.82-1.73,18.21-4.76c-6.61,8.99-17.26,14.82-29.27,14.82-2.8,0-5.53-.32-8.15-.92v-14.47ZM537.27,449h-10.06v-67.83c0-4.01,3.25-7.26,7.26-7.26.99,0,1.94.2,2.8.56v74.53ZM580.85,341.05v29.05c0,11.55-5.66,22.05-14.55,28.55,2.86-5.19,4.49-11.14,4.49-17.48h0v-29.05c0-12.01,5.84-22.66,14.82-29.27-3.03,5.39-4.76,11.6-4.76,18.21ZM682.53,419.34c-3.05-2.84-6.44-5.29-10.06-7.31v-33.91c3.14,3.56,6.51,6.93,10.06,10.08v31.13ZM842.31,341.56v38.88c-3.25,2.58-6.61,4.95-10.06,7.15v-34.31c3.65-3.57,7.03-7.48,10.06-11.72ZM682.53,290.21c0,48.61,39.55,88.16,88.16,88.16,19.01,0,37.13-6.09,52.02-17-15.87,16.66-38.26,27.06-63.08,27.06-48.14,0-87.16-39.02-87.16-87.16,0-24.93,10.47-47.42,27.26-63.31-10.8,14.63-17.2,32.7-17.2,52.25ZM842.31,695.94h-10.06v-16.99h7.26c.99,0,1.94.2,2.8.56v16.43ZM844.31,462.88c1.51,1.33,2.46,3.27,2.46,5.44v7.26h0v162.25h-2.46v-174.95ZM846.78,639.83v2.8c0,4.01-3.25,7.26-7.26,7.26h-7.26v-188.84h7.26c.99,0,1.94.2,2.8.56v178.22h4.46ZM885.89,631.57c0,7.71-2.44,15.04-7.06,21.19l-.45.6.45.6c4.62,6.15,7.06,13.48,7.06,21.19v20.79h-10.06v-9.73c0-8.18-2.7-15.72-7.26-21.79,4.56-6.07,7.26-13.61,7.26-21.79v-174.31c0-20.06-16.26-36.32-36.32-36.32h0s-24.25,0-24.25,0v-10.06h35.31c7.87,0,15.15,2.59,21.03,6.96,1.48,1.2,2.89,2.49,4.22,3.85v-.15c6.22,6.37,10.06,15.08,10.06,24.67v174.3Z"/><path d="M539.27,500.84v-37.32h-31.05v12.06h-10.06v36.32c0,20.06,16.26,36.32,36.32,36.32h36.32v-10.06h12.06v-31.05h-37.32c-3.45,0-6.26-2.81-6.26-6.26ZM580.85,536.15h-10.06v-16.99h-36.32c-4.01,0-7.26-3.25-7.26-7.26v-36.32h-16.99v-10.06h27.05v35.32c0,4.56,3.71,8.26,8.26,8.26h35.32v27.05Z"/><path d="M363.96,419.94c-7.59,0-13.91,5.48-15.25,12.68-5.98,1.8-10.34,7.34-10.34,13.91,0,8.02,6.5,14.53,14.53,14.53,6.56,0,12.11-4.36,13.91-10.34,7.21-1.34,12.68-7.66,12.68-15.25,0-8.56-6.96-15.53-15.53-15.53ZM367.26,448.57c.09-.67.16-1.34.16-2.04,0-8.02-6.5-14.53-14.53-14.53-.69,0-1.37.07-2.04.16,1.48-5.86,6.78-10.22,13.1-10.22,7.46,0,13.53,6.07,13.53,13.53,0,6.32-4.36,11.62-10.22,13.1Z"/></g><g id="primary"><path class="cls-1" d="M342.17,465.52c-19.47,0-35.32,15.84-35.32,35.32v137h27.05v-29.05h16.53v29.05h27.05v-137c0-19.47-15.84-35.32-35.32-35.32ZM333.9,581.73v-80.89c0-4.56,3.71-8.26,8.26-8.26s8.26,3.71,8.26,8.26v80.89s-16.53,0-16.53,0Z"/><path class="cls-1" d="M748.9,421.94c-19.47,0-35.32,15.84-35.32,35.32v180.58h27.05v-29.05h16.53v29.05h27.05v-180.56c0-19.49-15.84-35.33-35.32-35.33ZM757.16,464.52v117.21h-16.53v-124.47c0-4.56,3.71-8.26,8.26-8.26s8.26,3.71,8.26,8.26v7.26s0,0,0,0Z"/><path class="cls-1" d="M443.85,465.52h-35.32v114.21h27.05v-29.05h9.21v.07c4.12.47,7.32,3.97,7.32,8.21v20.77h27.05v-20.77c0-7.72-2.44-15.05-7.07-21.2l-.45-.6.45-.6c4.62-6.15,7.07-13.48,7.07-21.2v-14.53c0-19.47-15.84-35.32-35.31-35.32ZM452.11,515.36c0,4.56-3.71,8.26-8.26,8.26h-8.26s0-31.05,0-31.05h8.26c4.56,0,8.26,3.71,8.26,8.26v14.53Z"/><path class="cls-1" d="M885.89,631.57v-174.3c0-19.49-15.84-35.33-35.32-35.33h-35.31v273.99h27.05v-29.05h8.26c4.56,0,8.26,3.71,8.26,8.26v20.79h27.05v-20.79c0-7.71-2.44-15.04-7.06-21.19l-.45-.6.45-.6c4.62-6.15,7.06-13.48,7.06-21.19ZM850.58,639.83h-8.26v-190.84h8.26c4.56,0,8.26,3.71,8.26,8.26v174.31c0,4.56-3.71,8.26-8.26,8.26Z"/><path class="cls-1" d="M647.21,421.94h-35.32v157.79h35.32c19.47,0,35.32-15.84,35.32-35.32v-87.15c0-19.47-15.84-35.31-35.32-35.32ZM655.48,544.41c0,4.56-3.71,8.26-8.26,8.26h-8.26v-103.68h8.26c4.56,0,8.26,3.71,8.26,8.26v87.16Z"/><path class="cls-1" d="M537.27,500.84v-35.32h-27.05v35.32c0,19.47,15.84,35.31,35.31,35.31h35.32v-27.05h-35.32c-4.56,0-8.26-3.71-8.26-8.26Z"/><path class="cls-1" d="M248.75,660.63c0,4.55-3.71,8.25-8.26,8.25h-8.26v-280.8c-10.89-9.81-19.97-21.22-27.05-33.96v341.81h35.32c19.46,0,35.31-15.83,35.31-35.3v-246.44c-9.49-3.41-18.58-7.92-27.05-13.42v259.86Z"/><path class="cls-1" d="M333.9,435.47c0-7.46-6.07-13.53-13.53-13.53s-13.53,6.07-13.53,13.53,6.07,13.53,13.53,13.53,13.53-6.07,13.53-13.53Z"/><path class="cls-1" d="M363.96,421.94c-7.46,0-13.53,6.07-13.53,13.53s6.07,13.53,13.53,13.53,13.53-6.07,13.53-13.53-6.07-13.53-13.53-13.53Z"/><path class="cls-1" d="M422.06,202.05c7.46,0,13.53-6.07,13.53-13.53s-6.07-13.53-13.53-13.53-13.53,6.07-13.53,13.53,6.07,13.53,13.53,13.53Z"/><path class="cls-1" d="M218.7,202.05c7.46,0,13.53-6.07,13.53-13.53s-6.07-13.53-13.53-13.53-13.53,6.07-13.53,13.53,6.07,13.53,13.53,13.53Z"/><path class="cls-1" d="M842.31,380.44v-38.88c-16.58,23.1-43.12,36.8-71.63,36.8-48.61,0-88.16-39.55-88.16-88.16s39.55-88.16,88.16-88.16,88.16,39.55,88.16,88.16v115.88c10.07,1.62,19.56,6.27,27.05,13.24v-129.08c0-63.56-51.68-115.24-115.21-115.24-30.17,0-58.7,11.58-80.32,32.62-21.58,20.99-33.95,49.1-34.83,79.14l-.05,1.81-1.5-1.01c-10.61-7.12-22.99-10.88-35.81-10.88-33.27,0-60.8,24.94-64.05,58l-.11,1.11-1.09-.23c-4.76-1.01-9.72-1.03-14.44-.07l-1.2.24v-.95h-.31l-.1-.89c-3.61-32.62-31.11-57.21-63.96-57.21-12.82,0-25.2,3.76-35.81,10.88l-1.5,1.01-.05-1.81c-.88-30.04-13.25-58.15-34.83-79.14-21.62-21.03-50.15-32.62-80.32-32.62-63.53,0-115.21,51.68-115.21,115.21s51.68,115.21,115.21,115.21c33.03,0,64.53-14.22,86.41-39.02l1.75-1.98v84.58h27.05v-107.95c0-20.58,16.74-37.32,37.31-37.32s37.31,16.74,37.31,37.32-16.74,37.31-37.31,37.31c-6.82,0-13.42-1.84-19.22-5.33v29.43c6.25,1.96,12.71,2.95,19.22,2.95,12.8,0,25.16-3.75,35.76-10.85l1.56-1.04v55.47h27.05v-78.89c0-4.56,3.71-8.26,8.26-8.26s8.26,3.71,8.26,8.26v34.34c15.75-3.77,27.05-18.02,27.05-34.34v-29.05c0-20.58,16.74-37.32,37.32-37.32s37.31,16.74,37.31,37.32v65.05c10.07,1.62,19.56,6.27,27.05,13.24v-54.92l1.75,1.98c21.88,24.79,53.38,39.02,86.41,39.02,26.32,0,51.08-8.63,71.63-24.98ZM320.38,378.36c-48.61,0-88.16-39.55-88.16-88.16s39.55-88.16,88.16-88.16,88.16,39.55,88.16,88.16-39.55,88.16-88.16,88.16Z"/></g></svg>