<?xml version="1.0" encoding="UTF-8"?><svg id="Layer_1" xmlns="http://www.w3.org/2000/svg" viewBox="0 0 452.81 468.42"><polygon points="231.61 93.68 231.6 93.68 231.61 93.68 231.61 93.68 231.61 93.68"/><path d="M284.96,85.88v-31.23h-9.11l1.3-7.81,1.3-7.81,1.3-7.81,1.3-7.81.92-5.52c-.37-.77-.77-1.54-1.2-2.28-1.34-2.31-2.99-4.49-4.96-6.47-.05-.05-.11-.1-.16-.15-.42-.41-.84-.81-1.28-1.19-1.77-1.56-3.67-2.89-5.67-3.98C264.05,1.28,258.89,0,253.73,0c0,0,0,0,0,0s0,0,0,0h-31.23v31.23h0v31.23c0,2.63.34,5.25.99,7.81.49,1.89,1.15,3.74,1.99,5.52.37.77.77,1.54,1.2,2.28,1.34,2.31,2.99,4.49,4.96,6.47.05.05.11.1.16.15.42.41.84.81,1.28,1.19,1.77,1.56,3.67,2.89,5.67,3.98l.66-3.98.73-4.37.57-3.44,1.3-7.81,1.3-7.81h23.42l-1.3,7.81-1.3,7.81-.97,5.8-.33,2.01-1.13,6.77-.17,1.04h-15.62c-2.68,0-5.37.35-7.98,1.04-2.93.77-5.76,1.97-8.41,3.61-1.49.92-2.91,1.97-4.26,3.16-.49.43-.97.87-1.43,1.34-1.98,1.98-3.63,4.16-4.96,6.47-1.43,2.47-2.49,5.1-3.19,7.81-.66,2.56-.99,5.18-.99,7.81h0v62.46h7.81,0s-.17,1.04-.17,1.04l-1.13,6.77-.33,2.01-.97,5.8-1.3,7.81-1.3,7.81h-18.21v7.81h16.91l-1.3,7.81h0s-1.3,7.81-1.3,7.81h-22.12v7.81h20.82l-1.3,7.81-.67,4.02-.63,3.79-1.1,6.62-.2,1.19-1.3,7.81c-2.68,0-5.37.35-7.98,1.04-2.93.77-5.76,1.97-8.41,3.61-1.49.92-2.91,1.97-4.26,3.16-.49.43-.97.87-1.44,1.34-1.98,1.98-3.63,4.16-4.96,6.47-1.43,2.47-2.49,5.1-3.19,7.81-.66,2.56-.99,5.18-.99,7.81h0v31.23h0v31.23h-7.81v39.03h9.11l-1.3,7.81-1.3,7.81-1.3,7.81-1.3,7.81-.92,5.52c.37.77.77,1.54,1.2,2.28,1.34,2.31,2.99,4.49,4.96,6.47.05.05.11.1.16.15.42.41.84.81,1.28,1.19,1.77,1.56,3.67,2.89,5.67,3.98,4.65,2.54,9.81,3.83,14.97,3.83,0,0,0,0,0,0s0,0,0,0h31.23v-31.23h0v-31.23c0-2.63-.34-5.25-.99-7.81-.49-1.89-1.15-3.74-1.99-5.52-.37-.77-.77-1.54-1.2-2.28-1.34-2.31-2.99-4.49-4.96-6.47-.05-.05-.11-.1-.16-.15-.42-.41-.84-.81-1.28-1.19-1.77-1.56-3.67-2.89-5.67-3.98l-.66,3.98-.73,4.37-.57,3.44-1.3,7.81-1.3,7.81h-23.42l1.3-7.81,1.3-7.81.97-5.8.33-2.01,1.13-6.77.17-1.04h0s15.61,0,15.61,0c0,0,0,0,0,0s0,0,0,0c2.68,0,5.37-.35,7.98-1.04,2.93-.77,5.76-1.97,8.41-3.61,1.49-.92,2.91-1.97,4.26-3.16.49-.43.97-.87,1.43-1.34,1.98-1.98,3.63-4.16,4.96-6.47,1.43-2.47,2.49-5.1,3.19-7.81.66-2.56.99-5.18.99-7.81h0v-62.46h-7.81l1.3-7.81v-.06s1.3-7.74,1.3-7.74l1.3-7.81,1.3-7.81h18.22v-7.81h-16.92l1.3-7.81,1.3-7.81h22.12v-7.81h-20.82l1.3-7.81,1.3-7.81.57-3.44.73-4.37.66-3.98.64-3.83h0c2.68,0,5.37-.35,7.98-1.04,2.93-.77,5.76-1.97,8.41-3.61,1.49-.92,2.91-1.97,4.26-3.16.49-.43.97-.87,1.44-1.34,1.98-1.98,3.63-4.16,4.96-6.47,1.43-2.47,2.49-5.1,3.19-7.81.66-2.56.99-5.18.99-7.81v-31.23h0v-31.23h7.81v-7.81ZM186.07,452.81l1.3-7.81,1.3-7.81,1.3-7.81,1.3-7.81,1.3-7.81h15.61l-1.3,7.81-1.3,7.81-1.3,7.81-1.3,7.81-1.3,7.81-1.29,7.74c-.44.02-.87.06-1.31.06h0c-4.77,0-9.53-1.47-13.58-4.37l.57-3.44ZM226.4,304.47l-1.3,7.81-1.3,7.81-1.3,7.81h0s-1.3,7.81-1.3,7.81l-1.3,7.81-1.3,7.81-1.3,7.81-.97,5.8c-2.6,1.14-5.35,1.79-8.13,1.94-.44.02-.87.06-1.31.06h0c-4.77,0-9.53-1.47-13.58-4.37l.57-3.44,1.3-7.81,1.3-7.81,1.3-7.81,1.3-7.81,1.3-7.81,1.3-7.81,1.3-7.81,1.3-7.81,1.29-7.74c.44-.02.87-.06,1.31-.06,4.77,0,9.53,1.47,13.58,4.37,1.04.74,2.04,1.56,2.98,2.49.3.3.57.63.86.95,1.07,1.19,1.99,2.45,2.77,3.79l-.67,4.02ZM258.93,109.3l-1.3,7.81-1.3,7.81-1.3,7.81-1.3,7.81-1.3,7.81-1.3,7.81-1.3,7.81-1.3,7.81-1.29,7.74c-.44.02-.87.06-1.31.06-4.77,0-9.53-1.47-13.58-4.37-1.04-.74-2.04-1.56-2.98-2.49-.3-.3-.57-.63-.86-.95-1.07-1.19-1.99-2.45-2.77-3.79l.67-4.02,1.3-7.81,1.3-7.81,1.3-7.81h0s1.3-7.81,1.3-7.81l1.3-7.81,1.3-7.81,1.3-7.81.97-5.8c2.6-1.14,5.35-1.79,8.13-1.94.44-.02.87-.06,1.31-.06h0c4.77,0,9.53,1.47,13.58,4.37l-.57,3.44ZM266.74,15.61l-1.3,7.81-1.3,7.81-1.3,7.81-1.3,7.81-1.3,7.81h-15.61l1.3-7.81,1.3-7.81,1.3-7.81,1.3-7.81,1.3-7.81,1.29-7.74c.44-.02.87-.06,1.31-.06h0c4.77,0,9.53,1.47,13.58,4.37l-.57,3.44Z"/><path d="M357.11,244.29l-5.8-.97-7.81-1.3-7.81-1.3-7.81-1.3-7.81-1.3h0l-7.81-1.3-7.81-1.3-7.81-1.3-4.02-.67c-1.33.78-2.6,1.7-3.79,2.77-.32.28-.64.55-.95.86-.93.93-1.75,1.94-2.49,2.98-2.9,4.05-4.37,8.81-4.37,13.58,0,.44.04.87.06,1.31l7.74,1.29,7.81,1.3,7.81,1.3,7.81,1.3,7.81,1.3,7.81,1.3,7.81,1.3,7.81,1.3,7.81,1.3,3.44.57c2.9-4.05,4.37-8.81,4.37-13.58h0c0-.44-.04-.88-.06-1.31-.16-2.78-.8-5.54-1.94-8.13Z"/><path d="M171.69,213.38l-7.74-1.29-7.81-1.3-7.81-1.3-7.81-1.3-7.81-1.3-7.81-1.3-7.81-1.3-7.81-1.3-7.81-1.3-3.44-.57c-2.9,4.05-4.37,8.81-4.37,13.58h0c0,.44.04.88.06,1.31.16,2.78.8,5.54,1.94,8.13l5.8.97,7.81,1.3,7.81,1.3,7.81,1.3,7.81,1.3h0l7.81,1.3,7.81,1.3,7.81,1.3,4.02.67c1.33-.78,2.6-1.7,3.79-2.77.32-.28.64-.55.95-.86.93-.93,1.75-1.94,2.49-2.98,2.9-4.05,4.37-8.81,4.37-13.58,0-.44-.04-.87-.06-1.31Z"/><polygon points="78.07 197.78 76.06 197.44 70.26 196.48 62.46 195.17 54.65 193.87 54.65 201.68 54.65 217.29 62.46 218.6 70.26 219.9 73.7 220.47 78.07 221.2 82.05 221.86 85.88 222.5 85.88 214.7 85.88 214.69 85.88 214.69 85.88 199.08 85.88 199.08 84.84 198.9 78.07 197.78"/><path d="M31.23,197.78l-7.81-1.3-7.81-1.3-7.81-1.3-3.44-.57C1.47,197.35,0,202.11,0,206.88h0c0,.44.04.88.06,1.31l7.74,1.29,7.81,1.3,7.81,1.3,7.81,1.3,7.81,1.3,7.81,1.3v-15.61l-7.81-1.3-7.81-1.3Z"/><path d="M452.74,260.22l-7.74-1.29-7.81-1.3-7.81-1.3-7.81-1.3-7.81-1.3-7.81-1.3v15.61l7.81,1.3,7.81,1.3,7.81,1.3,7.81,1.3,7.81,1.3,3.44.57c2.9-4.05,4.37-8.81,4.37-13.58h0c0-.44-.04-.88-.06-1.31Z"/><polygon points="382.54 248.52 379.11 247.95 374.74 247.22 370.75 246.56 366.93 245.92 366.93 253.73 366.93 253.73 366.93 253.73 366.93 269.34 366.93 269.34 367.97 269.52 374.74 270.64 376.74 270.98 382.54 271.94 390.35 273.25 398.16 274.55 398.16 266.74 398.16 251.13 390.35 249.82 382.54 248.52"/></svg>