<?xml version="1.0" encoding="UTF-8"?><svg id="Layer_1" xmlns="http://www.w3.org/2000/svg" viewBox="0 0 368.5 85.04"><path d="M177.17,0h-7.09v14.17c0,1.96,1.59,3.54,3.54,3.54s3.54-1.59,3.54-3.54h0c0-3.91,3.17-7.09,7.09-7.09s7.09,3.17,7.09,7.09c0,1.96,1.59,3.54,3.54,3.54s3.54-1.59,3.54-3.54V0h-21.26Z"/><path d="M184.25,10.63c-1.96,0-3.54,1.59-3.54,3.54v14.17h7.09v-14.17c0-1.96-1.59-3.54-3.54-3.54Z"/><path d="M262.2,0h-7.09v28.35h7.09v-14.17c0-3.91,3.17-7.09,7.09-7.09s7.09,3.17,7.09,7.09c0,1.96,1.59,3.54,3.54,3.54s3.54-1.59,3.54-3.54V0h-21.26Z"/><path d="M269.29,10.63c-1.96,0-3.54,1.59-3.54,3.54v14.17h7.09v-14.17c0-1.96-1.59-3.54-3.54-3.54Z"/><circle cx="354.33" cy="14.17" r="14.17"/><path d="M106.3,19.49c0,.98-.79,1.77-1.77,1.77s-1.77-.79-1.77-1.77V0h-17.72v28.35h7.09V8.86c0-.98.79-1.77,1.77-1.77s1.77.79,1.77,1.77h0v19.49h17.72V0h-7.09v19.49Z"/><rect width="28.35" height="28.35"/><path d="M180.71,67.32v14.17c0,1.96,1.59,3.54,3.54,3.54s3.54-1.59,3.54-3.54v-14.17h-7.09Z"/><path d="M265.75,67.32v14.17c0,1.96,1.59,3.54,3.54,3.54s3.54-1.59,3.54-3.54v-14.17h-7.09Z"/><path d="M24.8,77.95s0,0,0,0h-10.63s-7.09,0-7.09,0v-14.17h17.72c1.96,0,3.54-1.59,3.54-3.54s-1.59-3.54-3.54-3.54c0,0,0,0,0,0h-10.63C6.35,56.69,0,63.04,0,70.87s6.35,14.17,14.17,14.17h0s10.63,0,10.63,0c1.96,0,3.54-1.59,3.54-3.54s-1.59-3.54-3.54-3.54Z"/><path d="M24.8,67.32h-14.16v7.09h14.16c1.96,0,3.54-1.59,3.54-3.54s-1.59-3.54-3.54-3.54Z"/><path d="M113.39,60.24h0c0-1.96-1.59-3.54-3.54-3.54s-3.54,1.59-3.54,3.54h0v7.09h-14.17v-7.09h0c0-1.96-1.59-3.54-3.54-3.54s-3.54,1.59-3.54,3.54h0s0,0,0,0c0,4.24,1.87,8.03,4.82,10.63-2.95,2.6-4.82,6.39-4.82,10.63h0c0,1.96,1.59,3.54,3.54,3.54s3.54-1.59,3.54-3.54h0s0,0,0,0v-7.09h14.17v7.09h0c0,1.96,1.59,3.54,3.54,3.54s3.54-1.59,3.54-3.54h0s0,0,0,0c0-4.24-1.87-8.03-4.82-10.63,2.95-2.6,4.82-6.39,4.82-10.63Z"/><path d="M184.25,56.69c-7.83,0-14.17,6.35-14.17,14.17v3.54h7.09v-10.63h14.17v7.09h0v3.54h7.09v-3.54h0c0-7.83-6.35-14.17-14.17-14.17Z"/><path d="M269.29,56.69c-7.83,0-14.17,6.35-14.17,14.17v10.63c0,1.96,1.59,3.54,3.54,3.54s3.54-1.59,3.54-3.54v-10.63h0v-7.09h14.17v7.09h0v3.54h7.09v-3.54c0-7.83-6.35-14.17-14.17-14.17Z"/><path d="M354.33,56.69c-7.83,0-14.17,6.35-14.17,14.17v10.63c0,1.96,1.59,3.54,3.54,3.54s3.54-1.59,3.54-3.54v-17.72h14.17v7.09h0v10.63c0,1.96,1.59,3.54,3.54,3.54s3.54-1.59,3.54-3.54v-10.63c0-7.83-6.35-14.17-14.17-14.17Z"/><rect x="350.79" y="67.32" width="7.09" height="7.09"/></svg>