<?xml version="1.0" encoding="UTF-8"?><svg id="Layer_1" xmlns="http://www.w3.org/2000/svg" viewBox="0 0 381.95 496.37"><path d="M159.34,64.42v-2.29c-16.84,0-30.49-13.65-30.49-30.49,0-.29-.11-.59-.33-.81-.45-.45-1.17-.45-1.62,0-.22.22-.34.52-.34.81,0,18.11,14.68,32.78,32.78,32.78Z"/><path d="M128.84,400.31h-2.29c0,18.11,14.68,32.78,32.78,32.78v-2.29c-16.84,0-30.49-13.65-30.49-30.49Z"/><path d="M349.17,210.48c-13.86,0-25.7,8.6-30.49,20.75v-20.75h-2.29v32.79c0,16.84-13.65,30.49-30.49,30.49s-30.49-13.65-30.49-30.49h0c0-16.85,13.65-30.5,30.49-30.5.29,0,.59-.11.81-.34.45-.45.45-1.17,0-1.62-.22-.22-.52-.34-.81-.34-17.72,0-32.15,14.06-32.75,31.64h-29.38v-31.64h-2.29v31.64h-29.38c-.46-13.36-8.91-24.68-20.72-29.35h20.75v-2.29h-32.78c-.29,0-.59.11-.81.34-.45.45-.45,1.17,0,1.62.22.22.52.34.81.34,16.84,0,30.49,13.65,30.49,30.49s-13.65,30.49-30.49,30.49c-.51,0-1.01-.01-1.52-.04-.17,0-.34-.02-.5-.04-.33-.02-.66-.04-.99-.08-.2-.02-.4-.05-.59-.07-.3-.03-.59-.07-.88-.11-.21-.03-.42-.07-.62-.1-.28-.05-.55-.09-.83-.15-.22-.04-.43-.09-.64-.14-.26-.06-.53-.12-.79-.18-.22-.05-.43-.11-.65-.17-.25-.07-.51-.14-.76-.21-.22-.06-.43-.13-.65-.2-.24-.08-.48-.16-.72-.24-.22-.08-.43-.16-.65-.24-.23-.09-.46-.18-.69-.27-.22-.09-.43-.18-.64-.27-.22-.1-.44-.2-.66-.3-.22-.1-.43-.2-.64-.3-.21-.1-.42-.21-.63-.32-.21-.11-.43-.22-.64-.34-.2-.11-.39-.22-.58-.34-.22-.13-.44-.25-.65-.38-.17-.11-.35-.22-.52-.33-.23-.15-.46-.29-.68-.44-.13-.09-.25-.18-.37-.27-.95-.67-1.86-1.39-2.72-2.15-.05-.05-.11-.09-.16-.14-.26-.23-.51-.47-.75-.71-.09-.08-.18-.17-.26-.25-.24-.23-.46-.47-.69-.71-.09-.1-.19-.19-.28-.29-.22-.24-.44-.49-.65-.73-.09-.1-.18-.21-.27-.31-.21-.25-.42-.5-.62-.76-.08-.11-.17-.22-.25-.32-.2-.26-.4-.53-.59-.8-.08-.11-.15-.21-.23-.32-.19-.28-.38-.56-.57-.84-.07-.1-.13-.21-.2-.31-.19-.29-.37-.59-.54-.89-.06-.1-.11-.2-.17-.29-.18-.31-.35-.63-.52-.94-.04-.08-.09-.17-.13-.25-.17-.34-.34-.68-.5-1.02-.03-.06-.05-.12-.08-.18-.17-.37-.34-.75-.49-1.13,0-.01,0-.02-.01-.03-1.05-2.55-1.76-5.27-2.08-8.12-.13-1.13-.2-2.28-.2-3.44,0-8.42,3.41-16.04,8.93-21.56.45-.45.45-1.17,0-1.62s-1.17-.45-1.62,0c-3.98,3.98-6.94,8.99-8.45,14.58-1.22-4.51-3.38-8.63-6.26-12.15h0s0,0,0,0c.7-1.3.52-2.95-.58-4.05-1.1-1.1-2.75-1.28-4.05-.58-4.26-3.49-9.42-5.92-15.07-6.9-.32-2.86-2.74-5.08-5.68-5.08s-5.36,2.22-5.68,5.08c-10.21,1.79-18.79,8.3-23.42,17.19h0s0,.01,0,.02c-.67,1.3-1.26,2.65-1.76,4.05,0,.03-.02.05-.03.08-.16.45-.31.9-.45,1.36-.02.06-.04.12-.05.18-.13.42-.24.85-.35,1.28-.02.09-.05.18-.07.27-.1.4-.19.8-.27,1.2-.02.12-.05.24-.07.35-.07.38-.14.76-.2,1.14-.02.14-.05.28-.07.42-.05.37-.1.74-.14,1.11-.02.16-.04.31-.05.47-.04.38-.06.75-.08,1.13,0,.15-.02.3-.03.45-.02.52-.04,1.03-.04,1.56,0,0,0,.02,0,.03,0,10.45,4.89,19.74,12.5,25.75.63.5,1.28.99,1.95,1.44,5.23,3.53,11.54,5.6,18.33,5.6h0c.29,0,.59-.11.81-.34.45-.45.45-1.17,0-1.62-.22-.22-.52-.34-.81-.34-6.02,0-11.63-1.75-16.36-4.77-.68-.43-1.34-.88-1.98-1.36-7.38-5.57-12.16-14.41-12.16-24.36,0-.54.02-1.08.05-1.61,0-.15.02-.31.03-.46.03-.39.06-.78.1-1.17.02-.16.03-.31.05-.47.05-.43.11-.85.18-1.27.02-.09.03-.19.04-.28.19-1.08.43-2.15.73-3.19.01-.04.02-.07.03-.11.15-.5.3-.99.47-1.47.01-.03.02-.06.03-.09.37-1.04.78-2.05,1.26-3.03.24-.49.49-.98.75-1.46.03-.05.06-.1.09-.16.22-.4.46-.8.7-1.19,4.45-7.23,11.84-12.46,20.5-14.04.71,2.36,2.89,4.08,5.48,4.08s4.77-1.72,5.48-4.08c5.14.93,9.83,3.15,13.72,6.31-.52,1.24-.27,2.73.74,3.74,1.01,1.01,2.5,1.26,3.74.74,4.26,5.24,6.81,11.92,6.81,19.2,0,8.42-3.41,16.04-8.93,21.56-.45.45-.45,1.17,0,1.62.45.45,1.17.45,1.62,0,3.15-3.15,5.65-6.94,7.31-11.15v20.75h2.29v-20.75s0,0,0,0c1.2,3.03,2.83,5.84,4.83,8.35,0,0,.01.02.02.03.99,1.24,2.06,2.4,3.21,3.48.02.02.05.04.07.06.57.53,1.16,1.05,1.77,1.54.02.02.04.03.06.05.58.47,1.19.92,1.8,1.35.04.03.09.06.13.09.62.43,1.26.84,1.91,1.22.08.05.15.09.23.13.61.35,1.22.69,1.85,1,.06.03.12.07.19.1.66.32,1.34.63,2.02.91.12.05.25.1.37.15.63.25,1.28.48,1.93.69.07.02.14.05.21.07.7.22,1.41.41,2.12.59.16.04.32.07.48.11.68.15,1.36.29,2.06.4.05,0,.11.02.16.03.73.11,1.48.2,2.22.26.18.02.36.03.54.04.76.05,1.52.09,2.29.09,17.72,0,32.15-14.06,32.75-31.64h29.38v45.72l-31.64,15.27v2.29l62.81,30.31-15.36,31.82h2.29l14.92-30.93.9-1.86-63.19-30.49,75.13-36.25c5.28,3.63,11.67,5.76,18.56,5.76,13.86,0,25.7-8.6,30.49-20.75v20.75h2.29v-32.78c0-16.84,13.65-30.49,30.49-30.49s30.49,13.65,30.49,30.49-13.65,30.49-30.49,30.49c-.29,0-.59.11-.81.34-.45.45-.45,1.17,0,1.62.22.22.52.34.81.34h0c18.11,0,32.78-14.68,32.78-32.78s-14.68-32.78-32.78-32.78ZM99.23,212.93c-.51,1.25-1.74,2.12-3.17,2.12s-2.66-.88-3.17-2.12c-.17-.4-.26-.84-.26-1.31,0-.34.07-.67.16-.98.42-1.41,1.72-2.45,3.27-2.45s2.85,1.04,3.27,2.45c.09.31.16.64.16.98,0,.46-.09.91-.26,1.31ZM119.24,221.7c-.45.45-1.17.45-1.62,0h0s0,0,0,0c-.44-.45-.44-1.17,0-1.61.45-.45,1.17-.45,1.61,0,0,0,0,0,0,0,.44.45.44,1.17,0,1.61ZM223.76,289.02v-44.62h29.38c.34,9.91,5.08,18.71,12.33,24.49l-41.71,20.13Z"/><rect x="316.38" y="337.03" width="2.29" height="32.78"/><path d="M159.34,33.93c16.84,0,30.49,13.65,30.49,30.49v16.39h2.29v-16.39c0-18.11-14.68-32.78-32.78-32.78-16.84,0-30.49-13.65-30.49-30.49,0-.29-.11-.59-.33-.81-.45-.45-1.17-.45-1.62,0-.22.22-.34.52-.34.81,0,18.11,14.68,32.78,32.78,32.78Z"/><path d="M223.76,64.42V31.64c0-.29-.11-.59-.34-.81-.45-.45-1.17-.45-1.62,0-.22.22-.34.52-.34.81v65.57h2.29v-32.78Z"/><path d="M255.4,64.42c0-16.84,13.65-30.49,30.49-30.49.29,0,.59-.11.81-.34.45-.45.45-1.17,0-1.62-.22-.22-.52-.34-.81-.34-18.11,0-32.78,14.68-32.78,32.78v16.39h2.29v-16.39Z"/><polygon points="253.11 494.08 189.83 494.08 189.83 496.37 253.11 496.37 255.4 496.37 255.4 494.08 255.4 463.59 253.11 463.59 253.11 494.08"/><rect x="189.83" y="430.8" width="65.57" height="2.29"/><rect x="189.83" y="400.31" width="65.57" height="2.29"/><polygon points="192.12 337.03 189.83 337.03 205.65 369.82 207.94 369.82 192.12 337.03"/><path d="M279.1,62.8c-.52.53-1.02,1.07-1.5,1.62h3.12c11.91-11.91,31.22-11.91,43.12,0,.45.45,1.17.45,1.62,0s.45-1.17,0-1.62c-12.8-12.8-33.56-12.8-46.36,0h0Z"/><path d="M32.83,221.7c7.62,7.62,18.06,10.7,27.96,9.25.29-.84.61-1.67.96-2.48-9.59,1.83-19.88-.97-27.3-8.39-9.31-9.31-22.84-11.84-34.45-7.61v2.45c10.97-4.35,23.95-2.1,32.83,6.78Z"/><path d="M34.45,265c-9.31-9.31-22.84-11.84-34.45-7.61v2.45c10.97-4.35,23.95-2.1,32.83,6.78,10.66,10.66,26.82,12.43,39.33,5.35-.62-.52-1.22-1.06-1.8-1.61-11.53,6.15-26.18,4.37-35.9-5.35Z"/></svg>