<?xml version="1.0" encoding="UTF-8"?><svg id="Layer_1" xmlns="http://www.w3.org/2000/svg" viewBox="0 0 579.36 579.35"><path d="M280.73,43.19h0s26.83,0,26.83,0h12.65l-8.95,8.95-15.27,15.27h0s18.31,18.31,18.31,18.31l3.49,3.49,1.08,1.07c-31.16,27.69-50.8,68.06-50.8,113.02,0,11.93-9.67,21.6-21.6,21.6h0c-11.93,0-21.59,9.67-21.59,21.59s9.67,21.6,21.59,21.6h0c35.78,0,64.79-29,64.79-64.79h0c0-33.04,14.84-62.6,38.22-82.41,11.45-9.7,24.94-17.06,39.75-21.33l-4.24-4.24-36.61-36.61-6.58-6.58-8.95-8.95-10.8-10.8L289.68,0h-61.08l43.19,43.19h8.95Z"/><polygon points="536.17 271.79 536.17 271.79 536.17 276.8 536.17 283.13 536.17 307.57 536.17 320.22 527.22 311.27 511.95 296 484.03 323.92 396.46 411.49 367.11 440.84 354.46 453.49 289.68 518.28 289.68 518.28 280.73 527.22 311.27 527.22 341.81 527.22 354.46 514.57 370.02 499.01 370.02 499.01 385.01 484.03 385.01 484.03 393.95 475.09 475.09 475.09 475.09 431.9 437.26 431.9 484.03 385.76 484.03 484.03 397.65 484.03 354.46 527.21 484.03 527.21 484.03 527.22 527.22 527.22 527.22 357.92 527.22 354.46 527.22 341.81 527.22 341.81 536.17 332.87 552.63 316.4 579.36 289.68 579.36 283.13 579.36 276.8 579.36 228.6 579.36 228.6 536.17 271.79"/><polygon points="307.45 536.05 298.62 536.05 298.62 536.17 280.73 536.17 280.73 536.05 259.25 536.05 268.08 527.22 283.35 511.95 255.43 484.03 95.32 323.92 61.08 289.68 61.08 289.68 52.13 280.73 52.13 298.62 52.13 298.62 52.13 311.27 52.13 341.81 52.13 484.03 52.13 527.22 95.32 527.22 129.57 527.22 129.57 484.03 95.32 484.03 95.32 385 138.51 428.19 138.51 527.22 181.7 527.22 181.7 471.38 194.35 484.03 194.2 484.03 237.39 527.22 237.54 527.22 272.3 561.98 280.73 570.41 289.68 579.35 350.76 579.35 307.57 536.17 307.45 536.05"/><polygon points="52.13 268.08 67.4 283.35 95.32 255.43 95.32 255.43 95.32 194.35 95.32 181.71 107.97 181.71 169.05 181.71 212.24 138.52 151.16 138.52 95.32 138.52 95.32 95.32 194.35 95.32 160.1 129.58 221.18 129.58 255.43 95.32 255.43 95.32 255.43 95.32 255.43 95.32 289.68 61.08 293.22 57.53 298.62 52.13 280.73 52.13 280.73 52.13 268.08 52.13 255.43 52.13 237.54 52.13 52.13 52.13 52.13 95.32 52.13 237.54 37.79 251.89 0 289.68 0 289.68 0 294.75 0 298.62 0 350.76 0 350.76 43.19 307.57 43.19 298.62 43.19 294.75 43.19 271.79 43.19 259.14 52.13 268.08 52.13 268.08"/><path d="M484.03,95.32v43.2h-64.78c-14.66,0-28.18,4.88-39.04,13.09-15.64,11.83-25.74,30.58-25.74,51.7,0,59.6-48.29,107.92-107.88,107.97-.03,0-.06,0-.09,0-11.93,0-21.59,9.67-21.59,21.6s9.67,21.59,21.59,21.59h0c83.49,0,151.16-67.67,151.16-151.16,0-9.26,5.83-17.16,14.02-20.23h0s0,0,0,0l72.36,72.36,34.24,34.25,8.95,8.95v-61.08l-43.19-43.19h0s-12.64-12.64-12.64-12.64h55.83V52.13h-43.19s-129.57,0-129.57,0l43.19,43.19h86.38Z"/></svg>