<?xml version="1.0" encoding="UTF-8"?><svg id="Layer_1" xmlns="http://www.w3.org/2000/svg" viewBox="0 0 398.14 398.15"><path d="M127.41,63.7v15.93c0,17.59,14.26,31.85,31.85,31.85s31.85-14.26,31.85-31.85h0c0-4.4-3.57-7.97-7.97-7.97s-7.97,3.57-7.97,7.97c0,8.79-7.13,15.91-15.91,15.91s-15.91-7.13-15.91-15.91h-.01v-39.71s0-.07,0-.11c0-4.4-3.57-7.97-7.97-7.97s-7.97,3.57-7.97,7.97c0,.04,0,.07,0,.11v23.78Z"/><path d="M55.74,286.66c-30.78,0-55.74,24.96-55.74,55.74s24.96,55.74,55.74,55.74,55.74-24.96,55.74-55.74-24.96-55.74-55.74-55.74ZM55.74,382.22c-21.99,0-39.81-17.83-39.81-39.81s17.83-39.81,39.81-39.81,39.81,17.83,39.81,39.81-17.83,39.81-39.81,39.81Z"/><circle cx="55.74" cy="342.4" r="23.89"/><path d="M238.89,111.48c17.59,0,31.85-14.26,31.85-31.85v-15.93c0-17.59-14.26-31.85-31.85-31.85s-31.85,14.26-31.85,31.85v15.93c0,17.59,14.26,31.85,31.85,31.85ZM222.96,63.7h.01c0-8.79,7.13-15.91,15.91-15.91s15.91,7.13,15.91,15.91h.01v15.93h-.01c0,8.79-7.13,15.91-15.91,15.91s-15.91-7.13-15.91-15.91h-.01v-15.93Z"/><path d="M151.3,286.66c-13.19,0-23.89,10.7-23.89,23.89v47.78c0,4.4,3.57,7.96,7.96,7.96s7.96-3.57,7.96-7.96v-47.78c0-4.4,3.57-7.96,7.96-7.96s7.96,3.57,7.96,7.96v47.78c0,4.4,3.57,7.96,7.96,7.96s7.96-3.57,7.96-7.96v-47.78c0-13.19-10.7-23.89-23.89-23.89Z"/><path d="M294.63,158.58h-15.93c-4.4,0-7.96,3.57-7.96,7.96s3.57,7.96,7.96,7.96h15.93c4.4,0,7.96,3.57,7.96,7.96s-3.57,7.96-7.96,7.96h-23.89v7.96s0,0,0,0,0,0,0,0v64.38s0,0,0,0c0,4.4,3.57,7.96,7.96,7.96s7.96-3.57,7.96-7.96v-56.42h7.96c13.19,0,23.89-10.7,23.89-23.89s-10.7-23.89-23.89-23.89Z"/><circle cx="183.15" cy="199.07" r="7.96"/><path d="M127.41,246.85c0-4.4-3.57-7.96-7.96-7.96s-7.96,3.57-7.96,7.96v15.93c0,4.4,3.57,7.96,7.96,7.96s7.96-3.57,7.96-7.96v-15.93Z"/><path d="M119.44,222.96c4.4,0,7.96-3.57,7.96-7.96v-31.85c0-13.19-10.7-23.89-23.89-23.89s-23.89,10.7-23.89,23.89v47.78c0,4.4,3.57,7.96,7.96,7.96s7.96-3.57,7.96-7.96v-47.78c0-4.4,3.57-7.96,7.96-7.96s7.96,3.57,7.96,7.96v31.85c0,4.4,3.57,7.96,7.96,7.96Z"/><path d="M183.15,159.26h-15.93c-13.19,0-23.89,10.7-23.89,23.89v31.85c0,13.19,10.7,23.89,23.89,23.89h15.93c4.4,0,7.96-3.57,7.96-7.96s-3.57-7.96-7.96-7.96h-15.93c-4.4,0-7.96-3.57-7.96-7.96v-31.85c0-4.4,3.57-7.96,7.96-7.96h0s15.93,0,15.93,0c4.4,0,7.96-3.57,7.96-7.96s-3.57-7.96-7.96-7.96Z"/><path d="M215,159.26c-4.4,0-7.96,3.57-7.96,7.96v15.93c0,13.19,10.7,23.89,23.89,23.89h0c4.4,0,7.96,3.57,7.96,7.96h0v15.93c0,4.4,3.57,7.96,7.96,7.96s7.96-3.57,7.96-7.96v-15.93h0c0-13.19-10.7-23.89-23.89-23.89h0c-4.4,0-7.96-3.57-7.96-7.96v-15.93c0-4.4-3.57-7.96-7.96-7.96Z"/><path d="M246.85,254.81h-95.55c-4.4,0-7.96,3.57-7.96,7.96s3.57,7.96,7.96,7.96h95.55c4.4,0,7.96-3.57,7.96-7.96s-3.57-7.96-7.96-7.96Z"/><path d="M254.81,167.22c0-4.4-3.57-7.96-7.96-7.96s-7.96,3.57-7.96,7.96,3.57,7.96,7.96,7.96,7.96-3.57,7.96-7.96Z"/><circle cx="215" cy="230.92" r="7.96"/><circle cx="294.63" cy="358.33" r="7.96"/><path d="M294.63,318.52h-23.89v-23.89c0-4.4-3.57-7.96-7.96-7.96s-7.96,3.57-7.96,7.96v63.7c0,4.4,3.57,7.96,7.96,7.96s7.96-3.57,7.96-7.96v-23.89h23.89c4.4,0,7.96-3.57,7.96-7.96s-3.57-7.96-7.96-7.96Z"/><circle cx="294.63" cy="294.63" r="7.96"/><path d="M229.56,318.52c-4.4,0-7.96,3.57-7.96,7.96v15.93c0,4.4-3.57,7.96-7.96,7.96h0s-15.93,0-15.93,0c-4.4,0-7.96,3.57-7.96,7.96s3.56,7.96,7.96,7.96h15.93s0,0,0,0c13.19,0,23.89-10.7,23.89-23.89v-15.93c0-4.4-3.57-7.96-7.96-7.96Z"/><path d="M230.92,286.66h-15.93c-13.19,0-23.89,10.7-23.89,23.89v15.93c0,4.4,3.57,7.96,7.96,7.96s7.96-3.57,7.96-7.96v-15.93c0-4.4,3.57-7.96,7.96-7.96h15.93c4.4,0,7.96-3.57,7.96-7.96s-3.57-7.96-7.96-7.96Z"/><circle cx="55.74" cy="55.74" r="23.89"/><circle cx="342.4" cy="55.74" r="23.89"/><path d="M7.96,63.7c4.4,0,7.96-3.57,7.96-7.96,0-21.99,17.83-39.81,39.81-39.81,4.4,0,7.96-3.57,7.96-7.96s-3.57-7.96-7.96-7.96C24.96,0,0,24.96,0,55.74c0,4.4,3.57,7.96,7.96,7.96Z"/><path d="M390.18,47.78c-4.4,0-7.96,3.57-7.96,7.96,0,21.99-17.83,39.81-39.81,39.81s-39.81-17.83-39.81-39.81h0c0-4.4-3.57-7.96-7.96-7.96s-7.96,3.57-7.96,7.96c0,30.78,24.96,55.74,55.74,55.74s55.74-24.96,55.74-55.74c0-4.4-3.57-7.96-7.96-7.96Z"/><path d="M47.78,103.52c0,4.4,3.57,7.96,7.96,7.96,30.78,0,55.74-24.96,55.74-55.74,0-4.4-3.57-7.96-7.96-7.96s-7.96,3.57-7.96,7.96c0,21.99-17.83,39.81-39.81,39.81-4.4,0-7.96,3.57-7.96,7.96Z"/><path d="M310.55,127.41H87.59c-4.4,0-7.96,3.57-7.96,7.96s3.57,7.96,7.96,7.96h222.96c4.4,0,7.96-3.57,7.96-7.96s-3.57-7.96-7.96-7.96Z"/></svg>