<?xml version="1.0" encoding="UTF-8"?><svg xmlns="http://www.w3.org/2000/svg" viewBox="0 0 443.57 255.44"><g id="black"><rect x="190.95" width="12.32" height="12.32"/><rect x="184.79" y="16.32" width="6.16" height="6.16"/><rect x="175.58" y="10.16" width="6.16" height="6.16"/><rect x="246.43" y="56.36" width="6.16" height="6.16"/><rect x="255.67" y="62.52" width="3.08" height="3.08"/><rect x="181.74" y="25.56" width="3.08" height="3.08"/><path d="M251.59,234.71c-3.4,0-6.16,2.76-6.16,6.16s2.76,6.16,6.16,6.16,6.16-2.76,6.16-6.16-2.76-6.16-6.16-6.16Z"/><path d="M175.56,219.9c1.43-.91,1.86-2.82.94-4.25-.91-1.43-2.82-1.86-4.25-.94-1.43.91-1.86,2.82-.94,4.25s2.82,1.86,4.25.94Z"/><path d="M174.18,224.96c-.76,0-1.49.15-2.16.4-.86-2.37-3.12-4.06-5.79-4.06-.45,0-.89.05-1.32.14-.05-.46-.19-.92-.45-1.34-.91-1.43-2.82-1.86-4.25-.94-1.43.91-1.86,2.82-.94,4.25.37.58.9.98,1.5,1.21-.44.85-.69,1.81-.69,2.83,0,3.05,2.21,5.57,5.11,6.07-.38.9-.32,1.96.24,2.85.91,1.43,2.82,1.86,4.25.94.45-.29.78-.67,1.02-1.11.99.68,2.19,1.08,3.48,1.08,3.4,0,6.16-2.76,6.16-6.16s-2.76-6.16-6.16-6.16Z"/><path d="M182.11,211.15c-.85,0-1.54.69-1.54,1.54s.69,1.54,1.54,1.54,1.54-.69,1.54-1.54-.69-1.54-1.54-1.54Z"/><path d="M180.57,215.77c-.85,0-1.54.69-1.54,1.54s.69,1.54,1.54,1.54,1.54-.69,1.54-1.54-.69-1.54-1.54-1.54Z"/><path d="M425.08,142.61c-10.21,0-18.48,8.27-18.48,18.48v-73.93h-34.06c-6.77-7.56-16.6-12.32-27.54-12.32s-20.78,4.76-27.54,12.32h-21.74v-18.48h-6.16v-6.16h-3.08v-6.16h-24.64v12.32h-21.56v-24.64h-6.16v24.64h-6.16v-12.32h-6.16v-3.08h-3.08v3.08h-3.08v12.32h-6.16v-12.32h0s0,0,0,0v-12.32h-6.16v-6.16h-12.32v6.16h-6.16v-12.32h-6.16v12.32h-6.16v12.32h0v12.32h-6.16v-18.48h-12.32v18.48h-6.16v18.48h-21.74c-6.77-7.56-16.6-12.32-27.54-12.32s-20.78,4.76-27.54,12.32H0v73.93c0,20.41,16.55,36.96,36.96,36.96,10.95,0,20.78-4.76,27.54-12.32h58.7v-12.32h2.11c5.08,14.36,18.76,24.64,34.85,24.64,3.8,0,7.47-.59,10.92-1.65,1.32,1.24,2.68,2.44,4.09,3.59,0,.02,0,.03,0,.05,0,1.58,1.2,2.87,2.73,3.05.59,2.79,3.06,4.88,6.02,4.88.1,0,.19,0,.28-.01,2.26,2.7,5.65,4.41,9.44,4.41.93,0,1.84-.11,2.71-.31.83.3,1.67.57,2.51.85-.26.28-.43.65-.43,1.06s.17.79.43,1.07c-2.87.52-5.05,3.03-5.05,6.06,0,2.55,1.55,4.74,3.76,5.67-.42.53-.68,1.18-.68,1.91,0,1.28.79,2.38,1.9,2.84-.22.27-.36.61-.36.98,0,.85.69,1.54,1.54,1.54s1.54-.69,1.54-1.54c0-.38-.14-.72-.36-.98,1.12-.46,1.9-1.56,1.9-2.84,0-.72-.26-1.38-.68-1.91,2.21-.94,3.76-3.12,3.76-5.67,0-3.02-2.18-5.53-5.05-6.06.27-.28.43-.65.43-1.07,0-.09-.01-.18-.03-.26,5.98,1.7,12.27,2.67,18.77,2.8-.02.09-.03.18-.03.27,0,.24.06.46.15.66-6.15.69-10.94,5.9-10.94,12.24,0,4.82,2.77,8.98,6.81,11.01-.41.83-.65,1.75-.65,2.74,0,2.51,1.5,4.66,3.65,5.62-.36.5-.57,1.11-.57,1.78,0,1.16.65,2.16,1.6,2.68-.03.13-.06.26-.06.4,0,.85.69,1.54,1.54,1.54s1.54-.69,1.54-1.54c0-.14-.02-.27-.06-.4.95-.53,1.6-1.52,1.6-2.68,0-.66-.21-1.27-.57-1.78,2.15-.96,3.65-3.12,3.65-5.62,0-.98-.24-1.91-.65-2.74,4.03-2.02,6.81-6.19,6.81-11.01,0-6.34-4.78-11.55-10.93-12.24.1-.2.15-.42.15-.66,0-.09-.01-.19-.03-.27,3.95-.08,7.82-.47,11.6-1.14,1.5,2.34,4.46,3.44,7.2,2.48.12-.04.23-.09.35-.14,3.24,3.09,8.04,4.32,12.56,2.74.55-.19,1.07-.43,1.58-.69.7,1.33,2.27,1.98,3.73,1.48.96-.33,1.64-1.1,1.92-2,1,.17,2.05.1,3.07-.25,3.21-1.12,4.91-4.63,3.79-7.84-.3-.85-.76-1.59-1.35-2.21,1.98-1.58,2.86-4.3,1.98-6.83-.29-.82-.73-1.54-1.28-2.14,1.39-1.13,2.73-2.31,4.03-3.54,3.45,1.07,7.11,1.65,10.92,1.65,10.21,0,18.48-8.27,18.48-18.48,2.16,0,4.23-.39,6.16-1.07v7.23h71.03c6.77,7.56,16.6,12.32,27.54,12.32,20.41,0,36.96-16.55,36.96-36.96,0-10.21-8.27-18.48-18.48-18.48ZM431.24,161.09h0c0,13.61-11.03,24.64-24.64,24.64s-24.64-11.03-24.64-24.64h0v-24.64h-12.32v36.96h0s-12.32,0-12.32,0h0s-24.64,0-24.64,0h0s-12.32,0-12.32,0h0s0,0,0,0v-12.32h0v-12.32h-12.32s-3.32,0-3.32,0c2.1,3.63,3.32,7.83,3.32,12.32h0c0,3.4-2.76,6.16-6.16,6.16s-6.16-2.76-6.16-6.16h0c0-6.81-5.52-12.32-12.32-12.32h0c-6.8,0-12.32,5.52-12.32,12.32s5.52,12.32,12.32,12.32c3.4,0,6.16,2.76,6.16,6.16s-2.76,6.16-6.16,6.16c-13.61,0-24.64-11.03-24.64-24.64h0v-49.29h-12.32c0,4.49-1.21,8.7-3.3,12.32h3.3v36.96h-12.32v-24.64h-12.32s0,0,0,0h0s0,0,0,0h-12.32v24.64h-12.32v-24.64h-12.32v24.64c0,13.61-11.03,24.64-24.64,24.64s-24.64-11.03-24.64-24.64h0s-12.32,0-12.32,0h-12.32v12.32h-36.96v-43.12h-12.32s-12.32,0-12.32,0h0v-12.32h0v-6.16h-24.64v24.64h12.32c13.61,0,24.64,11.03,24.64,24.64s-11.03,24.64-24.64,24.64-24.64-11.03-24.64-24.64c0-3.4,2.76-6.16,6.16-6.16s6.16,2.76,6.16,6.16c0,6.8,5.52,12.32,12.32,12.32s12.32-5.52,12.32-12.32-5.52-12.32-12.32-12.32H12.32v-49.29h49.29v18.48h12.32v-6.16h0c0-13.61,11.03-24.64,24.64-24.64s24.64,11.03,24.64,24.64v36.96h12.32v-49.28s12.32,0,12.32,0v61.61s0,0,0,0c0,6.8,5.52,12.32,12.32,12.32s12.32-5.52,12.32-12.32v-49.29h-18.48v-12.32h30.8v24.64h15.63c-2.1-3.63-3.31-7.83-3.31-12.32,0-13.61,11.03-24.64,24.64-24.64h0c9.12,0,17.08,4.96,21.34,12.32h64.91v36.96h12.32v-24.64h0c0-13.61,11.03-24.64,24.64-24.64s24.64,11.03,24.64,24.64c0,3.4-2.76,6.16-6.16,6.16s-6.16-2.76-6.16-6.16c0-6.8-5.52-12.32-12.32-12.32s-12.32,5.52-12.32,12.32h0v49.29h24.64v-36.96h24.64v-24.64h12.32v61.61c0,6.8,5.52,12.32,12.32,12.32s12.32-5.52,12.32-12.32c0-3.4,2.76-6.16,6.16-6.16s6.16,2.76,6.16,6.16h0Z"/><path d="M271.07,139.77c3.63-2.1,7.83-3.32,12.32-3.32h12.32v-24.64h-24.64v27.97Z"/><path d="M98.57,99.49c-6.8,0-12.32,5.52-12.32,12.32h0v49.29h12.32v-12.32h12.32v-36.96c0-6.8-5.52-12.32-12.32-12.32Z"/><circle cx="221.78" cy="111.81" r="12.32" transform="translate(-15.05 36.97) rotate(-9.22)"/></g><g id="white"><path d="M425.08,154.93c-3.4,0-6.16,2.76-6.16,6.16,0,6.8-5.52,12.32-12.32,12.32s-12.32-5.52-12.32-12.32v-61.61h-12.32v24.64h-24.64v36.96h-24.64v-49.29h0c0-6.8,5.52-12.32,12.32-12.32s12.32,5.52,12.32,12.32c0,3.4,2.76,6.16,6.16,6.16s6.16-2.76,6.16-6.16c0-13.61-11.03-24.64-24.64-24.64s-24.64,11.03-24.64,24.64h0v24.64h-12.32v-36.96h-64.91c-4.26-7.36-12.22-12.32-21.34-12.32h0c-13.61,0-24.64,11.03-24.64,24.64,0,4.49,1.21,8.7,3.31,12.32h-15.63v-24.64h-30.8v12.32h18.48v49.29c0,6.8-5.52,12.32-12.32,12.32s-12.32-5.52-12.32-12.32h0v-61.61h-12.32v49.28s-12.32,0-12.32,0v-36.96c0-13.61-11.03-24.64-24.64-24.64s-24.64,11.03-24.64,24.64h0v6.16h-12.32v-18.48H12.32v49.29h24.64c6.8,0,12.32,5.52,12.32,12.32s-5.52,12.32-12.32,12.32-12.32-5.52-12.32-12.32c0-3.4-2.76-6.16-6.16-6.16s-6.16,2.76-6.16,6.16c0,13.61,11.03,24.64,24.64,24.64s24.64-11.03,24.64-24.64-11.03-24.64-24.64-24.64h-12.32v-24.64h24.64v6.16h0v12.32h0s12.32,0,12.32,0h0s12.32,0,12.32,0v43.12h36.96v-12.32h24.64s0,0,0,0c0,13.61,11.03,24.64,24.64,24.64s24.64-11.03,24.64-24.64v-24.64h12.32v24.64h12.32v-24.64h12.32s0,0,0,0h0s0,0,0,0h12.32v24.64h12.32v-36.96h-3.3c2.1-3.63,3.3-7.83,3.3-12.32h12.32v49.28h0c0,13.61,11.03,24.64,24.64,24.64,3.4,0,6.16-2.76,6.16-6.16s-2.76-6.16-6.16-6.16c-6.8,0-12.32-5.52-12.32-12.32s5.52-12.32,12.32-12.32h0c6.8,0,12.32,5.52,12.32,12.32h0c0,3.4,2.76,6.16,6.16,6.16s6.16-2.76,6.16-6.16h0c0-4.49-1.22-8.69-3.32-12.32h3.32s12.32,0,12.32,0v12.32h0v12.32h0s12.32,0,12.32,0h0s24.64,0,24.64,0h0s12.32,0,12.32,0h0v-36.96h12.32v24.64h0c0,13.61,11.03,24.64,24.64,24.64s24.64-11.03,24.64-24.64h0c0-3.4-2.76-6.16-6.16-6.16ZM110.89,148.77h-12.32v12.32h-12.32v-49.29h0c0-6.8,5.52-12.32,12.32-12.32s12.32,5.52,12.32,12.32v36.96ZM221.78,124.13c-6.8,0-12.32-5.52-12.32-12.32s5.52-12.32,12.32-12.32,12.32,5.52,12.32,12.32-5.52,12.32-12.32,12.32ZM295.71,136.45h-12.32c-4.49,0-8.69,1.22-12.32,3.32v-27.97h24.64v24.64Z" fill="#fff"/></g></svg>