<?xml version="1.0" encoding="UTF-8"?><svg id="Layer_1" xmlns="http://www.w3.org/2000/svg" viewBox="0 0 430.52 134.29"><path d="M114.54,50.36L47.4,0l16.79,25.18-16.79,41.97,67.15-16.79ZM113.4,50.13l-63.94,15.99,48.3-24.15L54.9,6.25l58.5,43.88ZM64.65,25.37l.1-.24-.15-.22L50.61,3.93l29.65,29.65-31.5,31.5,15.88-39.7ZM80.97,33.57L51.3,3.9l45.55,37.96-48.33,24.17,32.46-32.45Z"/><path d="M265.62,67.15l8.39-16.79h0s8.39-16.79,8.39-16.79l-8.39,33.57,41.97-16.79-8.39-16.79-8.39-16.79h0s-8.39-16.79-8.39-16.79l-3.81,15.26L248.83,0l16.79,67.15ZM265.78,65.71l-15.91-63.65,23.87,47.74-7.96,15.91ZM282.27,32.73L250.91,1.37l35.95,14.38-3.9,15.59-.7,1.39ZM284,29.27l3.33-13.34,2.78,1.11-6.11,12.23ZM282.03,33.2l-8.02,16.04L249.95,1.12l32.08,32.08ZM276.09,65.78l31.36-31.36,4.56,9.12,3.28,6.56-22.59,9.04-16.61,6.64ZM307.21,33.95l-32.08,32.08,24.06-48.12,8.02,16.04ZM290.96,1.43l7.96,15.91-23.87,47.74,8.39-33.57,7.36-14.73-3.35-1.34,3.5-14.02Z"/><path d="M181.69,58.75l33.57,8.39-8.39-20.98,8.39-12.59-10.33,7.75-6.46-16.14L215.26,0l-67.15,50.36,33.57,8.39h0ZM198.01,25.37l6.51,16.27-8.04,6.03-14.09-14.09,29.65-29.65-13.98,20.98-.15.22.1.24ZM206.4,46.35l7.49,18.72-14.71-14.71,6.3-6.3.82,2.05h0s.1.24.1.24ZM204.98,42.79l.3.76-6.46,6.46-1.14-1.14,7.29-6.08ZM197.33,48.51l-.5-.5,7.87-5.9.08.19-7.45,6.21ZM198.47,50.36l15.67,15.67-23.15-11.58,6.31-5.26,1.17,1.17ZM205.87,43.67l6.17-6.17-5.4,8.1-.77-1.93ZM205.67,43.17l-.28-.71,5.97-4.98-5.69,5.69ZM181.69,33.57l14.39,14.39-7.23,5.42-23.04-11.52L211.36,3.9l-29.67,29.67ZM196.43,48.32l.52.51-6.45,5.37-1.15-.58,7.08-5.31ZM213.2,66.12l-30.37-7.59,6.07-4.56,24.3,12.15ZM207.76,39.82l-2.57,2.14-.07-.16,2.64-1.98ZM149.26,50.13L207.76,6.25l-42.86,35.72,23.5,11.75-6.2,4.65-32.95-8.24Z"/><path d="M240.44,50.36l25.18,16.79L215.26,0l16.79,33.57h0l8.39,16.79ZM226.03,20.42l35.69,42.82-28.55-28.55-7.14-14.27ZM233.87,36.11l27.82,27.82-20.87-13.91-6.96-13.91ZM259.37,59.65l-34.32-41.18-6.86-13.73,41.18,54.91Z"/><path d="M114.54,41.97l33.57,25.18-4.2-6.3,4.2-10.49-7.46,1.87,7.46-18.65-14.92,3.73L148.12,0l-67.15,16.79,33.57,25.18h0ZM115.68,42.2l1.92-.48,5.33,4.45h0l9.68,8.07-.67.17-13.53-10.14-2.75-2.06ZM130.88,42.19l-4.67,2.34-3.97-3.97,10.13-2.53-1.5,3.75-.1.24.11.17ZM132.47,54.79l.63-.16,2.43,2.02h0l5.09,4.24-1.6-1.2-6.54-4.91ZM143.36,60.91h0l.02.04,1.52,2.28-4.47-4.47.89-.89,2.03,3.05ZM140.08,58.4l-2.31-2.31,1.78-.89,1.49,2.23-.96.96ZM139.27,54.78l-1.88.94-1.73-1.73,2.64-.66.97,1.45ZM144.21,63.24l-7.78-6.48.86-.43,6.91,6.91ZM138.01,52.89l-2.76.69-3.22-3.22,2.57-2.57,3.4,5.1ZM136.92,55.96l-.91.46-2.32-1.93,1.4-.35,1.83,1.83ZM138.82,53.2l1.01-.25-.44,1.1-.57-.85ZM138.52,52.76l-3.55-5.33,11.78-11.78-6.69,16.73-1.53.38ZM134.33,47.36l-2.64,2.64-5.1-5.1,4.58-2.29,3.17,4.75ZM131.33,50.36h0s3.36,3.36,3.36,3.36l-1.47.37-9.38-7.81,2.26-1.13,5.22,5.22ZM143.58,60.35l-1.9-2.85,5.06-5.06-3.16,7.91ZM141.4,57.07l-1.4-2.1,7-3.5-5.6,5.6ZM134.69,47l-3.08-4.62,15.39-7.69-12.31,12.31ZM132.6,37.45l-10.77,2.69-6.57-6.57,31.5-31.5-14.15,35.38ZM114.54,33.57l6.71,6.71-3.53.88-19.06-15.89L147,1.12l-32.45,32.45ZM121.67,40.7l4.06,4.06-2.31,1.15-5.22-4.35,3.47-.87ZM146.05,51.39l-6.33,3.17.7-1.76,5.63-1.41ZM146.05,34.6l-14.73,7.36h0s1.64-4.09,1.64-4.09l13.09-3.27ZM82.11,17.02L146.05,1.03l-48.3,24.15,19.37,16.14-1.96.49-33.06-24.79Z"/><path d="M315.98,50.36l67.15,16.79-14.92-37.3,14.92,3.73-7.46-18.65,7.46,1.87-4.2-10.49L383.13,0l-16.79,12.59h0s-50.36,37.77-50.36,37.77ZM317.12,50.13l33.06-24.79,1.96.49-19.37,16.14,48.3,24.15-63.94-15.99ZM365.87,25.37l1.5,3.75-10.13-2.53,3.97-3.97,4.67,2.34-.11.17.1.24ZM363.32,17.15l4.91-4.09,1.47.37-3.36,3.36-5.22,5.22-2.26-1.13,4.47-3.72ZM372.78,11.05l2.31-2.31.96.96-1.49,2.23-1.78-.89ZM374.28,12.36l-.11.17h0s-.86,1.29-.86,1.29l-2.64-.66,1.73-1.73,1.88.94ZM375.44,8.39l4.47-4.47-1.14,1.71-.3.46-.1.14h0s-.23.35-.23.35l-1.8,2.7-.89-.89ZM374.73,8.39l-2.42,2.42-.86-.43,7.78-6.48-4.49,4.49h0ZM371.93,11.19l-1.83,1.83-1.4-.35,2.32-1.93.91.46ZM370.26,13.57l2.76.69-3.4,5.1-2.57-2.57,3.22-3.22ZM366.69,17.14l2.64,2.64-3.17,4.75-4.58-2.29,5.1-5.1ZM374.4,13.1l.44,1.1-1.01-.25.57-.85ZM370.54,10.49l-2.43,2.02-.63-.16,8.14-6.11-5.09,4.24ZM367.63,12.91l-9.68,8.07-5.33,4.45-1.92-.48,16.27-12.2.67.17ZM358.43,21.23l2.31,1.15-4.06,4.06-3.47-.87,5.22-4.35ZM356.27,26.86l-6.71,6.71,32.46,32.45-48.33-24.17,19.06-15.89,3.53.88ZM350.26,33.57l6.57-6.57,10.77,2.69,14.15,35.38-31.5-31.5ZM369.7,20.14l12.31,12.31-15.39-7.69,3.08-4.62ZM369.98,19.72l3.55-5.33,1.53.38,6.69,16.73-11.78-11.78ZM376.41,10.07l5.6,5.6-7-3.5,1.4-2.1ZM376.69,9.65l1.9-2.85,3.16,7.91-5.06-5.06ZM367.98,29.27l-1.64-4.09h0s14.73,7.36,14.73,7.36l-13.09-3.27ZM375.44,14.35l-.7-1.76h0s6.33,3.17,6.33,3.17l-5.63-1.41Z"/><path d="M67.15,83.93L0,67.15l16.79,41.97L0,134.29l67.15-50.36ZM66.01,84.16L7.5,128.04l42.86-35.72L2.06,68.18l63.94,15.99ZM17.25,108.93L1.37,69.22l31.5,31.5-29.65,29.65,13.98-20.98.15-.22-.1-.24ZM33.57,100.72L1.12,68.26l48.33,24.17L3.9,130.39l29.67-29.67Z"/><path d="M235.01,100.72l-16.79-33.57-16.79,67.15,38.15-15.26,3.81,15.26,8.39-16.79,8.39-16.79,8.39-16.79-41.97-16.79,8.39,33.57ZM235.57,102.96l3.9,15.58-35.95,14.38,31.36-31.36.7,1.39ZM234.64,101.09l-32.08,32.08,24.06-48.12,8.02,16.04ZM239.93,118.35l-3.33-13.34,6.11,12.22-2.78,1.11ZM218.38,68.58l7.96,15.91-23.87,47.74,15.91-63.65ZM243.56,132.86l-3.5-14.02,3.35-1.34-7.36-14.73-8.39-33.57,23.87,47.74-7.96,15.91ZM251.8,116.39l-24.06-48.12,32.08,32.08-8.02,16.04ZM260.05,99.88l-31.36-31.36,39.2,15.68-7.84,15.68Z"/><path d="M193.04,83.93l-16.79,33.57h0s-8.39,16.79-8.39,16.79l50.36-67.15-25.18,16.79ZM185.77,99.6l28.55-28.55-35.69,42.82,7.14-14.27ZM214.3,70.36l-27.82,27.82,6.96-13.91,20.87-13.91ZM170.79,129.56l6.86-13.73,34.32-41.18-41.18,54.91Z"/><path d="M297.96,117.51l-8.39-16.79h0s-8.39-16.79-8.39-16.79l-25.18-16.79,50.36,67.15-8.39-16.79h0ZM295.59,113.88l-35.69-42.82,28.55,28.55,7.14,14.28ZM287.74,98.19l-27.82-27.82,20.87,13.91,6.96,13.91ZM303.43,129.56l-41.18-54.91,34.32,41.18,6.86,13.73Z"/><path d="M100.72,67.15l-33.57,25.18h0l-33.57,25.18,67.15,16.79-14.92-37.3,14.92,3.73-7.46-18.65,7.46,1.87-4.2-10.49,4.2-6.29ZM83.47,92.51l1.5,3.75-10.13-2.53,3.97-3.97,4.67,2.34-.11.17.1.24ZM92.68,75.89l.96.96-1.49,2.23-1.78-.89,2.31-2.31ZM93.93,76.43l-.89-.89,4.47-4.47-3.57,5.36ZM89.9,77.96l-.86-.43,7.78-6.48-6.91,6.91ZM90,78.57l1.88.94-.11.17h0s-.86,1.29-.86,1.29l-2.64-.66,1.73-1.73ZM89.53,78.34l-1.83,1.83-1.4-.35,2.32-1.93.91.46ZM87.86,80.72l2.76.69-3.4,5.1-2.57-2.57,3.22-3.22ZM88.13,77.64l-2.43,2.02-.63-.16,8.15-6.11-5.09,4.24h0ZM85.82,80.21l1.46.37-8.58,8.58-2.26-1.13,9.38-7.82ZM84.29,84.29l2.64,2.64-3.17,4.75-4.58-2.29,5.11-5.11ZM91.99,80.24l.44,1.1-1.01-.25.57-.85ZM96.19,73.95l3.16,7.91-5.06-5.06,1.9-2.85ZM84.56,79.89l.67.17-9.68,8.07-5.33,4.45-1.92-.48,16.27-12.2ZM76.03,88.37l2.31,1.15-4.06,4.06-3.47-.87,5.22-4.35ZM73.86,94l-6.71,6.71,32.45,32.45-48.33-24.17,19.06-15.89,3.53.88ZM74.43,94.15l10.77,2.69,14.15,35.38-31.5-31.5,6.57-6.57ZM87.29,87.29l12.31,12.31-15.39-7.69,3.08-4.62ZM87.57,86.87l3.55-5.33,1.53.38,6.69,16.73-11.78-11.78ZM94,77.22l5.6,5.6-7-3.5,1.4-2.1ZM34.71,117.28l33.06-24.79,1.96.49-19.37,16.14,48.3,24.15-63.94-15.99ZM85.57,96.42l-1.64-4.09,14.72,7.36-13.09-3.27ZM93.03,81.49l-.7-1.76,6.33,3.17-5.63-1.41Z"/><path d="M415.6,104.45l14.92-37.3-67.1,16.77-6.71-16.77h0s0,0,0,0h0s-50.36,25.18-50.36,25.18l26.51,6.63-26.5,35.34,25.18-16.79,8.39-16.79,33.57,8.39-10.05-25.13,33.5,25.13h0l33.57,25.18-4.2-6.29,4.2-10.49-7.46,1.87,7.46-18.65-14.92,3.73ZM340.3,75.91l5.62,5.62-7.22,9.62-14.45-7.22,16.04-8.02ZM343.06,93.33l-1.36-.68,4.24-5.09-2.89,5.77ZM346.22,81.13l-5.45-5.45,15.27-7.64-9.82,13.09ZM353.79,71.88l-5.6,11.21-1.6-1.6,7.2-9.61ZM346.28,81.89l1.67,1.67-1.02,2.05-5.68,6.82-2.08-1.04,7.12-9.49ZM340.91,92.82l-5.26,6.32-1.94-.49,5.14-6.86,2.06,1.03ZM341.37,93.05l1.46.73-3.18,6.36-3.47-.87,5.18-6.22ZM339.43,100.6l-.62,1.24-28.55,28.55,25.57-30.69,3.6.9ZM348.32,83.93l24.06,24.06-28.87-14.44,4.81-9.62ZM372.13,107.04l-23.57-23.58,7.79-15.57.11-.06,15.68,39.2ZM307.79,92.17l15.91-7.96,14.7,7.35-5.22,6.96-25.4-6.35ZM333.38,99.08l1.91.48-22.69,27.23,20.78-27.71ZM310.28,131.07l27.82-27.82-6.96,13.91-20.87,13.91ZM340.15,100.26l3.13-6.26,28.15,14.08-31.28-7.82ZM428.46,101.75l-14.73,7.36h0l1.64-4.09,13.09-3.27ZM413.28,109.34l-4.67,2.34-3.97-3.97,10.13-2.53-1.5,3.75-.1.24.11.17ZM424.09,124.64l5.06-5.06-3.16,7.91-1.9-2.85ZM427.3,130.37l-4.47-4.47.89-.89,3.57,5.36ZM421.96,122.35l1.49,2.23-.96.96-2.31-2.31,1.78-.89ZM426.62,130.39l-7.78-6.48.86-.43,6.91,6.91ZM421.68,121.93l-1.88.94-1.73-1.73,2.64-.66.86,1.29h0s.11.17.11.17ZM417.66,120.72l-3.22-3.22,2.57-2.57,3.4,5.1-2.76.69ZM419.33,123.1l-.91.46-2.32-1.93,1.4-.35,1.83,1.83ZM416.73,114.51l-2.64,2.64-5.1-5.1,4.58-2.29,3.17,4.75ZM417.09,120.86l-1.46.37-9.38-7.81,2.26-1.13,8.58,8.58ZM423.02,128.04l-8.15-6.11.63-.16,7.52,6.27ZM421.22,120.35l1.01-.25-.44,1.1-.57-.85ZM415,104.6l-10.77,2.69-6.57-6.57,31.5-31.5-14.15,35.38ZM396.95,100.72l6.71,6.71-3.53.88-19.06-15.89,48.33-24.17-32.45,32.45ZM404.08,107.85l4.06,4.06-2.31,1.15-5.22-4.35,3.47-.87ZM415.03,121.38l-.67.17-16.27-12.2,1.92-.48,15.02,12.52ZM423.81,124.22l-1.4-2.1,7-3.5-5.6,5.6ZM422.46,119.52l-1.53.38-3.55-5.33,11.78-11.78-6.69,16.73ZM417.09,114.15l-3.08-4.62,15.39-7.69-12.31,12.31ZM364.52,84.16l63.94-15.99-48.3,24.15,19.37,16.14-1.96.49-33.06-24.79ZM428.46,118.54l-6.33,3.17h0s.7-1.76.7-1.76l5.63-1.41Z"/><path d="M157.53,92.97l10.33,7.75-8.39-12.59,8.39-20.98-67.15,16.79,67.15,50.36-16.79-25.18,6.46-16.14ZM150.66,109.39l13.98,20.98-29.65-29.65,14.09-14.09,8.04,6.03-6.51,16.27-.1.24.15.22ZM166.75,68.26l-15.67,15.67-1.17,1.17-6.31-5.26,23.15-11.58ZM159.25,88.69l5.4,8.1-6.17-6.17.77-1.93ZM166.5,69.22l-8.41,21.01-6.3-6.3,14.71-14.71ZM151.43,84.29l6.46,6.46-.3.76-7.29-6.08,1.14-1.14ZM157.39,91.99l-.08.19-7.87-5.9.5-.5,7.45,6.21ZM158.27,91.13l5.69,5.69-5.97-4.98.28-.71ZM142.69,79.74l-1.18.59-6.07-4.56,30.37-7.59-23.12,11.56ZM143.1,80.09l6.45,5.37-.52.51-7.08-5.31,1.15-.58ZM148.68,86.33l-14.39,14.39,29.67,29.67-45.55-37.96,23.04-11.52,7.23,5.42ZM157.73,92.49l.07-.16,2.57,2.14-2.64-1.98ZM101.86,84.16l32.95-8.24,6.2,4.65-23.5,11.75,42.86,35.72-58.5-43.88Z"/></svg>