<?xml version="1.0" encoding="UTF-8"?><svg id="Layer_1" xmlns="http://www.w3.org/2000/svg" viewBox="0 0 1080 1080"><path d="M286.68,825.36h4.29l18.81,44.7h-4.67l-4.86-11.87h-23.67l-5.05,11.87h-4.36l19.51-44.7ZM288.64,829.91l-10.42,24.49h20.52l-10.1-24.49Z"/><path d="M338.07,825.36h4.17v40.91h20.83v3.79h-25v-44.7Z"/><path d="M391.49,825.36h4.17v40.91h20.83v3.79h-25v-44.7Z"/><path d="M446.1,861.79c1.09,1.89,2.51,3.3,4.26,4.23,1.75.93,3.74,1.39,5.97,1.39,1.39,0,2.69-.21,3.91-.63,1.22-.42,2.28-1.01,3.19-1.77.9-.76,1.62-1.67,2.15-2.75.53-1.07.79-2.28.79-3.63,0-1.56-.33-2.84-.98-3.85-.65-1.01-1.53-1.84-2.62-2.49-1.1-.65-2.33-1.21-3.69-1.67-1.37-.46-2.78-.93-4.23-1.39-1.45-.46-2.86-.99-4.23-1.58-1.37-.59-2.6-1.36-3.69-2.3-1.1-.95-1.97-2.14-2.62-3.57-.65-1.43-.98-3.2-.98-5.3,0-1.98.39-3.73,1.17-5.27.78-1.54,1.83-2.82,3.16-3.85,1.32-1.03,2.85-1.81,4.58-2.34,1.72-.53,3.54-.79,5.43-.79,2.44,0,4.7.43,6.79,1.29,2.08.86,3.88,2.3,5.4,4.32l-3.6,2.59c-1.05-1.47-2.28-2.58-3.69-3.31-1.41-.74-3.08-1.11-5.02-1.11-1.35,0-2.63.18-3.85.54-1.22.36-2.28.88-3.19,1.58-.91.69-1.63,1.57-2.18,2.62-.55,1.05-.82,2.29-.82,3.72,0,2.23.57,3.95,1.71,5.15,1.14,1.2,2.56,2.15,4.26,2.84,1.71.69,3.56,1.3,5.56,1.83,2,.53,3.85,1.23,5.56,2.12,1.71.88,3.12,2.12,4.26,3.69,1.14,1.58,1.71,3.76,1.71,6.53,0,2.02-.38,3.81-1.14,5.37-.76,1.56-1.78,2.87-3.06,3.94-1.29,1.07-2.77,1.88-4.45,2.43-1.68.55-3.43.82-5.24.82-2.95,0-5.66-.52-8.14-1.55-2.48-1.03-4.61-2.77-6.38-5.21l3.98-2.65Z"/><path d="M501.85,825.36h27.34v3.79h-23.17v15.91h21.72v3.79h-21.72v17.42h24.18v3.79h-28.35v-44.7Z"/><path d="M561.14,825.36h11.74c.59,0,1.39.02,2.4.06,1.01.04,2.1.17,3.28.38,1.18.21,2.38.55,3.6,1.01,1.22.46,2.31,1.14,3.28,2.02.97.88,1.77,2,2.4,3.35.63,1.35.95,2.99.95,4.92,0,2.15-.37,3.91-1.11,5.3-.74,1.39-1.66,2.52-2.78,3.38-1.12.86-2.35,1.51-3.69,1.93-1.35.42-2.63.72-3.85.88l13.01,21.46h-4.74l-12.56-21.21h-7.76v21.21h-4.17v-44.7ZM565.3,845.06h8.84c2.19,0,3.97-.27,5.33-.82,1.37-.55,2.43-1.22,3.19-2.02.76-.8,1.27-1.66,1.55-2.59.27-.92.41-1.77.41-2.53s-.14-1.6-.41-2.53c-.27-.92-.79-1.79-1.55-2.59-.76-.8-1.82-1.47-3.19-2.02-1.37-.55-3.15-.82-5.33-.82h-8.84v15.91Z"/><path d="M614.49,825.36h4.48l14.39,39.2,14.52-39.2h4.42l-16.98,44.7h-4.17l-16.67-44.7Z"/><path d="M680.09,825.36h4.17v44.7h-4.17v-44.7Z"/><path d="M755.15,863.05c-2.15,2.9-4.63,4.99-7.45,6.25-2.82,1.26-5.87,1.89-9.15,1.89s-6.53-.58-9.38-1.74c-2.84-1.16-5.27-2.78-7.29-4.86-2.02-2.08-3.6-4.57-4.74-7.45-1.14-2.88-1.71-6.03-1.71-9.44s.57-6.54,1.71-9.41c1.14-2.86,2.71-5.33,4.74-7.42,2.02-2.08,4.45-3.71,7.29-4.89,2.84-1.18,5.97-1.77,9.38-1.77,3.03,0,5.86.54,8.49,1.61,2.63,1.07,4.93,2.87,6.91,5.4l-3.41,2.84c-1.39-2.1-3.17-3.64-5.33-4.61-2.17-.97-4.39-1.45-6.66-1.45-2.9,0-5.52.5-7.86,1.52-2.34,1.01-4.32,2.4-5.97,4.17-1.64,1.77-2.9,3.85-3.79,6.25-.88,2.4-1.32,4.99-1.32,7.76s.44,5.37,1.32,7.76c.88,2.4,2.15,4.48,3.79,6.25,1.64,1.77,3.63,3.16,5.97,4.17,2.34,1.01,4.96,1.52,7.86,1.52,1.14,0,2.31-.14,3.53-.41,1.22-.27,2.41-.69,3.57-1.26,1.16-.57,2.26-1.28,3.31-2.15,1.05-.86,1.98-1.9,2.78-3.12l3.41,2.59Z"/><path d="M784.64,825.36h27.34v3.79h-23.17v15.91h21.72v3.79h-21.72v17.42h24.18v3.79h-28.35v-44.7Z"/><path d="M812.99,637.09v-233.92h-249.52l-77.97-233.92h-93.57l-124.76,374.27h93.57l15.59-46.78h124.76l46.78,140.35h93.57l-46.78-140.35h124.76v140.35h0c0,25.84-20.95,46.78-46.78,46.78h0s-15.59,0-15.59,0h0s-93.57,0-93.57,0l31.19,93.57h0s77.97,0,77.97,0h0s0,0,0,0c5.18,0,10.27-.32,15.31-.87,70.31-7.63,125.05-67.14,125.05-139.48h0ZM407.52,403.17l31.19-93.57,31.19,93.57h-62.38Z"/></svg>