<?xml version="1.0" encoding="UTF-8"?><svg id="Layer_1" xmlns="http://www.w3.org/2000/svg" viewBox="0 0 1080 647"><path d="M443.59,171.49c-31.61,0-57.23,25.62-57.23,57.23h57.23v-57.23Z"/><path d="M642.99,358.13c-1.53-30.24-26.53-54.28-57.15-54.28h-57.23c31.61,0,57.23-25.62,57.23-57.23h-57.23c-31.61,0-57.23,25.62-57.23,57.23h0c0,31.61,25.62,57.23,57.23,57.23h57.23c-31.61,0-57.23,25.62-57.23,57.23h57.23c31.61,0,57.23-25.62,57.23-57.23,0-.99-.02-1.97-.07-2.95Z"/><path d="M386.36,246.62v191.38h0c0,31.61,25.62,57.23,57.23,57.23v-248.61h-57.23Z"/><path d="M254.23,378.78c31.59-.01,57.2-25.63,57.2-57.23h-57.2v-17.7h57.21c31.6,0,57.23-25.62,57.23-57.23h-114.43c-31.59,0-57.2,25.59-57.23,57.17h0v57.29h0c0,31.6,25.62,57.23,57.23,57.23"/><path d="M699.46,254.3c-8.42-4.87-18.19-7.67-28.61-7.67v57.17s0,.04,0,.05v114.46c31.61,0,57.23-25.62,57.23-57.23v-57.23h0v-.05c-.02-21.16-11.53-39.61-28.62-49.5Z"/><path d="M866.24,414.29l-30.33-30.34-3.19-3.19-13.89-13.89-2.57-2.57-30.96-30.95h0s30.74-30.74,30.74-30.74l16.67-16.67h0s33.52-33.52,33.52-33.52c22.35-22.35,22.35-58.58,0-80.94l-40.46,40.47-30.88,30.87-16.53,16.53h0l-33.52,33.52h0c-22.17,22.17-22.34,57.98-.53,80.37.18.18.35.38.53.56l30.95,30.95,2.57,2.57,17.08,17.08h0l30.33,30.34,40.47,40.47c22.35-22.35,22.35-58.59,0-80.94Z"/><path d="M467.21,227.87v-55.53h1.73v55.53h-1.73Z"/><path d="M521.05,214.53c0,2.35-.46,4.46-1.37,6.31-.92,1.86-2.13,3.42-3.65,4.71-1.52,1.28-3.31,2.25-5.38,2.9-2.07.66-4.22.98-6.47.98-3.45,0-6.6-.62-9.45-1.84s-5.22-2.89-7.1-4.98l1.34-1.18c1.99,2.15,4.3,3.75,6.94,4.83,2.64,1.07,5.37,1.61,8.19,1.61,2.04,0,3.97-.3,5.8-.9,1.83-.6,3.45-1.47,4.87-2.59,1.41-1.12,2.52-2.51,3.33-4.16.81-1.65,1.22-3.54,1.22-5.69s-.44-3.95-1.33-5.41c-.89-1.46-2.04-2.72-3.45-3.76-1.41-1.05-3.02-1.93-4.82-2.63-1.81-.71-3.62-1.35-5.45-1.92-2.3-.73-4.41-1.5-6.31-2.31-1.91-.81-3.56-1.8-4.94-2.98-1.39-1.18-2.46-2.59-3.22-4.24-.75-1.64-1.13-3.64-1.13-6s.45-4.35,1.37-6.16c.91-1.81,2.16-3.32,3.72-4.55,1.57-1.23,3.39-2.17,5.46-2.82,2.07-.65,4.25-.98,6.55-.98,2.82,0,5.5.53,8.04,1.61,2.53,1.07,4.61,2.6,6.23,4.59l-1.33,1.17c-1.46-1.83-3.33-3.25-5.61-4.27-2.28-1.02-4.75-1.53-7.41-1.53-1.89,0-3.73.26-5.53.79-1.8.52-3.44,1.32-4.9,2.39-1.47,1.07-2.64,2.42-3.53,4.04-.89,1.62-1.33,3.53-1.33,5.72s.39,3.96,1.17,5.45c.78,1.49,1.83,2.76,3.13,3.81,1.31,1.04,2.79,1.91,4.43,2.58,1.65.68,3.33,1.31,5.06,1.89,2.36.78,4.55,1.58,6.59,2.39,2.04.81,3.83,1.79,5.38,2.94,1.54,1.15,2.74,2.55,3.61,4.2.87,1.65,1.29,3.65,1.29,6Z"/><path d="M578.01,227.95c-3.35.99-7.23,1.49-11.62,1.49s-8.41-.76-12.02-2.28c-3.61-1.51-6.7-3.59-9.27-6.23-2.57-2.64-4.54-5.75-5.93-9.33-1.39-3.58-2.08-7.46-2.08-11.65s.7-8.06,2.12-11.65c1.41-3.58,3.38-6.66,5.92-9.25,2.54-2.59,5.58-4.62,9.14-6.08,3.55-1.46,7.48-2.2,11.77-2.2,3.76,0,7.21.57,10.35,1.72,3.14,1.15,5.91,2.72,8.31,4.71l-1.26,1.25c-1.04-.99-2.26-1.87-3.65-2.63-1.39-.76-2.85-1.4-4.39-1.92-1.54-.52-3.12-.92-4.75-1.18-1.62-.26-3.19-.39-4.71-.39-4.08,0-7.79.72-11.13,2.16-3.35,1.44-6.21,3.41-8.59,5.92-2.38,2.51-4.21,5.44-5.49,8.79-1.28,3.35-1.92,6.93-1.92,10.75s.63,7.42,1.88,10.82c1.26,3.4,3.07,6.37,5.45,8.9,2.38,2.54,5.28,4.54,8.71,6,3.42,1.47,7.3,2.2,11.64,2.2,3.77,0,7.11-.39,10.04-1.17,2.93-.79,5.62-1.78,8.08-2.98v-21.8h-14.43v-1.49h16.16v24.24c-2.2,1.2-4.98,2.3-8.33,3.29Z"/><path d="M638.38,227.87l-16.79-28h-13.02v28h-1.73v-55.53h15.38c2.04,0,4.1.18,6.19.55,2.09.37,3.96,1.06,5.61,2.08,1.65,1.02,2.99,2.42,4.04,4.19,1.04,1.78,1.57,4.08,1.57,6.9,0,2.62-.5,4.78-1.49,6.51-1,1.73-2.28,3.12-3.84,4.2-1.57,1.07-3.31,1.84-5.22,2.31-1.91.47-3.78.71-5.61.71l16.86,28.08h-1.96ZM637.91,186.06c0-2.4-.47-4.4-1.42-6-.94-1.59-2.18-2.85-3.72-3.76-1.54-.91-3.32-1.55-5.33-1.92-2.02-.36-4.07-.55-6.16-.55h-12.7v24.55h13.57c5.13,0,9.03-1.07,11.72-3.21,2.69-2.14,4.04-5.18,4.04-9.1Z"/><path d="M658.18,227.87v-55.53h32.39v1.57h-30.66v24.39h28.86v1.57h-28.86v26.43h31.92v1.57h-33.65Z"/><path d="M751,227.87l-39.84-53.33h-.24v53.33h-1.73v-55.53h2.43l39.92,53.26h.24v-53.26h1.73v55.53h-2.51Z"/><path d="M805.63,214.53c0,2.35-.46,4.46-1.37,6.31-.91,1.86-2.13,3.42-3.65,4.71-1.52,1.28-3.31,2.25-5.37,2.9-2.07.66-4.22.98-6.47.98-3.45,0-6.6-.62-9.45-1.84-2.85-1.23-5.21-2.89-7.1-4.98l1.33-1.18c1.99,2.15,4.31,3.75,6.94,4.83,2.64,1.07,5.37,1.61,8.2,1.61,2.04,0,3.97-.3,5.8-.9,1.83-.6,3.45-1.47,4.86-2.59,1.42-1.12,2.52-2.51,3.34-4.16.81-1.65,1.21-3.54,1.21-5.69s-.44-3.95-1.33-5.41c-.89-1.46-2.04-2.72-3.45-3.76-1.41-1.05-3.02-1.93-4.82-2.63-1.8-.71-3.62-1.35-5.45-1.92-2.3-.73-4.4-1.5-6.31-2.31-1.91-.81-3.55-1.8-4.94-2.98-1.39-1.18-2.46-2.59-3.22-4.24-.76-1.64-1.14-3.64-1.14-6s.46-4.35,1.38-6.16c.91-1.81,2.15-3.32,3.72-4.55,1.57-1.23,3.39-2.17,5.45-2.82,2.07-.65,4.25-.98,6.55-.98,2.82,0,5.5.53,8.04,1.61,2.54,1.07,4.62,2.6,6.24,4.59l-1.33,1.17c-1.47-1.83-3.33-3.25-5.61-4.27-2.28-1.02-4.75-1.53-7.41-1.53-1.88,0-3.72.26-5.53.79-1.81.52-3.44,1.32-4.9,2.39-1.47,1.07-2.64,2.42-3.53,4.04-.89,1.62-1.33,3.53-1.33,5.72s.39,3.96,1.18,5.45c.78,1.49,1.83,2.76,3.14,3.81,1.31,1.04,2.78,1.91,4.43,2.58,1.65.68,3.33,1.31,5.06,1.89,2.35.78,4.55,1.58,6.59,2.39,2.04.81,3.83,1.79,5.38,2.94,1.54,1.15,2.74,2.55,3.61,4.2.86,1.65,1.29,3.65,1.29,6Z"/></svg>