<?xml version="1.0" encoding="UTF-8"?><svg id="Layer_1" xmlns="http://www.w3.org/2000/svg" viewBox="0 0 1080 879"><defs><style>.cls-1{fill:#fff;stroke:#000;stroke-miterlimit:10;stroke-width:2px;}</style></defs><path d="M331.1,475.58c-20.06,0-36.32,16.26-36.32,36.32h0v138h29.05v-29.05h14.53v29.05h29.05v-138h0c0-20.06-16.26-36.32-36.31-36.32ZM338.37,591.79h-14.53v-79.89c0-4.01,3.25-7.26,7.26-7.26s7.26,3.25,7.26,7.26h0v79.89Z"/><path d="M737.83,432.01c-20.06,0-36.31,16.26-36.31,36.32v181.58h29.05v-29.05h14.53v29.05h29.05v-181.58c0-20.06-16.26-36.32-36.32-36.32ZM745.1,475.58v116.21h-14.53v-116.21h0v-7.26h0c0-4.01,3.25-7.26,7.26-7.26s7.26,3.25,7.26,7.26h0v7.26h0Z"/><path d="M432.79,475.58h-36.32v116.21h29.05v-29.05h7.26s0,.02,0,.02c4.01,0,7.26,3.25,7.26,7.26v21.77h29.05v-21.77c0-8.18-2.71-15.73-7.27-21.8,4.56-6.07,7.27-13.62,7.27-21.8v-14.53c0-20.06-16.26-36.32-36.32-36.32ZM432.79,533.69h0s-7.26,0-7.26,0v-29.05h7.26c4.01,0,7.26,3.25,7.26,7.26v14.53h0c0,4.01-3.25,7.26-7.26,7.26Z"/><path d="M839.51,432.01h0s-36.31,0-36.31,0v275.99h29.05v-29.05h7.26c4.01,0,7.26,3.25,7.26,7.26v21.79h29.05v-21.79c0-8.18-2.7-15.72-7.26-21.79,4.56-6.07,7.26-13.61,7.26-21.79v-174.31c0-20.06-16.26-36.32-36.32-36.32ZM846.78,642.63c0,4.01-3.25,7.26-7.26,7.26h-7.26v-188.84h7.26c4.01,0,7.26,3.25,7.26,7.26v7.26h0v167.05Z"/><path d="M636.15,432.01h0s-36.32,0-36.32,0v159.79h36.32c20.06,0,36.32-16.26,36.32-36.32v-87.15h0c0-20.06-16.26-36.32-36.32-36.32ZM636.15,562.74h-7.26v-101.68h7.26c4.01,0,7.26,3.25,7.26,7.26h0v87.16h0c0,4.01-3.25,7.26-7.26,7.26Z"/><path d="M527.21,511.9v-36.32h-29.05v36.32c0,20.06,16.26,36.32,36.32,36.32h36.32v-29.05h-36.32c-4.01,0-7.26-3.25-7.26-7.26Z"/><path d="M265.74,424.56c-10.34-3.66-20.09-8.57-29.05-14.57v261.71c0,4.01-3.25,7.25-7.26,7.25h-7.26v-280.24c-11.82-10.58-21.7-23.27-29.05-37.49v317.74h0v29.05h36.32c20.05,0,36.31-16.25,36.31-36.3h0s0-.01,0-.02h0v-247.13Z"/><circle cx="309.32" cy="446.53" r="14.53"/><path d="M352.89,432.01c-8.02,0-14.53,6.5-14.53,14.53s6.5,14.53,14.53,14.53,14.53-6.5,14.53-14.53-6.5-14.53-14.53-14.53Z"/><path d="M411,214.11c8.02,0,14.53-6.5,14.53-14.53s-6.5-14.53-14.53-14.53-14.53,6.5-14.53,14.53,6.5,14.53,14.53,14.53Z"/><path d="M207.63,214.11c8.02,0,14.53-6.5,14.53-14.53s-6.5-14.53-14.53-14.53-14.53,6.5-14.53,14.53,6.5,14.53,14.53,14.53Z"/><path d="M832.25,391.98v-42.56c-15.61,23.5-42.3,39.01-72.63,39.01-48.13,0-87.16-39.02-87.16-87.16s39.02-87.16,87.16-87.16,87.16,39.02,87.16,87.16h0v116.73c11.31,1.62,21.42,6.96,29.05,14.75v-131.45s0-.02,0-.03c0-64.18-52.03-116.21-116.21-116.21s-114.31,50.16-116.15,112.73c-10.4-6.98-22.91-11.05-36.37-11.05-33.92,0-61.8,25.84-65.05,58.9-2.45-.52-4.98-.8-7.58-.8s-4.92.25-7.26.73v-.73h-.41c-3.61-32.68-31.31-58.1-64.96-58.1-13.46,0-25.97,4.07-36.37,11.05-1.84-62.57-53.14-112.73-116.15-112.73s-116.21,52.03-116.21,116.21,52.03,116.21,116.21,116.21c34.71,0,65.86-15.22,87.16-39.35v82.93h29.05v-108.95c0-20.06,16.26-36.32,36.31-36.32s36.31,16.26,36.31,36.32-16.26,36.31-36.31,36.31c-7.49,0-14.44-2.27-20.22-6.15v31.98c6.37,2.08,13.16,3.22,20.22,3.22,13.44,0,25.93-4.06,36.32-11.02v54.59h29.05v-79.89c0-4.01,3.25-7.26,7.26-7.26s7.26,3.25,7.26,7.26c0,0,0,.01,0,.02v35.57c16.58-3.36,29.05-18.02,29.05-35.59h0v-29.05c0-20.06,16.26-36.32,36.31-36.32s36.31,16.26,36.31,36.32h0v65.91c11.31,1.62,21.42,6.96,29.05,14.75v-54.65c21.29,24.13,52.44,39.35,87.16,39.35,27.48,0,52.74-9.55,72.63-25.5ZM309.32,388.43c-48.13,0-87.16-39.02-87.16-87.16s39.02-87.16,87.16-87.16,87.16,39.02,87.16,87.16-39.02,87.16-87.16,87.16Z"/><path class="cls-1" d="M342.17,464.52c-20.06,0-36.32,16.26-36.32,36.32h0v138h29.05v-29.05h14.53v29.05h29.05v-138h0c0-20.06-16.26-36.32-36.31-36.32ZM349.43,580.73h-14.53v-79.89c0-4.01,3.25-7.26,7.26-7.26s7.26,3.25,7.26,7.26h0v79.89Z"/><path class="cls-1" d="M748.9,420.94c-20.06,0-36.31,16.26-36.31,36.32v181.58h29.05v-29.05h14.53v29.05h29.05v-181.58c0-20.06-16.26-36.32-36.32-36.32ZM756.16,464.52v116.21h-14.53v-116.21h0v-7.26h0c0-4.01,3.25-7.26,7.26-7.26s7.26,3.25,7.26,7.26h0v7.26h0Z"/><path class="cls-1" d="M443.85,464.52h-36.32v116.21h29.05v-29.05h7.26s0,.02,0,.02c4.01,0,7.26,3.25,7.26,7.26v21.77h29.05v-21.77c0-8.18-2.71-15.73-7.27-21.8,4.56-6.07,7.27-13.62,7.27-21.8v-14.53c0-20.06-16.26-36.32-36.32-36.32ZM443.85,522.63h0s-7.26,0-7.26,0v-29.05h7.26c4.01,0,7.26,3.25,7.26,7.26v14.53h0c0,4.01-3.25,7.26-7.26,7.26Z"/><path class="cls-1" d="M850.58,420.94h0s-36.31,0-36.31,0v275.99h29.05v-29.05h7.26c4.01,0,7.26,3.25,7.26,7.26v21.79h29.05v-21.79c0-8.18-2.7-15.72-7.26-21.79,4.56-6.07,7.26-13.61,7.26-21.79v-174.31c0-20.06-16.26-36.32-36.32-36.32ZM857.84,631.57c0,4.01-3.25,7.26-7.26,7.26h-7.26v-188.84h7.26c4.01,0,7.26,3.25,7.26,7.26v7.26h0v167.05Z"/><path class="cls-1" d="M647.21,420.94h0s-36.32,0-36.32,0v159.79h36.32c20.06,0,36.32-16.26,36.32-36.32v-87.15h0c0-20.06-16.26-36.32-36.32-36.32ZM647.21,551.68h-7.26v-101.68h7.26c4.01,0,7.26,3.25,7.26,7.26h0v87.16h0c0,4.01-3.25,7.26-7.26,7.26Z"/><path class="cls-1" d="M538.27,500.84v-36.32h-29.05v36.32c0,20.06,16.26,36.32,36.32,36.32h36.32v-29.05h-36.32c-4.01,0-7.26-3.25-7.26-7.26Z"/><path class="cls-1" d="M276.8,413.49c-10.34-3.66-20.09-8.57-29.05-14.57v261.71c0,4.01-3.25,7.25-7.26,7.25h-7.26v-280.24c-11.82-10.58-21.7-23.27-29.05-37.49v317.74h0v29.05h36.32c20.05,0,36.31-16.25,36.31-36.3h0s0-.01,0-.02h0v-247.13Z"/><circle class="cls-1" cx="320.38" cy="435.47" r="14.53"/><path class="cls-1" d="M363.96,420.94c-8.02,0-14.53,6.5-14.53,14.53s6.5,14.53,14.53,14.53,14.53-6.5,14.53-14.53-6.5-14.53-14.53-14.53Z"/><path class="cls-1" d="M422.06,203.05c8.02,0,14.53-6.5,14.53-14.53s-6.5-14.53-14.53-14.53-14.53,6.5-14.53,14.53,6.5,14.53,14.53,14.53Z"/><path class="cls-1" d="M218.7,203.05c8.02,0,14.53-6.5,14.53-14.53s-6.5-14.53-14.53-14.53-14.53,6.5-14.53,14.53,6.5,14.53,14.53,14.53Z"/><path class="cls-1" d="M843.31,380.92v-42.56c-15.61,23.5-42.3,39.01-72.63,39.01-48.13,0-87.16-39.02-87.16-87.16s39.02-87.16,87.16-87.16,87.16,39.02,87.16,87.16h0v116.73c11.31,1.62,21.42,6.96,29.05,14.75v-131.45s0-.02,0-.03c0-64.18-52.03-116.21-116.21-116.21s-114.31,50.16-116.15,112.73c-10.4-6.98-22.91-11.05-36.37-11.05-33.92,0-61.8,25.84-65.05,58.9-2.45-.52-4.98-.8-7.58-.8s-4.92.25-7.26.73v-.73h-.41c-3.61-32.68-31.31-58.1-64.96-58.1-13.46,0-25.97,4.07-36.37,11.05-1.84-62.57-53.14-112.73-116.15-112.73s-116.21,52.03-116.21,116.21,52.03,116.21,116.21,116.21c34.71,0,65.86-15.22,87.16-39.35v82.93h29.05v-108.95c0-20.06,16.26-36.32,36.31-36.32s36.31,16.26,36.31,36.32-16.26,36.31-36.31,36.31c-7.49,0-14.44-2.27-20.22-6.15v31.98c6.37,2.08,13.16,3.22,20.22,3.22,13.44,0,25.93-4.06,36.32-11.02v54.59h29.05v-79.89c0-4.01,3.25-7.26,7.26-7.26s7.26,3.25,7.26,7.26c0,0,0,.01,0,.02v35.57c16.58-3.36,29.05-18.02,29.05-35.59h0v-29.05c0-20.06,16.26-36.32,36.31-36.32s36.31,16.26,36.31,36.32h0v65.91c11.31,1.62,21.42,6.96,29.05,14.75v-54.65c21.29,24.13,52.44,39.35,87.16,39.35,27.48,0,52.74-9.55,72.63-25.5ZM320.38,377.36c-48.13,0-87.16-39.02-87.16-87.16s39.02-87.16,87.16-87.16,87.16,39.02,87.16,87.16-39.02,87.16-87.16,87.16Z"/></svg>