<?xml version="1.0" encoding="UTF-8"?><svg id="Layer_1" xmlns="http://www.w3.org/2000/svg" viewBox="0 0 1080 394.5"><polygon points="174.92 129.68 143.51 129.68 143.51 223.91 143.51 255.32 174.92 255.32 269.16 255.32 269.16 223.91 174.92 223.91 174.92 129.68"/><path d="M308.42,129.68h-31.41v125.65h125.65v-125.65h-94.24ZM371.25,223.91h-62.82v-62.82h62.82v62.82Z"/><polygon points="638.08 192.5 638.08 255.32 669.49 255.32 669.49 129.68 638.08 129.68 638.08 192.5"/><polygon points="677.34 129.68 677.34 255.32 708.75 255.32 708.75 178.91 708.75 129.68 708.75 129.68 708.75 129.68 677.34 129.68"/><polygon points="771.58 206.09 716.61 139.23 716.61 188.46 771.58 255.32 771.58 255.32 802.99 255.32 802.99 129.68 771.58 129.68 771.58 206.09"/><path d="M441.92,129.68h-31.41v125.65h31.41v-31.41h62.82v31.41h31.41v-125.65h-94.24ZM504.75,192.5h-62.82v-31.41h62.82v31.41Z"/><polygon points="936.49 161.09 936.49 129.68 842.25 129.68 810.84 129.68 810.84 161.09 810.84 223.91 810.84 255.32 842.25 255.32 905.08 255.32 936.49 255.32 936.49 223.91 936.49 208.21 936.49 192.5 936.49 176.79 873.67 176.79 873.67 208.21 905.08 208.21 905.08 223.91 842.25 223.91 842.25 161.09 936.49 161.09"/><polygon points="543.84 255.32 638.08 192.5 543.84 129.68 543.84 255.32"/></svg>