<?xml version="1.0" encoding="UTF-8"?><svg id="Layer_1" xmlns="http://www.w3.org/2000/svg" viewBox="0 0 1080 1080"><path d="M284.64,660.03c0-5.45.96-10.38,2.89-14.78,1.93-4.4,4.57-8.14,7.95-11.22,3.37-3.08,7.37-5.45,11.99-7.13,4.62-1.67,9.63-2.51,15.03-2.51s10.4.84,15.02,2.51c4.62,1.67,8.63,4.04,12.04,7.13,3.4,3.08,6.07,6.82,7.99,11.22,1.93,4.4,2.89,9.33,2.89,14.78s-.96,10.43-2.89,14.93-4.59,8.33-7.99,11.51c-3.4,3.18-7.41,5.63-12.04,7.37-4.62,1.73-9.63,2.6-15.02,2.6s-10.4-.86-15.03-2.6c-4.62-1.73-8.62-4.19-11.99-7.37-3.37-3.18-6.02-7.02-7.95-11.51-1.92-4.49-2.89-9.47-2.89-14.93ZM300.92,611.88c0-1.28.26-2.51.77-3.66.51-1.16,1.22-2.16,2.12-3.03.9-.86,1.92-1.56,3.08-2.07,1.16-.52,2.41-.77,3.76-.77s2.5.26,3.66.77c1.16.51,2.17,1.2,3.03,2.07.87.87,1.56,1.88,2.07,3.03.51,1.16.77,2.38.77,3.66s-.26,2.58-.77,3.71c-.52,1.13-1.2,2.12-2.07,2.98-.87.87-1.88,1.54-3.03,2.02-1.16.48-2.38.72-3.66.72-2.7,0-4.99-.9-6.88-2.7-1.9-1.8-2.84-4.04-2.84-6.74ZM309.01,660.03c0,2.25.34,4.3,1.01,6.16.68,1.86,1.6,3.47,2.79,4.81,1.19,1.35,2.61,2.39,4.29,3.13,1.67.74,3.47,1.11,5.39,1.11s3.71-.37,5.34-1.11c1.64-.74,3.07-1.78,4.29-3.13,1.22-1.35,2.17-2.95,2.84-4.81.67-1.86,1.01-3.92,1.01-6.16s-.34-4.19-1.01-6.02c-.68-1.83-1.62-3.37-2.84-4.62-1.22-1.25-2.65-2.23-4.29-2.94-1.64-.71-3.42-1.06-5.34-1.06s-3.72.35-5.39,1.06c-1.67.71-3.1,1.69-4.29,2.94-1.19,1.25-2.12,2.79-2.79,4.62-.67,1.83-1.01,3.84-1.01,6.02ZM324.9,611.88c0-1.28.26-2.51.77-3.66.51-1.16,1.22-2.16,2.12-3.03.9-.86,1.93-1.56,3.08-2.07,1.16-.52,2.41-.77,3.76-.77s2.5.26,3.66.77c1.16.51,2.17,1.2,3.03,2.07.87.87,1.56,1.88,2.07,3.03.51,1.16.77,2.38.77,3.66s-.26,2.58-.77,3.71c-.52,1.13-1.2,2.12-2.07,2.98-.87.87-1.88,1.54-3.03,2.02-1.16.48-2.38.72-3.66.72-2.7,0-4.99-.9-6.89-2.7-1.9-1.8-2.84-4.04-2.84-6.74Z"/><path d="M422.36,694.51h-22.92v-48.83h-11.92l-4.84-9.68v-9.68h56.44v9.68l-4.84,9.68h-11.92v48.83Z"/><path d="M806.91,810.08h-22.92v-48.83h-11.92l-4.84-9.68v-9.68h56.44v9.68l-4.84,9.68h-11.92v48.83Z"/><path d="M467.33,626.32h46.9v9.53l-4.77,9.53h-20.56v5.87h17.43v17.82h-17.43v6.36h22.13l4.83,9.53v9.53h-48.54v-68.19Z"/><path d="M591.19,659.07c1.6.38,3.18,1.01,4.72,1.88,1.54.86,2.92,1.96,4.14,3.28,1.21,1.31,2.18,2.84,2.89,4.57.71,1.73,1.06,3.66,1.06,5.78,0,3.72-.76,6.86-2.26,9.39-1.52,2.54-3.5,4.59-5.98,6.16-2.47,1.58-5.29,2.7-8.47,3.37-3.18.67-6.44,1.01-9.78,1.01h-30.91v-68.19h28.03c2.75,0,5.7.21,8.81.63,3.11.42,5.98,1.25,8.62,2.5,2.63,1.25,4.81,3.08,6.54,5.49,1.74,2.41,2.61,5.57,2.61,9.48,0,3.66-.92,6.68-2.75,9.05-1.83,2.37-4.25,4.14-7.27,5.3v.29ZM567.98,644.14v8.38h6.16c1.6,0,2.92-.37,3.95-1.11,1.02-.74,1.54-1.88,1.54-3.42,0-1.28-.54-2.25-1.64-2.89-1.09-.64-2.53-.96-4.33-.96h-5.68ZM567.98,667.25v9.25h6.84c1.8,0,3.25-.4,4.38-1.2,1.13-.8,1.69-1.98,1.69-3.51,0-.9-.24-1.64-.72-2.22-.49-.58-1.07-1.05-1.78-1.4-.71-.35-1.46-.59-2.27-.72s-1.55-.19-2.26-.19h-5.88Z"/><path d="M631.44,660.03c0-5.45.96-10.38,2.89-14.78,1.92-4.4,4.57-8.14,7.94-11.22,3.37-3.08,7.37-5.45,11.99-7.13s9.63-2.51,15.02-2.51,10.4.84,15.02,2.51c4.62,1.67,8.63,4.04,12.04,7.13,3.4,3.08,6.07,6.82,7.99,11.22,1.92,4.4,2.89,9.33,2.89,14.78s-.96,10.43-2.89,14.93c-1.92,4.49-4.59,8.33-7.99,11.51-3.4,3.18-7.42,5.63-12.04,7.37-4.62,1.73-9.63,2.6-15.02,2.6s-10.4-.86-15.02-2.6c-4.62-1.73-8.62-4.19-11.99-7.37-3.37-3.18-6.02-7.02-7.94-11.51-1.93-4.49-2.89-9.47-2.89-14.93ZM655.81,660.03c0,2.25.33,4.3,1.01,6.16.67,1.86,1.6,3.47,2.79,4.81,1.19,1.35,2.62,2.39,4.29,3.13,1.67.74,3.47,1.11,5.39,1.11s3.71-.37,5.35-1.11c1.63-.74,3.06-1.78,4.28-3.13,1.22-1.35,2.17-2.95,2.84-4.81.67-1.86,1.01-3.92,1.01-6.16s-.34-4.19-1.01-6.02c-.67-1.83-1.62-3.37-2.84-4.62-1.22-1.25-2.65-2.23-4.28-2.94-1.64-.71-3.42-1.06-5.35-1.06s-3.72.35-5.39,1.06c-1.67.71-3.1,1.69-4.29,2.94-1.19,1.25-2.12,2.79-2.79,4.62-.68,1.83-1.01,3.84-1.01,6.02Z"/><path d="M738.05,626.32h29.37c3.34,0,6.66.33,9.97,1.01,3.31.67,6.26,1.86,8.86,3.56,2.6,1.7,4.7,3.98,6.3,6.84s2.41,6.44,2.41,10.74-1.03,7.85-3.08,11.03c-2.05,3.18-4.99,5.63-8.83,7.37l17.3,27.64h-26.33l-13.06-24.36h-.67v24.36h-22.25v-68.19ZM760.11,655.12h4.49c.76,0,1.61-.06,2.53-.2.92-.13,1.78-.4,2.58-.82.79-.42,1.46-.99,2.01-1.73.54-.74.81-1.72.81-2.94s-.22-2.18-.67-2.89c-.45-.71-1.02-1.24-1.72-1.59-.7-.35-1.47-.58-2.3-.67-.82-.1-1.59-.14-2.29-.14h-5.45v10.98Z"/><path d="M516.35,788.12v21.96h-22.82v-68.19h29.28c3.47,0,6.87.37,10.21,1.11,3.34.74,6.32,1.99,8.96,3.75,2.63,1.77,4.75,4.11,6.36,7.03,1.6,2.92,2.41,6.6,2.41,11.03s-.79,7.83-2.36,10.78c-1.57,2.96-3.66,5.36-6.26,7.22-2.6,1.86-5.59,3.21-8.96,4.04-3.37.84-6.82,1.25-10.35,1.25h-6.45ZM516.35,759.71v10.98h4.82c1.73,0,3.32-.43,4.77-1.3,1.44-.86,2.17-2.33,2.17-4.38,0-1.09-.19-1.98-.58-2.65s-.91-1.2-1.59-1.59c-.67-.39-1.43-.66-2.26-.82-.84-.16-1.67-.24-2.5-.24h-4.82Z"/><path d="M577.51,775.6c0-5.45.96-10.38,2.89-14.78,1.92-4.4,4.57-8.14,7.94-11.22,3.37-3.08,7.37-5.45,11.99-7.13,4.62-1.67,9.63-2.51,15.02-2.51s10.4.84,15.02,2.51c4.62,1.67,8.63,4.04,12.04,7.13,3.4,3.08,6.07,6.82,7.99,11.22,1.92,4.4,2.89,9.33,2.89,14.78s-.96,10.43-2.89,14.93c-1.92,4.49-4.59,8.33-7.99,11.51-3.4,3.18-7.42,5.63-12.04,7.37-4.62,1.73-9.63,2.6-15.02,2.6s-10.4-.86-15.02-2.6c-4.62-1.73-8.62-4.19-11.99-7.37-3.37-3.18-6.02-7.02-7.94-11.51-1.93-4.49-2.89-9.47-2.89-14.93ZM601.87,775.6c0,2.25.33,4.3,1.01,6.16.67,1.86,1.6,3.47,2.79,4.81,1.19,1.35,2.62,2.39,4.29,3.13,1.67.74,3.47,1.11,5.39,1.11s3.71-.37,5.35-1.11c1.63-.74,3.06-1.78,4.28-3.13,1.22-1.35,2.17-2.95,2.84-4.81.67-1.86,1.01-3.92,1.01-6.16s-.34-4.19-1.01-6.02-1.62-3.37-2.84-4.62c-1.22-1.25-2.65-2.23-4.28-2.94-1.64-.71-3.42-1.06-5.35-1.06s-3.72.35-5.39,1.06c-1.67.71-3.1,1.69-4.29,2.94-1.19,1.25-2.12,2.79-2.79,4.62-.68,1.83-1.01,3.84-1.01,6.02Z"/><path d="M684.12,741.89h29.37c3.34,0,6.66.33,9.97,1.01,3.31.67,6.26,1.86,8.86,3.56,2.6,1.7,4.7,3.98,6.3,6.84,1.6,2.86,2.41,6.44,2.41,10.74s-1.03,7.85-3.08,11.03c-2.05,3.18-4.99,5.63-8.83,7.37l17.3,27.64h-26.33l-13.06-24.36h-.67v24.36h-22.25v-68.19ZM706.17,770.69h4.49c.76,0,1.61-.06,2.53-.2.92-.13,1.78-.4,2.58-.82.79-.42,1.46-.99,2.01-1.73.54-.74.81-1.72.81-2.94s-.22-2.18-.67-2.89c-.45-.71-1.02-1.24-1.72-1.59-.7-.35-1.47-.58-2.3-.67-.82-.1-1.59-.14-2.29-.14h-5.45v10.98Z"/><path d="M239.44,652.32l-9,18.01-.87,1.74h5.18v3.46c-.58.32-1.38.56-2.41.72-1.03.16-2.02.24-2.99.24-5.46,0-9.42-1.49-11.9-4.48-2.47-2.99-3.71-6.85-3.71-11.6,0-2.37.42-4.53,1.25-6.45.83-1.93,1.92-3.58,3.27-4.96,1.35-1.38,2.9-2.44,4.67-3.18.88-.37,1.77-.64,2.67-.83.91-.19,1.83-.28,2.77-.28,2.82,0,5.2.5,7.13,1.49,1.92.99,3.58,2.32,4.99,3.98l9.54-19.08c-2.31-1.59-4.83-3.02-7.83-4.11-.42-.15-.86-.26-1.29-.4-4.4-1.44-9.02-2.2-13.88-2.2-5.14,0-9.95.85-14.45,2.55-4.49,1.7-8.41,4.13-11.75,7.27-3.34,3.14-5.97,6.93-7.9,11.36-1.92,4.43-2.89,9.37-2.89,14.83s.96,10.4,2.89,14.83c1.93,4.43,4.57,8.2,7.95,11.31,3.37,3.12,7.35,5.51,11.94,7.18,4.59,1.67,9.58,2.5,14.98,2.5,2.57,0,5.14-.18,7.71-.53,2.57-.35,5.02-.82,7.37-1.39,2.34-.58,4.56-1.27,6.65-2.07,2.09-.8,3.93-1.69,5.54-2.65v-37.27h-15.63Z"/><path d="M874.3,652.32l-9,18.01-.87,1.74h5.18v3.46c-.58.32-1.38.56-2.41.72-1.03.16-2.02.24-2.99.24-5.46,0-9.42-1.49-11.9-4.48-2.47-2.99-3.71-6.85-3.71-11.6,0-2.37.42-4.53,1.25-6.45.83-1.93,1.92-3.58,3.27-4.96,1.35-1.38,2.9-2.44,4.67-3.18.88-.37,1.77-.64,2.67-.83.91-.19,1.83-.28,2.77-.28,2.82,0,5.2.5,7.13,1.49,1.92.99,3.58,2.32,4.99,3.98l9.54-19.08c-2.31-1.59-4.83-3.02-7.83-4.11-.42-.15-.86-.26-1.29-.4-4.4-1.44-9.02-2.2-13.88-2.2-5.14,0-9.95.85-14.45,2.55-4.49,1.7-8.41,4.13-11.75,7.27-3.34,3.14-5.97,6.93-7.9,11.36-1.92,4.43-2.89,9.37-2.89,14.83s.96,10.4,2.89,14.83c1.93,4.43,4.57,8.2,7.95,11.31,3.37,3.12,7.35,5.51,11.94,7.18,4.59,1.67,9.58,2.5,14.98,2.5,2.57,0,5.14-.18,7.71-.53,2.57-.35,5.02-.82,7.37-1.39,2.34-.58,4.56-1.27,6.65-2.07,2.09-.8,3.93-1.69,5.54-2.65v-37.27h-15.63Z"/><polygon points="379.02 784.65 348.44 784.65 357.35 766.83 387.93 766.83 379.02 784.65"/><path d="M461.17,778.78c-1.48-2.37-3.35-4.38-5.63-6.02-2.28-1.64-4.77-2.97-7.46-4-2.7-1.02-5.26-1.93-7.71-2.69-2.38-.77-4.09-1.41-5.15-1.93-1.06-.51-1.59-1.28-1.59-2.31,0-1.09.51-1.88,1.54-2.36,1.03-.48,2.38-.72,4.04-.72,1.8,0,3.82.5,6.07,1.49,2.25.99,4.14,2.45,5.68,4.38l9.19-18.38c-2.25-1.44-4.62-2.71-7.22-3.67-4.66-1.73-9.23-2.6-13.72-2.6-3.34,0-6.71.42-10.11,1.26-3.4.84-6.47,2.2-9.2,4.1-2.73,1.9-4.96,4.32-6.69,7.28-1.73,2.96-2.6,6.56-2.6,10.8,0,3.03.48,5.62,1.44,7.77.9,2.01,2.12,3.73,3.61,5.21.11.11.18.24.29.34,1.64,1.55,3.51,2.85,5.63,3.91.51.25,1.07.42,1.58.66,1.65.76,3.3,1.51,5.06,2.09,2.37.77,4.35,1.45,5.92,2.03,1.57.58,2.81,1.11,3.71,1.59.9.48,1.53.95,1.88,1.4.35.45.53,1,.53,1.64,0,1.22-.53,2.06-1.59,2.51-1.06.45-2.23.68-3.51.68-2.83,0-5.57-.67-8.23-2.02-2.67-1.35-4.8-2.89-6.41-4.62l-9.26,18.51c.42.26.73.58,1.17.83,2.18,1.25,4.51,2.33,6.98,3.26,2.47.92,5.04,1.63,7.7,2.11,2.66.48,5.38.72,8.14.72,3.47,0,6.87-.5,10.21-1.49,3.34-1,6.34-2.51,9-4.53,2.66-2.02,4.82-4.56,6.45-7.61,1.64-3.05,2.46-6.63,2.46-10.74,0-3.53-.74-6.49-2.22-8.86Z"/><polygon points="324.97 791.01 302.84 791.01 302.84 784.65 306.67 784.65 311.56 784.65 320.27 767.22 320.27 766.83 302.84 766.83 302.84 760.96 323.4 760.96 327.99 751.77 328.17 751.42 328.17 741.89 281.27 741.89 281.27 810.07 329.81 810.07 329.81 800.54 324.97 791.01"/><path d="M651.06,446.75c-.3-11.57-2.35-22.68-5.92-33.11-3.31,9.66-7.85,18.75-13.54,27-.13.2-.29.37-.42.57-2.04,2.91-4.2,5.72-6.5,8.43h6.93c0,8.56-1.26,16.8-3.45,24.66-1.05,3.76-2.24,7.45-3.74,11-2.32,5.48-5.15,10.69-8.45,15.56-1.65,2.44-3.41,4.79-5.27,7.05-14.84,17.99-36.43,30.19-60.88,32.8v-182.13c11.15,1.19,21.67,4.44,31.26,9.26h69.65c-.59-6.74-1.83-13.27-3.56-19.61-10.34-37.74-40.02-67.39-77.74-77.72v.86c33.17,11.25,57.82,40.91,61.65,76.86h-45.57c-11.06-4.97-23.06-8.2-35.69-9.31v-93.9c11.4-4.05,19.61-14.82,19.61-27.61,0-16.24-13.17-29.41-29.41-29.41s-29.41,13.17-29.41,29.41c0,12.79,8.21,23.56,19.61,27.61v93.9c-12.63,1.1-24.63,4.34-35.69,9.31h-45.57c3.83-35.96,28.49-65.61,61.65-76.86v-.86c-37.72,10.34-67.4,39.98-77.74,77.72-1.74,6.34-2.97,12.87-3.56,19.61h69.65c9.59-4.82,20.11-8.08,31.26-9.26v182.13c-12.15-1.29-23.6-4.94-33.86-10.52-10.38-5.64-19.55-13.23-27.02-22.28-8.02-9.71-13.98-21.14-17.46-33.61-2.19-7.86-3.45-16.1-3.45-24.66h6.93c-2.3-2.7-4.47-5.51-6.5-8.43-.14-.19-.29-.37-.42-.57-5.69-8.26-10.23-17.34-13.54-27-3.57,10.43-5.63,21.54-5.93,33.11-.02.97-.15,1.91-.15,2.89,0,38.02,19.11,71.55,48.21,91.6,15.38,10.6,33.55,17.39,53.2,19.11,3.24.28,6.49.49,9.8.49s6.57-.21,9.8-.49c19.64-1.72,37.82-8.51,53.2-19.11,29.11-20.06,48.21-53.58,48.21-91.6,0-.98-.12-1.92-.15-2.89ZM540,237.02c-10.83,0-19.61-8.78-19.61-19.61s8.78-19.61,19.61-19.61,19.61,8.78,19.61,19.61-8.78,19.61-19.61,19.61Z"/></svg>