<?xml version="1.0" encoding="UTF-8"?><svg id="Layer_1" xmlns="http://www.w3.org/2000/svg" viewBox="0 0 1080 402.62"><path d="M845.99,198h0c-19.92,0-37.95,8.07-51.01,21.13-6.51,6.51-15.51,10.55-25.45,10.56-9.21-.02-18.41-3.54-25.43-10.56h0s0,0,0,0c-4.73-4.73-7.86-10.45-9.41-16.49h34.92c4.98,0,9.02-4.04,9.02-9.02s-4.04-9.02-9.02-9.02h-34.92c1.55-6.04,4.69-11.76,9.42-16.49,7.04-7.04,16.27-10.56,25.5-10.56s18.46,3.52,25.5,10.56c5.64,5.63,9.41,13.13,10.34,21.48,10.64-5.37,22.48-8.69,35.02-9.45-2.74-14.52-9.82-27.5-19.85-37.53-14.09-14.09-32.55-21.13-51.01-21.13s-36.92,7.04-51.01,21.13c-14.09,14.09-21.13,32.55-21.13,51.01h0c0,1.51.06,3.02.16,4.53,1.06,16.92,8.04,33.54,20.97,46.47,0,0,0,0,0,0h0s0,0,0,0c14.05,14.05,32.46,21.09,50.88,21.13h0s.04,0,.06,0c.02,0,.05,0,.07,0h0c19.87-.04,37.85-8.1,50.88-21.13,6.53-6.53,15.54-10.56,25.5-10.56s18.98,4.04,25.5,10.56l25.5-25.5c-13.05-13.05-31.09-21.13-51.01-21.13Z"/><polygon points="401.98 157.56 433.64 157.56 433.64 175.59 469.71 175.59 469.71 157.56 523.82 157.56 523.82 121.49 365.91 121.49 401.98 157.56"/><polygon points="744.1 219.13 744.1 219.13 744.1 219.13 744.1 219.13"/><path d="M487.75,220.37v41.22c9.79-3.48,18.98-9.12,26.81-16.96,2.79-2.79,5.92-5.01,9.26-6.7v-62.35h-36.07v44.78Z"/><path d="M433.64,193.62v21.1l-72.11-72.11c-13.05-13.05-31.09-21.13-51.01-21.13s-37.95,8.07-51.01,21.13c-13.05,13.05-21.13,31.09-21.13,51.01,0,1.52.06,3.03.16,4.53-1.5-.09-3.01-.16-4.53-.16-19.92,0-37.95,8.07-51.01,21.13l25.5,25.5c6.53-6.53,15.54-10.56,25.5-10.56s18.97,4.04,25.5,10.56c0,0,0,0,0,0,13.05,13.05,31.09,21.13,51.01,21.13h0c26.49,0,49.63-14.29,62.18-35.57l-27.31-27.31c-4.09,15.43-18.15,26.81-34.86,26.81h0c-4.98,0-9.72-1.01-14.04-2.83-2.16-.91-4.21-2.03-6.13-3.33-.48-.32-.95-.66-1.41-1.01-.93-.69-1.82-1.43-2.67-2.2-.43-.39-.84-.79-1.25-1.19h0s0,0,0,0c0,0,0,0,0,0-6.52-6.53-10.56-15.54-10.56-25.5s4.04-18.98,10.56-25.5c6.53-6.53,15.54-10.56,25.5-10.56s18.98,4.04,25.5,10.56l25.58,25.58h-.03l18.59,18.59s0-.01,0-.02l32.36,32.36c6.06,6.06,13.2,11.03,21.1,14.63,1.91.87,3.85,1.66,5.84,2.37,7.53,2.66,15.62,4.13,24.06,4.13,2.06,0,4.11-.1,6.16-.28v-71.86h-36.07Z"/><path d="M667.59,142.62c-14.09-14.09-32.55-21.13-51.01-21.13h-72.14v112.86c8.21.99,15.57,4.73,21.13,10.29,13.05,13.05,31.09,21.13,51.01,21.13,1.19,0,2.38-.03,3.57-.09.56-.03,1.11-.08,1.66-.12.62-.04,1.24-.08,1.85-.14.7-.07,1.39-.16,2.09-.25.46-.06.92-.11,1.39-.18.76-.11,1.51-.25,2.26-.38.4-.07.8-.14,1.19-.21.76-.15,1.52-.32,2.28-.5.39-.09.78-.17,1.16-.27.73-.18,1.46-.38,2.18-.59.41-.12.83-.23,1.24-.35.68-.2,1.34-.43,2.01-.65.46-.15.93-.3,1.39-.47.6-.21,1.19-.44,1.78-.67.52-.2,1.05-.4,1.57-.62.51-.21,1.02-.44,1.53-.66.59-.26,1.17-.52,1.75-.79.43-.21.86-.42,1.29-.64.63-.32,1.27-.63,1.9-.97.37-.2.74-.41,1.11-.62.66-.37,1.32-.74,1.98-1.14.33-.2.66-.41.99-.62.66-.42,1.33-.83,1.98-1.27.33-.22.65-.45.97-.68.63-.44,1.27-.88,1.89-1.35.36-.27.71-.55,1.07-.83.57-.44,1.13-.87,1.69-1.33.46-.38.91-.78,1.36-1.17.44-.38.88-.74,1.31-1.13.85-.77,1.69-1.57,2.51-2.38.02-.03.05-.05.08-.07h0s0,0,0,0c12.93-12.93,19.91-29.55,20.97-46.47.09-1.51.16-3.02.16-4.53,0-18.46-7.04-36.92-21.13-51.01ZM642.09,219.13h0s-.02.02-.03.03c-.42.41-.84.82-1.27,1.2-.21.19-.43.37-.64.56-.23.2-.46.4-.69.59-.28.23-.56.44-.84.66-.18.14-.36.28-.54.42-.31.23-.63.45-.95.67-.16.11-.32.23-.48.34-.33.22-.66.43-.99.64-.16.1-.33.21-.49.31-.33.2-.66.38-.99.57-.18.1-.37.21-.55.31-.31.17-.63.33-.94.48-.22.11-.43.22-.65.32-.29.14-.58.27-.87.39-.26.11-.51.23-.77.33-.26.11-.52.21-.78.31-.3.11-.59.23-.89.34-.23.08-.46.16-.69.24-.33.11-.67.22-1,.32-.21.06-.41.12-.62.18-.36.1-.73.2-1.09.29-.19.05-.39.09-.58.13-.38.09-.76.17-1.14.25-.2.04-.4.07-.6.11-.38.07-.75.14-1.13.19-.23.03-.46.06-.69.09-.35.04-.7.09-1.05.13-.31.03-.62.05-.93.07-.28.02-.55.05-.82.06-.59.03-1.19.05-1.79.05-9.96,0-18.98-4.04-25.5-10.56h0c-3.23-3.23-6.77-6.15-10.56-8.73v-52.84h36.07c9.23,0,18.46,3.52,25.5,10.56,7.04,7.04,10.56,16.27,10.56,25.5s-3.52,18.46-10.56,25.5Z"/></svg>