<svg xmlns="http://www.w3.org/2000/svg" viewBox="0 0 1080 613.25"><path d="M179.38 227.13h-33.29v11.09h55.48v-11.09zm99.86 11.09v33.29h11.1v-44.38h-11.1zm210.83-11.09h-33.29v33.28h44.38v11.1h-44.38v11.1h55.48v-33.29h-44.38v-11.1h44.38v-11.09zm410.55 11.09h33.29v-11.09h-55.48v33.28h44.38v11.1h-44.38v11.1h55.48v-33.29h-44.38v-11.1zm-299.59-11.09h-33.29v55.48h11.1v-22.19h44.38v-33.29zm11.09 22.19h-33.29v-11.1h33.29zm-343.97 66.57h-33.29v55.48h11.1v-22.19h44.38v-33.29zm11.09 22.2h-33.29v-11.1h33.29zm99.87-22.2h-33.29v55.48h55.48v-55.48zm11.09 22.2v22.19h-33.29v-33.29h33.29zm99.87-22.2h-33.29v55.48h44.38v-11.09h-33.28v-33.29h33.28v33.29h11.1v-44.39zm110.96 0h-33.29v55.48h44.38v-11.09h-33.28v-33.29h33.28v33.29h11.1v-44.39zm210.82 0h-22.19v55.48h11.1v-44.38h33.29v-11.1zm-99.86-88.76H678.7v55.48h55.48v-11.1H689.8v-11.1h44.38v-11.09H689.8v-11.1h44.38v-11.09zm0 88.76H678.7v55.48h55.48v-11.09H689.8v-11.1h44.38v-11.09H689.8v-11.1h44.38v-11.1zm110.96-44.38h-22.19v-44.38h-11.1v55.48h55.48v-11.1zm-565.9 0h-11.09v-44.38h-11.1v55.48h44.38v-11.1zm-94.32-11.1v66.58h22.2v-88.77h-22.2zm199.73-16.64h22.19v22.19h-22.19z"/><path d="M834.05 326.99v88.77h22.19v-88.77zM540 227.13c-3.06 0-5.55 2.48-5.55 5.55s2.48 5.55 5.55 5.55 5.55-2.48 5.55-5.55-2.48-5.55-5.55-5.55m-5.55 133.15h3.7v11.1h-3.7zm7.4 11.09 3.7-5.54-3.7-5.55zm-7.4-166.44h11.1v11.1h-11.1zm0-22.19h11.1v11.1h-11.1zm0-22.19h11.1v11.1h-11.1zm0-22.19h11.1v11.1h-11.1zm0-22.19h11.1v11.1h-11.1zm0 155.34h11.1v11.1h-11.1zM540 304.8l5.55-11.1h-11.1zm-5.55 18.49h11.1v3.7h-11.1zm0 25.89h11.1v-3.7h-11.1zm0-33.29h11.1v3.7h-11.1zm0 22.2 5.55 7.39 5.55-7.39zm0-85.07h11.1v-3.7h-11.1zm11.1 7.39-5.55-7.39-5.55 7.39zm-11.1 122.06h11.1v11.1h-11.1zm0 22.19h11.1v11.1h-11.1zm0 22.19h11.1v11.1h-11.1zm0 22.2h11.1v11.1h-11.1zm0 22.19h11.1v11.1h-11.1z"/></svg>