<svg xmlns="http://www.w3.org/2000/svg" viewBox="0 0 1080 394.5"><path d="M174.92 129.68h-31.41v125.64h125.65v-31.41h-94.24zm133.5 0h-31.41v125.65h125.65V129.68zm62.83 94.23h-62.82v-62.82h62.82zm70.67-94.23h-31.41v125.65h31.41v-31.41h62.82v31.41h31.41V129.68h-94.24Zm62.83 62.82h-62.82v-31.41h62.82zm266.83 13.59-54.97-66.86v49.23l54.97 66.86h31.41V129.68h-31.41zm164.91-45v-31.41H810.84v125.64h125.65v-78.53h-62.82v31.42h31.41v15.7h-62.83v-62.82zM638.08 192.5v62.82h31.41V129.68h-31.41zm70.67-62.82h-31.41v125.64h31.41zM543.84 255.32l94.24-62.82-94.24-62.82z"/></svg>