<svg xmlns="http://www.w3.org/2000/svg" viewBox="0 0 1080 1080"><path d="m286.68 825.36-19.51 44.7h4.36l5.05-11.87h23.67l4.86 11.87h4.67l-18.81-44.7zm-8.46 29.04 10.42-24.49 10.1 24.49zm64.02-29.04h-4.17v44.7h25v-3.79h-20.83zm53.41 0h-4.16v44.7h25v-3.79h-20.84zm68.92 23.04c-1.71-.88-3.56-1.59-5.56-2.12s-3.85-1.14-5.56-1.83c-1.7-.69-3.12-1.64-4.26-2.84s-1.71-2.91-1.71-5.15c0-1.43.27-2.67.82-3.72s1.27-1.93 2.18-2.62 1.97-1.22 3.19-1.58 2.5-.54 3.85-.54c1.93 0 3.61.37 5.02 1.11s2.64 1.84 3.69 3.31l3.6-2.59c-1.52-2.02-3.31-3.46-5.4-4.32-2.08-.86-4.35-1.29-6.79-1.29-1.89 0-3.7.26-5.43.79s-3.25 1.3-4.58 2.34a11.2 11.2 0 0 0-3.16 3.85c-.78 1.54-1.17 3.29-1.17 5.27 0 2.11.33 3.87.98 5.3s1.52 2.62 2.62 3.57c1.09.95 2.32 1.72 3.69 2.3 1.37.59 2.78 1.12 4.23 1.58s2.86.93 4.23 1.39 2.6 1.02 3.69 1.67 1.97 1.48 2.62 2.49.98 2.29.98 3.85c0 1.35-.26 2.56-.79 3.63a8.4 8.4 0 0 1-2.15 2.75c-.91.76-1.97 1.35-3.19 1.77s-2.52.63-3.91.63c-2.23 0-4.22-.46-5.97-1.39-1.75-.92-3.17-2.34-4.26-4.23l-3.98 2.65c1.77 2.44 3.89 4.18 6.38 5.21 2.48 1.03 5.2 1.55 8.14 1.55 1.81 0 3.56-.27 5.24-.82s3.17-1.36 4.45-2.43 2.3-2.39 3.06-3.94q1.14-2.34 1.14-5.37c0-2.78-.57-4.96-1.7-6.53a12 12 0 0 0-4.26-3.69Zm41.45.45h21.71v-3.79h-21.71v-15.91h23.17v-3.79h-27.34v44.7h28.35v-3.79h-24.18zm75.19-1.14a11.4 11.4 0 0 0 3.69-1.93c1.11-.86 2.04-1.99 2.78-3.38s1.11-3.16 1.11-5.3c0-1.94-.32-3.58-.95-4.92-.63-1.35-1.43-2.46-2.4-3.35-.97-.88-2.06-1.56-3.28-2.02s-2.42-.8-3.6-1.01-2.27-.34-3.28-.38q-1.515-.06-2.4-.06h-11.74v44.7h4.17v-21.21h7.77l12.56 21.21h4.74l-13.01-21.46c1.22-.17 2.5-.46 3.85-.88Zm-15.91-2.65v-15.91h8.84c2.19 0 3.97.27 5.33.82 1.37.55 2.43 1.22 3.19 2.02s1.27 1.66 1.55 2.59c.27.93.41 1.77.41 2.53s-.14 1.6-.41 2.53-.79 1.79-1.55 2.59-1.82 1.47-3.19 2.02-3.15.82-5.33.82h-8.84Zm68.06 19.51-14.39-39.21h-4.48l16.66 44.7h4.17l16.98-44.7h-4.42zm46.73-39.21h4.17v44.7h-4.17zm68.88 38.23c-1.05.86-2.16 1.58-3.31 2.15q-1.74.855-3.57 1.26c-1.22.27-2.4.41-3.53.41-2.9 0-5.52-.51-7.86-1.52q-3.51-1.515-5.97-4.17c-1.64-1.77-2.9-3.85-3.79-6.25-.88-2.4-1.33-4.99-1.33-7.77s.44-5.37 1.33-7.76c.88-2.4 2.15-4.48 3.79-6.25s3.63-3.16 5.97-4.17 4.96-1.52 7.86-1.52c2.27 0 4.49.48 6.66 1.45s3.95 2.5 5.33 4.61l3.41-2.84c-1.98-2.53-4.28-4.32-6.91-5.4-2.63-1.07-5.46-1.61-8.49-1.61-3.41 0-6.53.59-9.38 1.77q-4.26 1.77-7.29 4.89c-2.02 2.08-3.6 4.56-4.73 7.42-1.14 2.86-1.71 6-1.71 9.41s.57 6.56 1.71 9.44 2.71 5.37 4.73 7.45q3.03 3.12 7.29 4.86c2.84 1.16 5.97 1.74 9.38 1.74s6.33-.63 9.15-1.89 5.3-3.35 7.45-6.25l-3.41-2.59c-.8 1.22-1.73 2.26-2.78 3.12Zm39.84 2.68v-17.42h21.71v-3.79h-21.71v-15.91h23.17v-3.79h-27.34v44.7h28.35v-3.79zm24.18-229.18V403.17H563.47L485.5 169.25h-93.57L267.17 543.52h93.57l15.59-46.78h124.76l46.78 140.35h93.57l-46.78-140.35h124.76v140.35c0 25.84-20.95 46.78-46.78 46.78H563.48l31.19 93.57h77.97c5.18 0 10.27-.32 15.31-.87C758.26 768.94 813 709.43 813 637.09ZM407.52 403.17l31.19-93.57 31.19 93.57z"/></svg>