<svg xmlns="http://www.w3.org/2000/svg" viewBox="0 0 1080 402.62"><path d="M845.99 198c-19.92 0-37.95 8.07-51.01 21.13-6.51 6.51-15.51 10.55-25.45 10.56-9.21-.02-18.41-3.54-25.43-10.56a35.85 35.85 0 0 1-9.41-16.49h34.92c4.98 0 9.02-4.04 9.02-9.02s-4.04-9.02-9.02-9.02h-34.92a35.9 35.9 0 0 1 9.42-16.49c7.04-7.04 16.27-10.56 25.5-10.56s18.46 3.52 25.5 10.56a35.94 35.94 0 0 1 10.34 21.48 89.6 89.6 0 0 1 35.02-9.45c-2.74-14.52-9.82-27.5-19.85-37.53-14.09-14.09-32.55-21.13-51.01-21.13s-36.92 7.04-51.01 21.13-21.13 32.55-21.13 51.01c0 1.51.07 3.02.16 4.53 1.06 16.92 8.04 33.54 20.97 46.47 14.05 14.05 32.46 21.09 50.88 21.13s.04 0 .06 0h.07c19.87-.04 37.85-8.1 50.88-21.13 6.53-6.53 15.54-10.56 25.5-10.56s18.98 4.04 25.5 10.56l25.5-25.5c-13.05-13.05-31.09-21.13-51.01-21.13Zm-444.01-40.44h31.66v18.03h36.07v-18.03h54.11v-36.07H365.91zm85.77 62.81v41.22a71.76 71.76 0 0 0 26.81-16.96c2.79-2.79 5.92-5.01 9.26-6.7v-62.35h-36.07v44.78Zm128.83-98.88h-72.14v112.86c8.21.99 15.57 4.73 21.13 10.29 13.05 13.05 31.09 21.13 51.01 21.13q1.785 0 3.57-.09c.56-.03 1.11-.08 1.66-.12.62-.04 1.24-.08 1.85-.14.7-.07 1.39-.16 2.09-.25.46-.06.92-.11 1.39-.18.76-.11 1.51-.25 2.26-.38.4-.07.8-.14 1.19-.21.76-.15 1.52-.32 2.28-.5.39-.09.78-.17 1.16-.27.73-.18 1.46-.38 2.18-.59.41-.12.83-.23 1.24-.35.68-.2 1.34-.43 2.01-.65.46-.15.93-.3 1.39-.47.6-.21 1.19-.44 1.78-.67.52-.2 1.05-.4 1.57-.62.51-.21 1.02-.44 1.53-.66.59-.26 1.17-.52 1.75-.79.44-.21.86-.42 1.29-.64.63-.32 1.27-.63 1.9-.97.37-.2.74-.41 1.11-.62.66-.37 1.32-.74 1.98-1.14.33-.2.66-.41.99-.62.66-.42 1.33-.83 1.98-1.27.33-.22.65-.45.97-.68.63-.44 1.27-.88 1.89-1.35.36-.27.71-.55 1.07-.83.57-.44 1.13-.87 1.69-1.33.46-.38.91-.78 1.36-1.17.44-.38.88-.74 1.31-1.13.85-.77 1.69-1.57 2.51-2.38.02-.03.05-.05.08-.07 12.93-12.93 19.91-29.55 20.97-46.47.09-1.51.16-3.02.16-4.53 0-18.46-7.04-36.92-21.13-51.01s-32.55-21.13-51.01-21.13Zm25.51 97.64-.03.03c-.42.41-.84.82-1.27 1.2-.21.19-.43.37-.64.56-.23.2-.46.4-.69.59-.28.23-.56.44-.84.66l-.54.42c-.31.23-.63.45-.95.67-.16.11-.32.23-.48.34-.33.22-.66.43-.99.64-.16.1-.33.21-.49.31-.33.2-.66.38-.99.57-.18.1-.37.21-.55.31-.31.17-.63.33-.94.48-.22.11-.43.22-.65.32q-.435.21-.87.39c-.26.11-.51.23-.77.33-.26.11-.52.21-.78.31-.3.11-.59.23-.89.34l-.69.24c-.33.11-.67.22-1 .32l-.62.18c-.36.1-.73.2-1.09.29-.19.05-.39.09-.58.13-.38.09-.76.17-1.14.25-.2.04-.4.07-.6.11-.38.07-.75.14-1.13.19l-.69.09c-.35.04-.7.09-1.05.13-.31.03-.62.05-.93.07-.28.02-.55.05-.82.06-.59.03-1.19.05-1.79.05-9.96 0-18.98-4.04-25.5-10.56a73 73 0 0 0-10.56-8.73v-52.84h36.07c9.23 0 18.46 3.52 25.5 10.56s10.56 16.27 10.56 25.5-3.52 18.46-10.56 25.5Z"/><path d="M433.64 193.62v21.1l-72.11-72.11c-13.05-13.05-31.09-21.13-51.01-21.13s-37.95 8.07-51.01 21.13c-13.05 13.05-21.13 31.09-21.13 51.01 0 1.52.06 3.03.16 4.53-1.5-.09-3.01-.16-4.53-.16-19.92 0-37.95 8.07-51.01 21.13l25.5 25.5c6.53-6.53 15.54-10.56 25.5-10.56s18.97 4.04 25.5 10.56c13.05 13.05 31.09 21.13 51.01 21.13 26.49 0 49.63-14.29 62.18-35.57l-27.31-27.31c-4.09 15.43-18.14 26.81-34.86 26.81-4.98 0-9.72-1.01-14.04-2.83a35.6 35.6 0 0 1-7.54-4.34c-.93-.69-1.82-1.43-2.67-2.2-.43-.39-.84-.79-1.25-1.19-6.52-6.53-10.56-15.54-10.56-25.5s4.04-18.98 10.56-25.5c6.53-6.53 15.54-10.56 25.5-10.56s18.98 4.04 25.5 10.56l25.58 25.58h-.03l18.59 18.59v-.02l32.36 32.36a72.2 72.2 0 0 0 21.1 14.63c1.91.87 3.85 1.66 5.84 2.37a72.1 72.1 0 0 0 24.06 4.13c2.06 0 4.11-.1 6.16-.28v-71.86h-36.07Z"/></svg>