<svg xmlns="http://www.w3.org/2000/svg" viewBox="0 0 1080 1080"><path d="M357.55 674.96c1.93-4.49 2.89-9.47 2.89-14.93s-.96-10.38-2.89-14.78-4.59-8.14-7.99-11.22-7.41-5.45-12.04-7.13c-4.62-1.67-9.63-2.51-15.02-2.51s-10.4.84-15.03 2.51c-4.62 1.67-8.62 4.04-11.99 7.13q-5.055 4.62-7.95 11.22c-1.92 4.4-2.89 9.33-2.89 14.78s.96 10.43 2.89 14.93c1.93 4.49 4.57 8.33 7.95 11.51 3.37 3.18 7.37 5.63 11.99 7.37s9.63 2.6 15.03 2.6 10.4-.86 15.02-2.6c4.62-1.73 8.63-4.19 12.04-7.37 3.4-3.18 6.07-7.02 7.99-11.51m-22.59-8.77c-.68 1.86-1.62 3.47-2.84 4.81a12.8 12.8 0 0 1-4.29 3.13q-2.46 1.11-5.34 1.11c-2.88 0-3.72-.37-5.39-1.11s-3.1-1.78-4.29-3.13-2.12-2.95-2.79-4.81-1.01-3.92-1.01-6.16.34-4.19 1.01-6.02c.68-1.83 1.6-3.37 2.79-4.62q1.785-1.875 4.29-2.94c1.67-.71 3.47-1.06 5.39-1.06s3.71.35 5.34 1.06q2.46 1.065 4.29 2.94c1.22 1.25 2.17 2.79 2.84 4.62s1.01 3.84 1.01 6.02-.34 4.3-1.01 6.16m-.34-44.88q1.92 0 3.66-.72a9.3 9.3 0 0 0 3.03-2.02c.87-.86 1.55-1.86 2.07-2.98.51-1.12.77-2.36.77-3.71s-.26-2.51-.77-3.66c-.52-1.16-1.2-2.16-2.07-3.03-.87-.86-1.88-1.56-3.03-2.07a8.8 8.8 0 0 0-3.66-.77c-1.35 0-2.6.26-3.76.77s-2.18 1.2-3.08 2.07-1.61 1.88-2.12 3.03a8.8 8.8 0 0 0-.77 3.66c0 2.69.95 4.94 2.84 6.74s4.19 2.7 6.89 2.7Zm-23.98 0q1.92 0 3.66-.72a9.3 9.3 0 0 0 3.03-2.02c.87-.86 1.55-1.86 2.07-2.98.51-1.12.77-2.36.77-3.71s-.26-2.51-.77-3.66c-.52-1.16-1.2-2.16-2.07-3.03-.87-.86-1.88-1.56-3.03-2.07a8.8 8.8 0 0 0-3.66-.77c-1.35 0-2.6.26-3.76.77s-2.18 1.2-3.08 2.07-1.61 1.88-2.12 3.03a9 9 0 0 0-.77 3.66c0 2.69.95 4.94 2.84 6.74s4.19 2.7 6.88 2.7Zm111.72 73.2v-48.83h11.92l4.84-9.68v-9.68h-56.44V636l4.84 9.68h11.92v48.83zm344.87 57.06 4.84 9.68h11.92v48.83h22.92v-48.83h11.92l4.84-9.68v-9.68h-56.44zm-251.36-66.6-4.83-9.53h-22.13v-6.36h17.43v-17.82h-17.43v-5.87h20.56l4.77-9.53v-9.54h-46.91v68.19h48.54zm71.42 8.53c3.18-.67 6-1.8 8.47-3.37s4.46-3.63 5.98-6.16c1.5-2.54 2.26-5.67 2.26-9.39 0-2.12-.35-4.04-1.06-5.78-.71-1.73-1.67-3.26-2.89-4.57a17.2 17.2 0 0 0-4.14-3.28 18.3 18.3 0 0 0-4.72-1.88v-.29c3.02-1.16 5.44-2.92 7.27-5.3 1.83-2.37 2.75-5.39 2.75-9.05q0-5.88-2.61-9.48c-1.73-2.41-3.92-4.24-6.54-5.49-2.64-1.25-5.51-2.08-8.62-2.5s-6.06-.63-8.81-.63H546.6v68.19h30.91c3.33 0 6.6-.34 9.78-1.01Zm-19.31-49.36h5.68c1.8 0 3.24.32 4.33.96 1.1.64 1.64 1.61 1.64 2.89 0 1.54-.52 2.68-1.54 3.42-1.03.74-2.35 1.11-3.95 1.11h-6.16zm0 32.36v-9.25h5.88c.71 0 1.46.06 2.26.19s1.56.37 2.27.72 1.3.82 1.78 1.4q.72.87.72 2.22c0 1.54-.56 2.71-1.69 3.51s-2.58 1.2-4.38 1.2h-6.84Zm128.37 9.97c3.4-3.18 6.07-7.02 7.99-11.51 1.93-4.49 2.89-9.47 2.89-14.93s-.96-10.38-2.89-14.78c-1.92-4.4-4.59-8.14-7.99-11.22s-7.42-5.45-12.04-7.13c-4.62-1.67-9.63-2.51-15.02-2.51s-10.4.84-15.02 2.51-8.62 4.04-11.99 7.13c-3.37 3.08-6.02 6.82-7.94 11.22-1.93 4.4-2.89 9.33-2.89 14.78s.96 10.43 2.89 14.93c1.92 4.49 4.57 8.33 7.94 11.51s7.37 5.63 11.99 7.37 9.63 2.6 15.02 2.6 10.4-.86 15.02-2.6c4.62-1.73 8.63-4.19 12.04-7.37m-14.59-20.28c-.67 1.86-1.62 3.47-2.84 4.81a12.9 12.9 0 0 1-4.28 3.13c-1.64.74-3.42 1.11-5.35 1.11s-3.72-.37-5.39-1.11-3.1-1.78-4.29-3.13-2.12-2.95-2.79-4.81c-.68-1.86-1.01-3.92-1.01-6.16s.33-4.19 1.01-6.02q1.005-2.745 2.79-4.62t4.29-2.94c1.67-.71 3.47-1.06 5.39-1.06s3.71.35 5.35 1.06c1.63.71 3.06 1.69 4.28 2.94s2.17 2.79 2.84 4.62 1.01 3.84 1.01 6.02-.34 4.3-1.01 6.16m118.61 28.32-17.3-27.64c3.84-1.73 6.79-4.19 8.83-7.37 2.05-3.18 3.08-6.85 3.08-11.03s-.81-7.88-2.41-10.74-3.71-5.14-6.3-6.84c-2.6-1.7-5.56-2.89-8.86-3.56-3.31-.68-6.63-1.01-9.97-1.01h-29.37v68.19h22.25v-24.36h.67l13.06 24.36h26.33Zm-28.65-42.14c-.54.74-1.21 1.32-2.01 1.73-.8.42-1.66.69-2.58.82s-1.77.2-2.53.2h-4.49v-10.98h5.45c.7 0 1.47.05 2.29.14.83.1 1.59.32 2.3.67.7.35 1.27.88 1.72 1.59s.67 1.67.67 2.89-.27 2.2-.81 2.94Zm-229.75 94.38c-2.63-1.76-5.62-3.02-8.96-3.75-3.34-.74-6.74-1.11-10.21-1.11h-29.28v68.19h22.82v-21.96h6.45c3.53 0 6.98-.42 10.35-1.25 3.37-.84 6.36-2.18 8.96-4.04s4.69-4.27 6.26-7.22 2.36-6.55 2.36-10.78-.8-8.11-2.41-11.03-3.72-5.26-6.36-7.03Zm-16.04 22.63c-1.44.87-3.03 1.3-4.77 1.3h-4.82V759.7h4.82c.83 0 1.67.08 2.5.24s1.59.43 2.26.82q1.02.57 1.59 1.59c.38.67.58 1.56.58 2.65 0 2.05-.72 3.51-2.17 4.38Zm116.49-19.79c-3.4-3.08-7.42-5.45-12.04-7.13-4.62-1.67-9.63-2.51-15.02-2.51s-10.4.84-15.02 2.51-8.62 4.04-11.99 7.13c-3.37 3.08-6.02 6.82-7.94 11.22-1.93 4.4-2.89 9.33-2.89 14.78s.96 10.43 2.89 14.93c1.92 4.49 4.57 8.33 7.94 11.51s7.37 5.63 11.99 7.37c4.62 1.73 9.63 2.6 15.02 2.6s10.4-.86 15.02-2.6 8.63-4.19 12.04-7.37c3.4-3.18 6.07-7.02 7.99-11.51s2.89-9.47 2.89-14.93-.96-10.38-2.89-14.78-4.59-8.14-7.99-11.22m-14.59 32.17c-.67 1.86-1.62 3.47-2.84 4.81a12.9 12.9 0 0 1-4.28 3.13c-1.64.74-3.42 1.11-5.35 1.11s-3.72-.37-5.39-1.11-3.1-1.78-4.29-3.13-2.12-2.95-2.79-4.81c-.68-1.86-1.01-3.92-1.01-6.16s.33-4.19 1.01-6.02q1.005-2.745 2.79-4.62t4.29-2.94c1.67-.71 3.47-1.06 5.39-1.06s3.71.35 5.35 1.06c1.63.71 3.06 1.69 4.28 2.94s2.17 2.79 2.84 4.62 1.01 3.84 1.01 6.02-.34 4.3-1.01 6.16m110.13-6.69c2.05-3.18 3.08-6.85 3.08-11.03s-.81-7.88-2.41-10.74-3.71-5.14-6.3-6.84c-2.6-1.7-5.56-2.89-8.86-3.56-3.31-.68-6.63-1.01-9.97-1.01h-29.37v68.19h22.25v-24.36h.67l13.06 24.36h26.33l-17.3-27.64c3.84-1.73 6.79-4.19 8.83-7.37Zm-20.17-7.13c-.54.74-1.21 1.32-2.01 1.73-.8.42-1.66.69-2.58.82s-1.77.2-2.53.2h-4.49v-10.98h5.45c.7 0 1.47.05 2.29.14.83.1 1.59.32 2.3.67.7.35 1.27.88 1.72 1.59s.67 1.67.67 2.89-.27 2.2-.81 2.94Zm-487.35-97.61-.87 1.74h5.18v3.46c-.58.32-1.38.56-2.41.72s-2.02.24-2.98.24c-5.46 0-9.42-1.49-11.9-4.48-2.47-2.99-3.71-6.85-3.71-11.6 0-2.37.42-4.53 1.25-6.45.83-1.93 1.92-3.58 3.27-4.96s2.9-2.44 4.67-3.18c.88-.37 1.77-.64 2.67-.83.91-.19 1.83-.28 2.77-.28 2.82 0 5.2.5 7.13 1.49 1.92.99 3.58 2.32 4.99 3.98l9.54-19.08c-2.31-1.59-4.83-3.02-7.83-4.11-.42-.15-.86-.26-1.29-.4a44.3 44.3 0 0 0-13.88-2.2c-5.14 0-9.95.85-14.45 2.55-4.49 1.7-8.41 4.13-11.75 7.27s-5.97 6.93-7.9 11.36c-1.92 4.43-2.89 9.37-2.89 14.83s.96 10.4 2.89 14.83q2.895 6.645 7.95 11.31c3.37 3.12 7.35 5.51 11.94 7.18s9.58 2.5 14.98 2.5c2.57 0 5.14-.18 7.71-.53s5.02-.82 7.37-1.39c2.34-.58 4.56-1.27 6.65-2.07s3.93-1.69 5.54-2.65v-37.27h-15.63l-9 18.01Zm643.86-18.01-9 18.01-.87 1.74h5.18v3.46c-.58.32-1.38.56-2.41.72s-2.02.24-2.99.24c-5.46 0-9.42-1.49-11.9-4.48-2.47-2.99-3.71-6.85-3.71-11.6 0-2.37.42-4.53 1.25-6.45.83-1.93 1.92-3.58 3.27-4.96s2.9-2.44 4.67-3.18c.88-.37 1.77-.64 2.67-.83.91-.19 1.83-.28 2.77-.28 2.82 0 5.2.5 7.13 1.49 1.92.99 3.58 2.32 4.99 3.98l9.54-19.08c-2.31-1.59-4.83-3.02-7.83-4.11-.42-.15-.86-.26-1.29-.4a44.3 44.3 0 0 0-13.88-2.2c-5.14 0-9.95.85-14.45 2.55-4.49 1.7-8.41 4.13-11.75 7.27s-5.97 6.93-7.9 11.36-2.89 9.37-2.89 14.83.96 10.4 2.89 14.83 4.57 8.2 7.95 11.31c3.37 3.12 7.35 5.51 11.94 7.18s9.58 2.5 14.98 2.5c2.57 0 5.14-.18 7.71-.53s5.02-.82 7.37-1.39c2.34-.58 4.56-1.27 6.65-2.07s3.93-1.69 5.54-2.65v-37.27H874.3ZM348.44 784.65h30.58l8.91-17.82h-30.58zm107.1-11.9a32.8 32.8 0 0 0-7.46-4c-2.7-1.02-5.27-1.92-7.71-2.69-2.38-.77-4.09-1.41-5.15-1.93q-1.59-.765-1.59-2.31c0-1.09.51-1.88 1.54-2.36s2.38-.72 4.04-.72c1.8 0 3.82.5 6.07 1.49s4.14 2.45 5.68 4.38l9.19-18.38c-2.25-1.44-4.62-2.71-7.21-3.67-4.66-1.73-9.23-2.6-13.72-2.6q-5.01 0-10.11 1.26c-3.4.84-6.47 2.2-9.2 4.1s-4.96 4.32-6.69 7.28-2.6 6.56-2.6 10.8q0 4.545 1.44 7.77c.9 2.01 2.12 3.73 3.61 5.21.11.11.18.24.29.34 1.64 1.55 3.51 2.85 5.63 3.91.51.25 1.07.42 1.58.66 1.65.76 3.3 1.51 5.06 2.09 2.37.77 4.35 1.45 5.92 2.03s2.81 1.11 3.71 1.59 1.52.95 1.88 1.4c.35.45.53 1 .53 1.64 0 1.22-.53 2.06-1.59 2.51s-2.23.68-3.51.68c-2.83 0-5.57-.67-8.23-2.02-2.67-1.35-4.8-2.89-6.41-4.62l-9.26 18.51c.42.26.73.58 1.17.83 2.18 1.25 4.51 2.33 6.98 3.26 2.47.92 5.04 1.63 7.7 2.11s5.38.72 8.14.72c3.47 0 6.87-.5 10.21-1.49q5.01-1.5 9-4.53c2.66-2.02 4.82-4.56 6.45-7.61q2.46-4.575 2.46-10.74c0-3.53-.74-6.49-2.22-8.86a21.1 21.1 0 0 0-5.63-6.02Zm-152.7 18.26v-6.36h8.72l8.71-17.43v-.39h-17.43v-5.87h20.56l4.59-9.19.18-.35v-9.53h-46.9v68.18h48.54v-9.53l-4.84-9.53zm348.22-344.26c-.3-11.57-2.35-22.68-5.92-33.11-3.31 9.66-7.85 18.75-13.54 27-.14.2-.29.37-.43.57-2.04 2.91-4.2 5.72-6.5 8.43h6.93c0 8.56-1.26 16.8-3.45 24.66-1.05 3.76-2.24 7.45-3.74 11a91 91 0 0 1-8.45 15.56 94 94 0 0 1-5.27 7.05c-14.84 17.99-36.43 30.19-60.88 32.8V358.58c11.15 1.19 21.67 4.44 31.26 9.26h69.65c-.59-6.74-1.83-13.27-3.56-19.61-10.34-37.74-40.02-67.39-77.74-77.72v.86c33.17 11.25 57.82 40.91 61.65 76.86H585.5a110.5 110.5 0 0 0-35.69-9.31v-93.9c11.4-4.05 19.61-14.82 19.61-27.61 0-16.24-13.17-29.41-29.41-29.41s-29.41 13.17-29.41 29.41c0 12.79 8.21 23.56 19.61 27.61v93.9c-12.63 1.1-24.63 4.34-35.69 9.31h-45.57c3.83-35.96 28.49-65.61 61.65-76.86v-.86c-37.72 10.34-67.4 39.98-77.74 77.72-1.74 6.34-2.97 12.87-3.56 19.61h69.65c9.59-4.82 20.11-8.08 31.26-9.26v182.13c-12.15-1.29-23.6-4.94-33.86-10.52a92 92 0 0 1-27.02-22.28c-8.02-9.71-13.98-21.14-17.46-33.61-2.19-7.86-3.45-16.1-3.45-24.66h6.93c-2.3-2.7-4.47-5.51-6.5-8.43-.14-.19-.29-.37-.42-.57-5.69-8.26-10.23-17.34-13.54-27a110.9 110.9 0 0 0-5.93 33.11c-.02.97-.15 1.91-.15 2.89 0 38.02 19.11 71.55 48.21 91.6 15.38 10.6 33.55 17.39 53.2 19.11 3.24.28 6.49.49 9.8.49s6.57-.21 9.8-.49c19.65-1.72 37.82-8.51 53.2-19.11 29.11-20.06 48.21-53.58 48.21-91.6 0-.98-.12-1.92-.15-2.89ZM540 237.02c-10.83 0-19.61-8.78-19.61-19.61s8.78-19.61 19.61-19.61 19.61 8.78 19.61 19.61-8.78 19.61-19.61 19.61"/></svg>