<?xml version="1.0" encoding="UTF-8"?><svg xmlns="http://www.w3.org/2000/svg" viewBox="0 0 787.82 366.17"><g id="secondary"><polygon points="16.64 144.25 16.64 166.44 16.64 188.63 16.64 210.82 38.84 210.82 38.84 188.63 38.84 166.44 38.84 144.25 38.84 122.06 16.64 122.06 16.64 144.25"/><rect x="216.37" y="127.6" width="22.19" height="22.19"/><polygon points="687.95 210.82 687.95 233.02 687.95 255.21 687.95 277.4 687.95 299.59 710.15 299.59 710.15 277.4 710.15 255.21 710.15 233.02 710.15 210.82 687.95 210.82"/><path d="M393.91,110.96c-3.06,0-5.55,2.48-5.55,5.55s2.48,5.55,5.55,5.55,5.55-2.48,5.55-5.55-2.48-5.55-5.55-5.55Z"/><rect x="388.36" y="244.11" width="3.7" height="11.1"/><polygon points="395.76 255.21 399.46 249.66 395.76 244.11 395.76 255.21"/><rect x="388.36" y="88.77" width="11.1" height="11.1"/><rect x="388.36" y="66.58" width="11.1" height="11.1"/><rect x="388.36" y="44.38" width="11.1" height="11.1"/><rect x="388.36" y="22.19" width="11.1" height="11.1"/><rect x="388.36" width="11.1" height="11.1"/><rect x="388.36" y="155.34" width="11.1" height="11.1"/><polygon points="393.91 188.63 399.46 177.54 388.36 177.54 393.91 188.63"/><rect x="388.36" y="207.13" width="11.1" height="3.7"/><polygon points="388.36 233.02 399.46 233.02 399.46 229.32 393.91 229.32 388.36 229.32 388.36 233.02"/><rect x="388.36" y="199.73" width="11.1" height="3.7"/><polygon points="388.36 221.92 393.91 229.32 399.46 221.92 388.36 221.92"/><polygon points="388.36 136.85 393.91 136.85 399.46 136.85 399.46 133.15 388.36 133.15 388.36 136.85"/><polygon points="399.46 144.25 393.91 136.85 388.36 144.25 399.46 144.25"/><rect x="388.36" y="266.3" width="11.1" height="11.1"/><rect x="388.36" y="288.5" width="11.1" height="11.1"/><rect x="388.36" y="310.69" width="11.1" height="11.1"/><rect x="388.36" y="332.88" width="11.1" height="11.1"/><rect x="388.36" y="355.07" width="11.1" height="11.1"/></g><g id="primary"><polygon points="33.29 110.96 22.19 110.96 11.1 110.96 0 110.96 0 122.06 11.1 122.06 22.19 122.06 33.29 122.06 44.38 122.06 55.48 122.06 55.48 110.96 44.38 110.96 33.29 110.96"/><polygon points="133.15 122.06 133.15 133.15 133.15 144.25 133.15 155.34 144.25 155.34 144.25 144.25 144.25 133.15 144.25 122.06 144.25 110.96 133.15 110.96 133.15 122.06"/><polygon points="343.98 110.96 332.88 110.96 321.79 110.96 310.69 110.96 310.69 122.06 310.69 133.15 310.69 144.25 321.79 144.25 332.88 144.25 343.98 144.25 355.07 144.25 355.07 155.34 343.98 155.34 332.88 155.34 321.79 155.34 310.69 155.34 310.69 166.44 321.79 166.44 332.88 166.44 343.98 166.44 355.07 166.44 366.17 166.44 366.17 155.34 366.17 144.25 366.17 133.15 355.07 133.15 343.98 133.15 332.88 133.15 321.79 133.15 321.79 122.06 332.88 122.06 343.98 122.06 355.07 122.06 366.17 122.06 366.17 110.96 355.07 110.96 343.98 110.96"/><polygon points="754.53 122.06 765.63 122.06 776.72 122.06 787.82 122.06 787.82 110.96 776.72 110.96 765.63 110.96 754.53 110.96 743.43 110.96 732.34 110.96 732.34 122.06 732.34 133.15 732.34 144.25 743.43 144.25 754.53 144.25 765.63 144.25 776.72 144.25 776.72 155.34 765.63 155.34 754.53 155.34 743.43 155.34 732.34 155.34 732.34 166.44 743.43 166.44 754.53 166.44 765.63 166.44 776.72 166.44 787.82 166.44 787.82 155.34 787.82 144.25 787.82 133.15 776.72 133.15 765.63 133.15 754.53 133.15 743.43 133.15 743.43 122.06 754.53 122.06"/><path d="M454.94,110.96h-33.29v55.48h11.1v-22.19h44.38v-33.29h-22.19ZM466.03,133.15h-33.29v-11.1h33.29v11.1Z"/><path d="M122.06,199.73h-33.29v55.48h11.1v-22.19h44.38v-33.29h-22.19ZM133.15,221.92h-33.29v-11.1h33.29v11.1Z"/><path d="M233.02,199.73h-33.29v55.48h55.48v-55.48h-22.19ZM244.11,221.92v22.19h-33.29v-33.29h33.29v11.1Z"/><polygon points="343.98 199.73 332.88 199.73 321.79 199.73 310.69 199.73 310.69 210.82 310.69 221.92 310.69 233.02 310.69 244.11 310.69 255.21 321.79 255.21 332.88 255.21 343.98 255.21 355.07 255.21 355.07 244.11 343.98 244.11 332.88 244.11 321.79 244.11 321.79 233.02 321.79 221.92 321.79 210.82 332.88 210.82 343.98 210.82 355.07 210.82 355.07 221.92 355.07 233.02 355.07 244.11 366.17 244.11 366.17 233.02 366.17 221.92 366.17 210.82 366.17 199.73 355.07 199.73 343.98 199.73"/><polygon points="454.94 199.73 443.84 199.73 432.75 199.73 421.65 199.73 421.65 210.82 421.65 221.92 421.65 233.02 421.65 244.11 421.65 255.21 432.75 255.21 443.84 255.21 454.94 255.21 466.03 255.21 466.03 244.11 454.94 244.11 443.84 244.11 432.75 244.11 432.75 233.02 432.75 221.92 432.75 210.82 443.84 210.82 454.94 210.82 466.03 210.82 466.03 221.92 466.03 233.02 466.03 244.11 477.13 244.11 477.13 233.02 477.13 221.92 477.13 210.82 477.13 199.73 466.03 199.73 454.94 199.73"/><polygon points="665.76 199.73 654.67 199.73 643.57 199.73 643.57 210.82 643.57 221.92 643.57 233.02 643.57 244.11 643.57 255.21 654.67 255.21 654.67 244.11 654.67 233.02 654.67 221.92 654.67 210.82 665.76 210.82 676.86 210.82 687.95 210.82 687.95 199.73 676.86 199.73 665.76 199.73"/><polygon points="565.9 110.96 554.8 110.96 543.71 110.96 532.61 110.96 532.61 122.06 532.61 133.15 532.61 144.25 532.61 155.34 532.61 166.44 543.71 166.44 554.8 166.44 565.9 166.44 576.99 166.44 588.09 166.44 588.09 155.34 576.99 155.34 565.9 155.34 554.8 155.34 543.71 155.34 543.71 144.25 554.8 144.25 565.9 144.25 576.99 144.25 588.09 144.25 588.09 133.15 576.99 133.15 565.9 133.15 554.8 133.15 543.71 133.15 543.71 122.06 554.8 122.06 565.9 122.06 576.99 122.06 588.09 122.06 588.09 110.96 576.99 110.96 565.9 110.96"/><polygon points="565.9 199.73 554.8 199.73 543.71 199.73 532.61 199.73 532.61 210.82 532.61 221.92 532.61 233.02 532.61 244.11 532.61 255.21 543.71 255.21 554.8 255.21 565.9 255.21 576.99 255.21 588.09 255.21 588.09 244.11 576.99 244.11 565.9 244.11 554.8 244.11 543.71 244.11 543.71 233.02 554.8 233.02 565.9 233.02 576.99 233.02 588.09 233.02 588.09 221.92 576.99 221.92 565.9 221.92 554.8 221.92 543.71 221.92 543.71 210.82 554.8 210.82 565.9 210.82 576.99 210.82 588.09 210.82 588.09 199.73 576.99 199.73 565.9 199.73"/><polygon points="676.86 155.34 665.76 155.34 654.67 155.34 654.67 144.25 654.67 133.15 654.67 122.06 654.67 110.96 643.57 110.96 643.57 122.06 643.57 133.15 643.57 144.25 643.57 155.34 643.57 166.44 654.67 166.44 665.76 166.44 676.86 166.44 687.95 166.44 699.05 166.44 699.05 155.34 687.95 155.34 676.86 155.34"/><polygon points="110.96 155.34 99.86 155.34 99.86 144.25 99.86 133.15 99.86 122.06 99.86 110.96 88.77 110.96 88.77 122.06 88.77 133.15 88.77 144.25 88.77 155.34 88.77 166.44 99.86 166.44 110.96 166.44 122.06 166.44 133.15 166.44 133.15 155.34 122.06 155.34 110.96 155.34"/></g></svg>