<svg xmlns="http://www.w3.org/2000/svg" viewBox="0 0 1080 692.5"><defs><style>.cls-1{fill:#fff}</style></defs><g id="secondary"><path d="M901.91 277.26H856.9v-98.61h-84.96v9.09c0 7.23-5.88 13.1-13.1 13.1l-9.09.21h-.85c-12.36 0-24.4 3.02-35.15 8.68v-19.25h-97.06c-.06-.84-.09-1.69-.09-2.54v-9.09h-56.59a20 20 0 0 0-3.73-5.02c-3.78-3.71-8.77-5.76-14.07-5.76h-7.93c-.62-.74-1.28-1.45-1.97-2.14-5.9-5.85-13.72-9.06-22.02-9.06h-9.09v6.11a44.5 44.5 0 0 0-5.27-6.3c-4.07-4.05-8.8-7.22-14.07-9.45a44.1 44.1 0 0 0-17.22-3.47h-9.09v29.53c-3.15-.92-6.48-1.43-9.93-1.43v6.97h-79.46l-9.17.42c-9.96.92-19.65 3.36-28.9 7.28-11.62 4.92-22.05 11.96-31 20.92-8.96 8.96-15.99 19.4-20.9 31.02-1.18 2.8-2.21 5.64-3.12 8.51-6 9.15-10.37 19.46-12.65 30.54h-37.54v28.11h-9.93v70.16h-34.03v9.09c0 6.45.63 12.8 1.86 19.02h-11.79c0 48.88 39.6 88.51 88.47 88.55s.03 0 .04 0h.04c13.12-.01 25.56-2.9 36.76-8.03h24.49a99.7 99.7 0 0 1-15.53 9.93h43.04v-9.93h10.06V525h-.13v22.19c7.72 0 14.52-3.95 18.49-9.93h.53a31.2 31.2 0 0 0 22.12-9.16c2.87-2.87 5.12-6.21 6.7-9.94.37-.87.69-1.76.97-2.65a88 88 0 0 0 17.86 6.7v.04c7.04 1.8 14.42 2.76 22.02 2.76v-11.8a98.4 98.4 0 0 0 19.02 1.86h9.09v-12.68h.08v-9.93h26.42c0-3.42.4-6.74 1.13-9.93h23.1a22 22 0 0 0-2.25 9.51s0 .07 0 .11v.11c.11 12.16 10 21.98 22.19 21.98v-16.39c3 2.31 6.35 4.04 9.93 5.12v33.25c11.11 0 21.25-4.11 29.01-10.88 3.67-.7 7.27-1.77 10.74-3.24a53.1 53.1 0 0 0 16.93-11.41 53 53 0 0 0 11.41-16.93c.18-.43.34-.86.51-1.29h19.95v-9.93h9.93v9.93h88.55v-9.93h9.93v9.93h43.75c0-3.42.4-6.74 1.14-9.93h11.37c-.98 3.14-1.51 6.47-1.51 9.93 0 18.32 14.86 33.18 33.18 33.18 9.42 0 17.91-3.93 23.95-10.23 3.97-.46 7.83-1.47 11.53-3.03 5.03-2.13 9.55-5.18 13.43-9.05a42 42 0 0 0 9.05-13.43c2.21-5.22 3.33-10.75 3.33-16.46s-1.12-11.24-3.33-16.45a42.3 42.3 0 0 0-9.05-13.43 42.2 42.2 0 0 0-11.82-8.33 58 58 0 0 0 2.75-1.07c6.37-2.69 12.08-6.55 16.99-11.45a53.2 53.2 0 0 0 11.45-16.99c2.79-6.6 4.21-13.6 4.21-20.81v-9.09h-.08v-.85c0-7.17-.78-14.32-2.32-21.25a96.6 96.6 0 0 0-6.64-19.65 97.6 97.6 0 0 0-9.69-16.5h6.77c.96.09 1.92.13 2.87.13h9.09v-40.44h-9.09ZM772.79 483.31"/><path d="M704.95 286.43H616.4v88.55c7.6 0 14.98-.96 22.02-2.76 7.33-1.88 14.3-4.67 20.77-8.25a89 89 0 0 0 18.75-13.87 66.2 66.2 0 0 1 4.83 24.88h22.19v-88.55Zm-56.53 58.13c-3.17 1.75-6.5 3.25-9.97 4.47v-36.65c10.62 3.74 20 10.11 27.37 18.32a66.5 66.5 0 0 1-17.4 13.86m34.13-68.13v.07h22.19c0-24.39 19.78-44.17 44.17-44.17v-22.19c-17 0-32.5 6.39-44.24 16.9v-27.47h-43.06v76.86zm-30.86.07v-44.38c-16.13 0-30.24-8.65-37.95-21.56h37.95v-10.99h-42.62c-1.01-3.7-1.55-7.6-1.55-11.62h-44.38c0 48.9 39.65 88.55 88.55 88.55m140.12 137.62v-29.21h-22.19v88.55h43.75c0-24.39 19.78-44.17 44.17-44.17 24.51 0 44.38-19.87 44.38-44.38h-44.38c-26.08 0-49.52 11.27-65.73 29.21m21.47-127.69v22.19c32.91 0 60.21 23.95 65.45 55.37h-22.58c-4.88-19.08-22.19-33.18-42.79-33.18v44.17h88.47c0-26.49-11.63-50.26-30.07-66.49h27.73c.8.09 1.6.13 2.42.13v-22.27h-88.63zm-76.34 30.07v-30.15H714.8v88.63h22.27c0-19.58 8.49-37.18 21.98-49.33v49.25h44.38v-88.47c-26.49 0-50.26 11.63-66.49 30.07m-370.84-40h22.19c0-8.8 1.72-17.19 4.83-24.88a89 89 0 0 0 18.75 13.87 88 88 0 0 0 20.77 8.25c7.04 1.8 14.42 2.76 22.02 2.76v-22.19c-11.61 0-22.53-2.99-32.02-8.23a66.5 66.5 0 0 1-17.4-13.86c7.35-8.2 16.71-14.56 27.3-18.3v24.76a55.2 55.2 0 0 0 22.14 4.64v-55.3h-.01v-.07h-88.55c-48.87.04-88.47 39.67-88.47 88.55h88.47Zm272.96 138.48c-13.93-15.83-33.42-26.64-55.42-29.38-3.6-.45-7.27-.68-10.99-.69v132.3c24.39 0 44.17-19.78 44.17-44.17 0-20.6-14.1-37.91-33.18-42.79v-22.22c31.38 5.27 55.29 32.56 55.29 65.44h22.27v-88.63h-22.14v30.15Zm58.02-8.01h36.65a66.2 66.2 0 0 1-10.86 19.49c5.6 4.93 12.2 8.75 19.45 11.11a88.2 88.2 0 0 0 14.59-30.64c.03-.11.05-.22.08-.33.05-.18.09-.36.14-.55.09-.36.17-.71.25-1.07.04-.17.08-.34.12-.52.12-.51.23-1.02.33-1.54.02-.07.03-.15.04-.22.09-.45.18-.9.27-1.36.03-.18.07-.37.1-.55.07-.36.13-.72.19-1.08l.09-.56c.07-.42.13-.84.19-1.26.02-.12.04-.23.05-.35.08-.53.15-1.06.21-1.58l.06-.49c.05-.38.09-.77.13-1.16l.06-.56c.04-.4.08-.8.11-1.19.01-.15.03-.3.04-.45l.12-1.63c0-.12.01-.23.02-.35.03-.44.05-.88.07-1.32 0-.18.01-.36.02-.54.01-.4.03-.79.04-1.19 0-.17 0-.34.01-.51.01-.56.02-1.11.02-1.67h-88.55v88.55h88.55v-22.19c-28.92 0-53.51-18.5-62.6-44.3ZM365.12 375.4c0-24.11 19.32-43.71 43.32-44.16v-44.39c-26.08.24-49.46 11.76-65.51 29.92v-30.13H231.98v88.76z" class="cls-1"/></g><g id="text"><path d="M637.41 504.7h12.24v-3.13h-12.63c0 1.08.14 2.13.39 3.13m40.51-3.13h-3.13c0 10.43 8.45 18.88 18.88 18.88v-3.11c-6.48-.01-12.04-3.93-14.46-9.52h14.46v-3.13h-15.44c-.2-1.01-.31-2.06-.31-3.13Z"/><path d="M634.18 504.57c-.01-.07-.03-.15-.04-.22s-.02-.15-.04-.22c-.02-.11-.03-.21-.05-.32-.01-.09-.03-.19-.04-.28 0-.06-.01-.13-.02-.19 0-.08-.02-.17-.03-.25 0-.06-.01-.13-.02-.19 0-.09-.01-.17-.02-.26 0-.06 0-.12-.01-.18 0-.1 0-.19-.01-.29v-.59h-3.13c0 5.73 2.55 10.86 6.58 14.32.89.76 1.85 1.45 2.87 2.03 2.78 1.61 6 2.53 9.44 2.53v-3.11a15.9 15.9 0 0 1-6.58-1.45c-1.02-.47-1.98-1.04-2.87-1.71-1.22-.92-2.31-2.01-3.22-3.23h12.66v-3.13h-14.46c-.45-1.03-.79-2.12-1.01-3.26m21.71-3h-3.11c0 6.58 3.37 12.38 8.47 15.76h-8.47v3.13h18.88v-3.11c-7.63-.01-13.99-5.44-15.44-12.64h15.44v-3.13h-15.77Zm81.8 0h-18.88v3.13h15.45c-1.45 7.2-7.81 12.63-15.45 12.63v3.13h18.88v-3.13h-8.47c5.11-3.38 8.47-9.17 8.47-15.76m54.25 0h-16.48v3.13h15.45c-1.45 7.2-7.81 12.63-15.45 12.63v3.13c10.43 0 18.88-8.45 18.88-18.88h-2.41Zm-51.12 0v18.88h18.88v-18.88zm15.76 15.76h-12.63V504.7h12.63zm6.25-12.63h6.38v15.75h3.12v-18.88h-9.5zm-64.47 12.63c-.86 0-1.56.7-1.56 1.56s.7 1.56 1.56 1.56 1.56-.7 1.56-1.56-.7-1.56-1.56-1.56"/></g><circle id="globe" cx="857.53" cy="473.46" r="33.18" class="cls-1"/><path id="reflection" d="M881.82 469.94c-.37-11.18-9.59-20.4-20.77-20.77-3.95-.13-7.66.8-10.89 2.53 3.45-.67 7.14-.65 10.95.33 8.69 2.23 15.59 9.13 17.83 17.81.06.22.11.45.16.67.37 1.6 2.75 1.33 2.72-.32v-.26Z"/><g id="white"><path d="M825.83 226.62h10.99v10.99h-10.99z" class="cls-1"/><path d="M781.03 187.74c0 12.26-9.93 22.19-22.19 22.19v66.78h88.97v-88.97zm64.45 86.64h-84.31v-62.23c11.67-1.11 20.98-10.42 22.08-22.08h62.23z" class="cls-1"/></g><path id="pacman" d="M803.43 254.31c5.68 0 11.36-2.17 15.69-6.5l-15.69-15.69 15.69-15.69c-4.33-4.33-10.01-6.5-15.69-6.5s-11.36 2.17-15.69 6.5c-8.67 8.67-8.67 22.72 0 31.38 4.33 4.33 10.01 6.5 15.69 6.5" class="cls-1"/><path id="primary" d="M496.77 329.22a88 88 0 0 0 8.25-20.77c1.8-7.04 2.76-14.42 2.76-22.02h-89.4v88.55h89.4v-22.19c-8.8 0-17.19-1.72-24.88-4.83a89 89 0 0 0 13.87-18.75Zm-19.42-10.76a66.5 66.5 0 0 1-13.86 17.4 66.44 66.44 0 0 1-18.32-27.37h36.65a66.6 66.6 0 0 1-4.47 9.97m-35.46 99H375.4v88.55h-.13v22.19c12.26 0 22.19-9.93 22.19-22.19h.13c0-28.92 18.5-53.51 44.3-62.6v36.63a66.5 66.5 0 0 1-19.62-10.9c-4.93 5.6-8.75 12.2-11.11 19.45a88.2 88.2 0 0 0 30.78 14.63v.04c7.04 1.8 14.42 2.76 22.02 2.76v-12.68h.08v-75.87H441.9Zm121.57-120.25h23.51c3.82 6.69 11.02 11.2 19.28 11.2v-22.19H517.7c0 23.91 9.48 45.6 24.88 61.53a66.2 66.2 0 0 1-24.88 4.83v22.4h88.55v-44.59c-20.6 0-37.91-14.1-42.79-33.18m-145.08 87.7h45.65v22.61h-45.65zm-130.9 65.45v-22.58c19.08-4.88 33.18-22.19 33.18-42.79h-44.09v-.08h-88.55c0 48.88 39.6 88.51 88.47 88.55s.03 0 .04 0h.04c48.87-.04 88.47-39.67 88.47-88.55h-22.19c0 32.91-23.95 60.21-55.37 65.45m208.67-35.29v-30.16h-22.19v88.55h44.59c0-20.6 14.1-37.91 33.18-42.79v23.3c-6.63 3.79-11.12 10.9-11.2 19.07s0 .07 0 .11v.11c.11 12.16 10 21.98 22.19 21.98V384.92c-26.53 0-50.34 11.67-66.57 30.16Zm57.06-160.76c-28.95 0-53.56-18.53-62.63-44.38h24.31c7.62 13.26 21.93 22.19 38.32 22.19v-44.17c-.11-5.97-4.99-10.78-10.98-10.78v10.78h-9.72c-.11-12.16-10-21.98-22.19-21.98v21.98h-10.36c-.11-19.39-15.87-35.08-35.29-35.08V276.5h88.55v-22.19Zm-19.28-55.37h8.93v10.99c-6.07 0-10.99-4.92-10.99-10.99zM375.27 375.19v32.33h33.18v-65.3c-18.25 0-33.06 14.74-33.18 32.97" class="cls-1"/></svg>