<svg xmlns="http://www.w3.org/2000/svg" viewBox="0 0 1080 647"><path d="M467.21 172.34h1.73v55.53h-1.73zm48.94 32c-1.54-1.15-3.33-2.13-5.38-2.94-2.03-.81-4.23-1.61-6.59-2.39-1.72-.58-3.41-1.2-5.06-1.89-1.65-.68-3.12-1.54-4.43-2.58a11.9 11.9 0 0 1-3.13-3.81c-.79-1.49-1.18-3.31-1.18-5.45s.44-4.1 1.33-5.72 2.06-2.97 3.53-4.04c1.46-1.07 3.1-1.87 4.9-2.39s3.64-.79 5.53-.79q3.99 0 7.41 1.53c2.28 1.02 4.14 2.45 5.61 4.27l1.33-1.17c-1.62-1.99-3.7-3.52-6.23-4.59a20.5 20.5 0 0 0-8.04-1.61c-2.3 0-4.48.32-6.55.98q-3.105.99-5.46 2.82a13.4 13.4 0 0 0-3.72 4.55c-.92 1.8-1.37 3.86-1.37 6.16s.38 4.35 1.13 6c.76 1.65 1.83 3.06 3.22 4.24 1.38 1.17 3.03 2.17 4.94 2.98s4.01 1.58 6.31 2.31c1.83.58 3.65 1.22 5.45 1.92s3.41 1.58 4.82 2.63c1.41 1.04 2.56 2.3 3.45 3.76s1.33 3.27 1.33 5.41-.4 4.04-1.22 5.69c-.81 1.65-1.92 3.03-3.33 4.16-1.41 1.12-3.03 1.99-4.87 2.59-1.83.6-3.76.9-5.8.9-2.82 0-5.56-.54-8.19-1.61-2.64-1.07-4.95-2.68-6.94-4.83l-1.33 1.18c1.88 2.09 4.25 3.75 7.1 4.98s6 1.84 9.45 1.84c2.25 0 4.41-.33 6.47-.98 2.07-.65 3.86-1.62 5.38-2.9s2.73-2.85 3.65-4.71c.91-1.85 1.37-3.96 1.37-6.31s-.43-4.35-1.29-6-2.06-3.05-3.61-4.2Zm54.04-2.43h14.43v21.8c-2.46 1.2-5.15 2.2-8.08 2.98s-6.28 1.17-10.04 1.17c-4.34 0-8.22-.73-11.64-2.2-3.42-1.46-6.33-3.46-8.71-6-2.38-2.53-4.2-5.5-5.45-8.9s-1.88-7-1.88-10.82.64-7.4 1.92-10.75q1.92-5.025 5.49-8.79c2.37-2.51 5.24-4.48 8.59-5.92q5.025-2.16 11.13-2.16 2.28 0 4.71.39c1.62.26 3.21.66 4.75 1.18s3.01 1.16 4.39 1.92 2.6 1.63 3.65 2.63l1.25-1.25q-3.615-2.985-8.31-4.71c-3.14-1.15-6.59-1.72-10.35-1.72-4.29 0-8.21.73-11.77 2.2-3.56 1.46-6.6 3.49-9.14 6.08s-4.51 5.67-5.92 9.25-2.12 7.46-2.12 11.65.69 8.07 2.08 11.65 3.36 6.7 5.93 9.33c2.57 2.64 5.66 4.72 9.27 6.23 3.61 1.52 7.62 2.28 12.02 2.28s8.27-.5 11.62-1.49 6.13-2.09 8.33-3.29v-24.24h-16.16v1.49Zm58.9-2.83c1.91-.47 3.64-1.24 5.22-2.31q2.355-1.605 3.84-4.2c.99-1.73 1.49-3.89 1.49-6.51 0-2.82-.53-5.12-1.57-6.9-1.05-1.78-2.39-3.17-4.04-4.19s-3.52-1.71-5.61-2.08-4.16-.55-6.19-.55h-15.38v55.53h1.73v-28h13.02l16.79 28h1.96l-16.86-28.08c1.83 0 3.7-.24 5.61-.71Zm-20.52-.7v-24.55h12.7c2.09 0 4.14.19 6.16.55 2.01.37 3.79 1.01 5.33 1.92s2.78 2.17 3.72 3.76c.94 1.6 1.42 3.6 1.42 6 0 3.92-1.35 6.96-4.04 9.1s-6.6 3.21-11.72 3.21h-13.57Zm51.34 1.49h28.86v-1.57h-28.86v-24.39h30.66v-1.57h-32.39v55.53h33.65v-1.57h-31.92zm91.88 25.72h-.24l-39.92-53.25h-2.43v55.53h1.72v-53.34h.24L751 227.87h2.51v-55.53h-1.72zm52.55-17.06c-.87-1.65-2.07-3.05-3.61-4.2s-3.33-2.13-5.38-2.94c-2.04-.81-4.24-1.61-6.59-2.39a74 74 0 0 1-5.06-1.89c-1.65-.68-3.13-1.54-4.43-2.58a12.1 12.1 0 0 1-3.14-3.81c-.78-1.49-1.18-3.31-1.18-5.45s.44-4.1 1.33-5.72 2.06-2.97 3.53-4.04c1.46-1.07 3.09-1.87 4.9-2.39s3.65-.79 5.53-.79q4.005 0 7.41 1.53c2.27 1.02 4.14 2.45 5.61 4.27l1.33-1.17q-2.43-2.985-6.24-4.59a20.5 20.5 0 0 0-8.04-1.61c-2.3 0-4.49.32-6.55.98s-3.88 1.6-5.45 2.82a13.3 13.3 0 0 0-3.72 4.55c-.92 1.8-1.38 3.86-1.38 6.16s.38 4.35 1.14 6 1.83 3.06 3.22 4.24c1.38 1.17 3.03 2.17 4.94 2.98s4.01 1.58 6.31 2.31c1.83.58 3.65 1.22 5.45 1.92 1.81.7 3.41 1.58 4.82 2.63 1.41 1.04 2.56 2.3 3.45 3.76s1.33 3.27 1.33 5.41-.41 4.04-1.21 5.69c-.81 1.65-1.92 3.03-3.34 4.16-1.41 1.12-3.03 1.99-4.86 2.59s-3.77.9-5.8.9c-2.82 0-5.56-.54-8.2-1.61s-4.95-2.68-6.94-4.83l-1.33 1.18c1.89 2.09 4.25 3.75 7.1 4.98s6 1.84 9.45 1.84c2.25 0 4.4-.33 6.47-.98s3.85-1.62 5.37-2.9c1.51-1.28 2.73-2.85 3.65-4.71.91-1.85 1.37-3.96 1.37-6.31s-.43-4.35-1.29-6Zm-417.98 20.19h57.23v-57.23c-31.61 0-57.23 25.62-57.23 57.23m199.47 75.13H528.6c31.61 0 57.23-25.62 57.23-57.23H528.6c-31.61 0-57.23 25.62-57.23 57.23s25.62 57.23 57.23 57.23h57.23c-31.61 0-57.23 25.62-57.23 57.23h57.23c31.61 0 57.23-25.62 57.23-57.23 0-.99-.02-1.97-.07-2.95-1.53-30.24-26.53-54.28-57.15-54.28Zm-199.47 19.69V438c0 31.61 25.62 57.23 57.23 57.23V246.62h-57.23zm-132.13-76.92c-31.59 0-57.2 25.59-57.23 57.17v57.29c0 31.6 25.62 57.23 57.23 57.23v-39.53c31.6-.01 57.2-25.63 57.2-57.23h-57.2v-17.7h57.21c31.6 0 57.23-25.62 57.23-57.23H254.24Zm445.23 7.68a56.97 56.97 0 0 0-28.61-7.67v171.68c31.61 0 57.23-25.62 57.23-57.23V303.8c-.02-21.16-11.53-39.61-28.62-49.5"/><path d="m866.24 414.29-30.33-30.34-3.19-3.19-13.89-13.89-2.57-2.57-30.96-30.95 30.74-30.74 16.67-16.67 33.52-33.52c22.35-22.35 22.35-58.58 0-80.94l-40.46 40.47-30.88 30.87-16.53 16.53-33.52 33.52c-22.17 22.17-22.34 57.98-.53 80.37.18.18.35.38.53.56l30.95 30.95 2.57 2.57 17.08 17.08 30.33 30.34 40.47 40.47c22.35-22.35 22.35-58.59 0-80.94Z"/></svg>