<?xml version="1.0" encoding="UTF-8"?><svg xmlns="http://www.w3.org/2000/svg" viewBox="0 0 686 324.46"><g id="secondary"><rect x="270.21" y="1.57" width="1.73" height="55.53"/><path d="M319.15,33.57c-1.54-1.15-3.33-2.13-5.38-2.94-2.03-.81-4.23-1.61-6.59-2.39-1.72-.58-3.41-1.2-5.06-1.89-1.65-.68-3.12-1.54-4.43-2.58-1.31-1.05-2.35-2.32-3.13-3.81-.79-1.49-1.18-3.31-1.18-5.45s.44-4.1,1.33-5.72c.89-1.62,2.06-2.97,3.53-4.04,1.46-1.07,3.1-1.87,4.9-2.39,1.8-.52,3.64-.79,5.53-.79,2.66,0,5.13.51,7.41,1.53,2.28,1.02,4.14,2.45,5.61,4.27l1.33-1.17c-1.62-1.99-3.7-3.52-6.23-4.59-2.54-1.07-5.22-1.61-8.04-1.61-2.3,0-4.48.32-6.55.98-2.07.66-3.89,1.6-5.46,2.82-1.56,1.23-2.81,2.74-3.72,4.55-.92,1.8-1.37,3.86-1.37,6.16s.38,4.35,1.13,6c.76,1.65,1.83,3.06,3.22,4.24,1.38,1.17,3.03,2.17,4.94,2.98,1.91.81,4.01,1.58,6.31,2.31,1.83.58,3.65,1.22,5.45,1.92,1.8.7,3.41,1.58,4.82,2.63,1.41,1.04,2.56,2.3,3.45,3.76.89,1.46,1.33,3.27,1.33,5.41s-.4,4.04-1.22,5.69c-.81,1.65-1.92,3.03-3.33,4.16-1.41,1.12-3.03,1.99-4.87,2.59-1.83.6-3.76.9-5.8.9-2.82,0-5.56-.54-8.19-1.61-2.64-1.07-4.95-2.68-6.94-4.83l-1.33,1.18c1.88,2.09,4.25,3.75,7.1,4.98s6,1.84,9.45,1.84c2.25,0,4.41-.33,6.47-.98,2.07-.65,3.86-1.62,5.38-2.9,1.52-1.28,2.73-2.85,3.65-4.71.91-1.85,1.37-3.96,1.37-6.31s-.43-4.35-1.29-6c-.86-1.65-2.06-3.05-3.61-4.2Z"/><path d="M373.19,31.14h14.43v21.8c-2.46,1.2-5.15,2.2-8.08,2.98-2.93.78-6.28,1.17-10.04,1.17-4.34,0-8.22-.73-11.64-2.2-3.42-1.46-6.33-3.46-8.71-6-2.38-2.53-4.2-5.5-5.45-8.9-1.25-3.4-1.88-7-1.88-10.82s.64-7.4,1.92-10.75c1.28-3.35,3.11-6.28,5.49-8.79,2.37-2.51,5.24-4.48,8.59-5.92,3.35-1.44,7.06-2.16,11.13-2.16,1.52,0,3.09.13,4.71.39,1.62.26,3.21.66,4.75,1.18,1.54.52,3.01,1.16,4.39,1.92,1.38.76,2.6,1.63,3.65,2.63l1.25-1.25c-2.41-1.99-5.18-3.56-8.31-4.71-3.14-1.15-6.59-1.72-10.35-1.72-4.29,0-8.21.73-11.77,2.2-3.56,1.46-6.6,3.49-9.14,6.08-2.54,2.59-4.51,5.67-5.92,9.25-1.41,3.58-2.12,7.46-2.12,11.65s.69,8.07,2.08,11.65c1.39,3.58,3.36,6.7,5.93,9.33,2.57,2.64,5.66,4.72,9.27,6.23,3.61,1.52,7.62,2.28,12.02,2.28s8.27-.5,11.62-1.49c3.35-.99,6.13-2.09,8.33-3.29v-24.24h-16.16v1.49Z"/><path d="M432.09,28.31c1.91-.47,3.64-1.24,5.22-2.31,1.57-1.07,2.85-2.47,3.84-4.2.99-1.73,1.49-3.89,1.49-6.51,0-2.82-.53-5.12-1.57-6.9-1.05-1.78-2.39-3.17-4.04-4.19-1.65-1.02-3.52-1.71-5.61-2.08-2.09-.37-4.16-.55-6.19-.55h-15.38v55.53h1.73v-28h13.02l16.79,28h1.96l-16.86-28.08c1.83,0,3.7-.24,5.61-.71ZM411.57,27.61V3.06h12.7c2.09,0,4.14.19,6.16.55,2.01.37,3.79,1.01,5.33,1.92,1.54.91,2.78,2.17,3.72,3.76.94,1.6,1.42,3.6,1.42,6,0,3.92-1.35,6.96-4.04,9.1-2.69,2.14-6.6,3.21-11.72,3.21h-13.57Z"/><polygon points="462.91 29.09 491.77 29.09 491.77 27.53 462.91 27.53 462.91 3.14 493.57 3.14 493.57 1.57 461.18 1.57 461.18 57.1 494.83 57.1 494.83 55.53 462.91 55.53 462.91 29.09"/><polygon points="554.79 54.82 554.55 54.82 514.63 1.57 512.2 1.57 512.2 57.1 513.92 57.1 513.92 3.76 514.16 3.76 554 57.1 556.51 57.1 556.51 1.57 554.79 1.57 554.79 54.82"/><path d="M607.34,37.76c-.87-1.65-2.07-3.05-3.61-4.2-1.54-1.15-3.33-2.13-5.38-2.94-2.04-.81-4.24-1.61-6.59-2.39-1.73-.58-3.41-1.2-5.06-1.89-1.65-.68-3.13-1.54-4.43-2.58-1.31-1.05-2.35-2.32-3.14-3.81-.78-1.49-1.18-3.31-1.18-5.45s.44-4.1,1.33-5.72c.89-1.62,2.06-2.97,3.53-4.04,1.46-1.07,3.09-1.87,4.9-2.39,1.81-.52,3.65-.79,5.53-.79,2.67,0,5.14.51,7.41,1.53,2.27,1.02,4.14,2.45,5.61,4.27l1.33-1.17c-1.62-1.99-3.7-3.52-6.24-4.59-2.54-1.07-5.22-1.61-8.04-1.61-2.3,0-4.49.32-6.55.98-2.06.66-3.88,1.6-5.45,2.82-1.57,1.23-2.81,2.74-3.72,4.55-.92,1.8-1.38,3.86-1.38,6.16s.38,4.35,1.14,6c.76,1.65,1.83,3.06,3.22,4.24,1.38,1.17,3.03,2.17,4.94,2.98,1.91.81,4.01,1.58,6.31,2.31,1.83.58,3.65,1.22,5.45,1.92,1.81.7,3.41,1.58,4.82,2.63,1.41,1.04,2.56,2.3,3.45,3.76.89,1.46,1.33,3.27,1.33,5.41s-.41,4.04-1.21,5.69c-.81,1.65-1.92,3.03-3.34,4.16-1.41,1.12-3.03,1.99-4.86,2.59-1.83.6-3.77.9-5.8.9-2.82,0-5.56-.54-8.2-1.61-2.64-1.07-4.95-2.68-6.94-4.83l-1.33,1.18c1.89,2.09,4.25,3.75,7.1,4.98,2.85,1.23,6,1.84,9.45,1.84,2.25,0,4.4-.33,6.47-.98,2.07-.65,3.85-1.62,5.37-2.9,1.51-1.28,2.73-2.85,3.65-4.71.91-1.85,1.37-3.96,1.37-6.31s-.43-4.35-1.29-6Z"/></g><g id="primary"><path d="M189.36,57.95h57.23V.72c-31.61,0-57.23,25.62-57.23,57.23Z"/><path d="M388.83,133.08h-57.23c31.61,0,57.23-25.62,57.23-57.23h-57.23c-31.61,0-57.23,25.62-57.23,57.23h0c0,31.61,25.62,57.23,57.23,57.23h57.23c-31.61,0-57.23,25.62-57.23,57.23h57.23c31.61,0,57.23-25.62,57.23-57.23,0-.99-.02-1.97-.07-2.95-1.53-30.24-26.53-54.28-57.15-54.28Z"/><path d="M189.36,152.77v114.46h0c0,31.61,25.62,57.23,57.23,57.23V75.85h-57.23v76.92Z"/><path d="M57.23,75.85C25.64,75.85.03,101.44,0,133.02h0v57.29c0,31.6,25.62,57.23,57.23,57.23v-39.53c31.6-.01,57.2-25.63,57.2-57.23h-57.2v-17.7h57.21c31.6,0,57.23-25.62,57.23-57.23H57.23Z"/><path d="M502.46,83.53c-8.42-4.87-18.19-7.67-28.61-7.67v57.17s0,.04,0,.05v114.46c31.61,0,57.23-25.62,57.23-57.23v-57.23h0v-.05c-.02-21.16-11.53-39.61-28.62-49.5Z"/><path d="M669.24,243.52l-30.33-30.34-3.19-3.19-13.89-13.89-2.57-2.57-30.96-30.95h0s30.74-30.74,30.74-30.74l16.67-16.67h0s33.52-33.52,33.52-33.52c22.35-22.35,22.35-58.58,0-80.94l-40.46,40.47-30.88,30.87-16.53,16.53h0l-33.52,33.52h0c-22.17,22.17-22.34,57.98-.53,80.37.18.18.35.38.53.56l30.95,30.95,2.57,2.57,17.08,17.08h0l30.33,30.34,40.47,40.47c22.35-22.35,22.35-58.59,0-80.94Z"/></g></svg>