<?xml version="1.0" encoding="UTF-8"?><svg xmlns="http://www.w3.org/2000/svg" viewBox="0 0 545.82 701.95"><g id="secondary"><path d="M19.51,656.12L0,700.81h4.36l5.05-11.87h23.67l4.86,11.87h4.67l-18.81-44.7h-4.29ZM11.05,685.16l10.42-24.49,10.1,24.49H11.05Z"/><polygon points="75.07 656.12 70.9 656.12 70.9 700.81 95.9 700.81 95.9 697.03 75.07 697.03 75.07 656.12"/><polygon points="128.48 656.12 124.32 656.12 124.32 700.81 149.32 700.81 149.32 697.03 128.48 697.03 128.48 656.12"/><path d="M197.4,679.16c-1.71-.88-3.56-1.59-5.56-2.12-2-.53-3.85-1.14-5.56-1.83-1.7-.69-3.12-1.64-4.26-2.84-1.14-1.2-1.71-2.91-1.71-5.15,0-1.43.27-2.67.82-3.72.55-1.05,1.27-1.93,2.18-2.62.91-.69,1.97-1.22,3.19-1.58,1.22-.36,2.5-.54,3.85-.54,1.93,0,3.61.37,5.02,1.11,1.41.74,2.64,1.84,3.69,3.31l3.6-2.59c-1.52-2.02-3.31-3.46-5.4-4.32-2.08-.86-4.35-1.29-6.79-1.29-1.89,0-3.7.26-5.43.79-1.73.53-3.25,1.3-4.58,2.34-1.33,1.03-2.38,2.31-3.16,3.85-.78,1.54-1.17,3.29-1.17,5.27,0,2.11.33,3.87.98,5.3.65,1.43,1.52,2.62,2.62,3.57,1.09.95,2.32,1.72,3.69,2.3,1.37.59,2.78,1.12,4.23,1.58,1.45.46,2.86.93,4.23,1.39,1.37.46,2.6,1.02,3.69,1.67,1.09.65,1.97,1.48,2.62,2.49.65,1.01.98,2.29.98,3.85,0,1.35-.26,2.56-.79,3.63-.53,1.07-1.24,1.99-2.15,2.75-.91.76-1.97,1.35-3.19,1.77-1.22.42-2.52.63-3.91.63-2.23,0-4.22-.46-5.97-1.39-1.75-.92-3.17-2.34-4.26-4.23l-3.98,2.65c1.77,2.44,3.89,4.18,6.38,5.21,2.48,1.03,5.2,1.55,8.14,1.55,1.81,0,3.56-.27,5.24-.82,1.68-.55,3.17-1.36,4.45-2.43,1.28-1.07,2.3-2.39,3.06-3.94.76-1.56,1.14-3.35,1.14-5.37,0-2.78-.57-4.96-1.7-6.53-1.14-1.58-2.56-2.81-4.26-3.69Z"/><polygon points="238.85 679.6 260.56 679.6 260.56 675.81 238.85 675.81 238.85 659.9 262.02 659.9 262.02 656.12 234.68 656.12 234.68 700.81 263.03 700.81 263.03 697.03 238.85 697.03 238.85 679.6"/><path d="M314.04,678.46c1.35-.42,2.58-1.06,3.69-1.93,1.11-.86,2.04-1.99,2.78-3.38.74-1.39,1.11-3.16,1.11-5.3,0-1.94-.32-3.58-.95-4.92-.63-1.35-1.43-2.46-2.4-3.35-.97-.88-2.06-1.56-3.28-2.02-1.22-.46-2.42-.8-3.6-1.01-1.18-.21-2.27-.34-3.28-.38-1.01-.04-1.81-.06-2.4-.06h-11.74v44.7h4.17v-21.21h7.77l12.56,21.21h4.74l-13.01-21.46c1.22-.17,2.5-.46,3.85-.88ZM298.13,675.81v-15.91h8.84c2.19,0,3.97.27,5.33.82,1.37.55,2.43,1.22,3.19,2.02.76.8,1.27,1.66,1.55,2.59.27.93.41,1.77.41,2.53s-.14,1.6-.41,2.53c-.27.93-.79,1.79-1.55,2.59-.76.8-1.82,1.47-3.19,2.02-1.37.55-3.15.82-5.33.82h-8.84Z"/><polygon points="366.19 695.32 351.8 656.12 347.32 656.12 363.98 700.81 368.15 700.81 385.13 656.12 380.71 656.12 366.19 695.32"/><rect x="412.92" y="656.12" width="4.17" height="44.7"/><path d="M481.8,694.34c-1.05.86-2.16,1.58-3.31,2.15-1.16.57-2.35.99-3.57,1.26-1.22.27-2.4.41-3.53.41-2.9,0-5.52-.51-7.86-1.52-2.34-1.01-4.33-2.4-5.97-4.17-1.64-1.77-2.9-3.85-3.79-6.25-.88-2.4-1.33-4.99-1.33-7.77s.44-5.37,1.33-7.76c.88-2.4,2.15-4.48,3.79-6.25s3.63-3.16,5.97-4.17c2.34-1.01,4.96-1.52,7.86-1.52,2.27,0,4.49.48,6.66,1.45,2.17.97,3.95,2.5,5.33,4.61l3.41-2.84c-1.98-2.53-4.28-4.32-6.91-5.4-2.63-1.07-5.46-1.61-8.49-1.61-3.41,0-6.53.59-9.38,1.77-2.84,1.18-5.27,2.81-7.29,4.89-2.02,2.08-3.6,4.56-4.73,7.42-1.14,2.86-1.71,6-1.71,9.41s.57,6.56,1.71,9.44c1.14,2.88,2.71,5.37,4.73,7.45,2.02,2.08,4.45,3.7,7.29,4.86,2.84,1.16,5.97,1.74,9.38,1.74s6.33-.63,9.15-1.89c2.82-1.26,5.3-3.35,7.45-6.25l-3.41-2.59c-.8,1.22-1.73,2.26-2.78,3.12Z"/><polygon points="521.64 697.03 521.64 679.6 543.35 679.6 543.35 675.81 521.64 675.81 521.64 659.9 544.81 659.9 544.81 656.12 517.47 656.12 517.47 700.81 545.82 700.81 545.82 697.03 521.64 697.03"/></g><g id="primary"><path d="M545.82,467.84v-233.92h-249.52L218.33,0h-93.57L0,374.27h93.57l15.59-46.78h124.76l46.78,140.35h93.57l-46.78-140.35h124.76v140.35h0c0,25.84-20.95,46.78-46.78,46.78h0s-15.59,0-15.59,0h0s-93.57,0-93.57,0l31.19,93.57h0s77.97,0,77.97,0h0c5.18,0,10.27-.32,15.31-.87,70.31-7.63,125.05-67.14,125.05-139.48h0ZM140.35,233.92l31.19-93.57,31.19,93.57h-62.38Z"/></g></svg>